<svg width="24" height="24" viewBox="0 0 24 24" fill="none" xmlns="http://www.w3.org/2000/svg">
<path fill-rule="evenodd" clip-rule="evenodd" d="M15.8482 10.6924C15.8482 9.03619 17.1209 7.60065 18.7991 7.60065C20.4657 7.60065 21.75 9.02375 21.75 10.6924C21.75 12.3487 20.4773 13.7842 18.7991 13.7842H14.4546C14.0404 13.7842 13.7046 13.4484 13.7046 13.0342C13.7046 12.62 14.0404 12.2842 14.4546 12.2842H18.7991C19.5591 12.2842 20.25 11.613 20.25 10.6924C20.25 9.76688 19.5544 9.10065 18.7991 9.10065C18.0392 9.10065 17.3482 9.77185 17.3482 10.6924C17.3482 11.1067 17.0124 11.4424 16.5982 11.4424C16.184 11.4424 15.8482 11.1067 15.8482 10.6924Z" fill="black"/>
<path fill-rule="evenodd" clip-rule="evenodd" d="M8.20231 7.91538C8.20231 5.90057 9.69344 4.11844 11.7034 4.11844C13.6998 4.11844 15.2046 5.88545 15.2046 7.91538C15.2046 9.93019 13.7135 11.7123 11.7034 11.7123H5.45459C5.04038 11.7123 4.70459 11.3765 4.70459 10.9623C4.70459 10.5481 5.04038 10.2123 5.45459 10.2123H11.7034C12.7412 10.2123 13.7046 9.25334 13.7046 7.91538C13.7046 6.56988 12.7344 5.61844 11.7034 5.61844C10.6657 5.61844 9.70231 6.57742 9.70231 7.91538C9.70231 8.32959 9.36652 8.66538 8.95231 8.66538C8.5381 8.66538 8.20231 8.32959 8.20231 7.91538Z" fill="black"/>
<path fill-rule="evenodd" clip-rule="evenodd" d="M8.20227 17.9268C8.20227 19.9416 9.6934 21.7237 11.7034 21.7237C13.6998 21.7237 15.2045 19.9567 15.2045 17.9268C15.2045 15.9119 13.7134 14.1298 11.7034 14.1298H3C2.58579 14.1298 2.25 14.4656 2.25 14.8798C2.25 15.294 2.58579 15.6298 3 15.6298H11.7034C12.7411 15.6298 13.7045 16.5888 13.7045 17.9268C13.7045 19.2722 12.7343 20.2237 11.7034 20.2237C10.6657 20.2237 9.70227 19.2647 9.70227 17.9268C9.70227 17.5125 9.36648 17.1768 8.95227 17.1768C8.53805 17.1768 8.20227 17.5125 8.20227 17.9268Z" fill="black"/>
<path opacity="0.9" fill-rule="evenodd" clip-rule="evenodd" d="M19.99 3.1513C20.1852 3.34656 20.1852 3.66314 19.99 3.8584L19.3387 4.50969L19.99 5.16097C20.1852 5.35623 20.1852 5.67281 19.99 5.86808C19.7947 6.06334 19.4781 6.06334 19.2829 5.86808L18.6316 5.21679L17.9803 5.86808C17.785 6.06334 17.4685 6.06334 17.2732 5.86808C17.0779 5.67281 17.0779 5.35623 17.2732 5.16097L17.9245 4.50969L17.2732 3.8584C17.0779 3.66314 17.0779 3.34656 17.2732 3.1513C17.4685 2.95603 17.785 2.95603 17.9803 3.1513L18.6316 3.80258L19.2829 3.1513C19.4781 2.95603 19.7947 2.95603 19.99 3.1513Z" fill="black"/>
<path opacity="0.9" fill-rule="evenodd" clip-rule="evenodd" d="M19.5163 17.9168C19.7116 18.1121 19.7116 18.4286 19.5163 18.6239L18.8651 19.2752L19.5163 19.9265C19.7116 20.1217 19.7116 20.4383 19.5163 20.6336C19.3211 20.8288 19.0045 20.8288 18.8092 20.6336L18.158 19.9823L17.5067 20.6336C17.3114 20.8288 16.9948 20.8288 16.7996 20.6336C16.6043 20.4383 16.6043 20.1217 16.7996 19.9265L17.4509 19.2752L16.7996 18.6239C16.6043 18.4286 16.6043 18.1121 16.7996 17.9168C16.9948 17.7215 17.3114 17.7215 17.5067 17.9168L18.158 18.5681L18.8092 17.9168C19.0045 17.7215 19.3211 17.7215 19.5163 17.9168Z" fill="black"/>
</svg>
