<svg width="24" height="24" viewBox="0 0 24 24" fill="none" xmlns="http://www.w3.org/2000/svg">
<path fill-rule="evenodd" clip-rule="evenodd" d="M5.63234 3.9C4.86889 3.9 4.25 4.5189 4.25 5.28234C4.25 6.04579 4.86889 6.66468 5.63234 6.66468C6.39578 6.66468 7.01468 6.04579 7.01468 5.28234C7.01468 4.5189 6.39578 3.9 5.63234 3.9ZM2.75 5.28234C2.75 3.69047 4.04047 2.4 5.63234 2.4C7.22421 2.4 8.51468 3.69047 8.51468 5.28234C8.51468 6.87421 7.22421 8.16468 5.63234 8.16468C4.04047 8.16468 2.75 6.87421 2.75 5.28234Z" fill="black"/>
<path fill-rule="evenodd" clip-rule="evenodd" d="M14.48 7.10001C12.5726 7.10001 11.0346 7.72575 9.80874 8.96341C8.59371 10.1902 7.97999 11.7175 7.97999 13.6C7.97999 15.4812 8.59301 17.0159 9.80877 18.2565C11.0337 19.4801 12.5717 20.1 14.48 20.1C15.631 20.1 16.6705 19.8377 17.613 19.3196C18.2994 18.9381 18.8717 18.4651 19.3377 17.9016C19.3495 17.8873 19.353 17.8771 19.3546 17.8698C19.3565 17.8611 19.3575 17.8467 19.3528 17.8267C19.3429 17.7842 19.3098 17.7298 19.2462 17.6929L17.9446 16.9371C17.8957 16.9087 17.8184 16.8888 17.6907 16.9177C17.5571 16.9479 17.4029 17.0264 17.2677 17.1438C17.0617 17.3226 16.8348 17.479 16.5894 17.614L16.5864 17.6156L16.5835 17.6172C15.9465 17.9602 15.2395 18.124 14.48 18.124C13.1995 18.124 12.0979 17.721 11.2483 16.8714L11.2432 16.8663L11.2382 16.8611C10.4074 15.9978 10.0156 14.887 10.0156 13.6C10.0156 12.3133 10.4074 11.2057 11.2432 10.3536C12.0918 9.48863 13.1952 9.07602 14.48 9.07602C15.2415 9.07602 15.9498 9.24737 16.5865 9.60423C16.8277 9.73167 17.0513 9.87992 17.255 10.0501C17.3936 10.166 17.5489 10.2432 17.6829 10.2729C17.8111 10.3013 17.8879 10.2814 17.936 10.2538L19.2376 9.50641C19.3018 9.46953 19.335 9.41493 19.3449 9.37248C19.3495 9.35248 19.3484 9.33831 19.3465 9.32983C19.345 9.32284 19.3416 9.31276 19.3295 9.2984C18.8651 8.74589 18.295 8.27911 17.6116 7.89946C16.6533 7.36708 15.6139 7.10001 14.48 7.10001ZM8.74301 7.90783C10.2715 6.36467 12.2029 5.6 14.48 5.6C15.8621 5.6 17.1532 5.92882 18.3401 6.58822C19.1736 7.0513 19.8887 7.6325 20.4777 8.33323C21.1921 9.18309 20.8025 10.3375 19.9845 10.8072L18.6829 11.5546C17.7982 12.0626 16.8326 11.6519 16.2932 11.2012C16.1738 11.1014 16.0366 11.0097 15.8793 10.9271L15.8693 10.9218L15.8594 10.9163C15.4659 10.6942 15.0122 10.576 14.48 10.576C13.5402 10.576 12.8426 10.8653 12.3141 11.4039C11.7991 11.929 11.5156 12.6355 11.5156 13.6C11.5156 14.561 11.7973 15.2761 12.314 15.8159C12.841 16.3402 13.5389 16.624 14.48 16.624C15.0168 16.624 15.4742 16.5102 15.8694 16.2981C16.0266 16.2113 16.1643 16.1153 16.2844 16.011C16.8268 15.5402 17.8054 15.1217 18.6978 15.6399L19.9995 16.3957C20.8096 16.8661 21.195 18.0094 20.4937 18.8575C19.9021 19.573 19.1817 20.1641 18.3401 20.6316L18.3373 20.6332C17.1615 21.2799 15.8709 21.6 14.48 21.6C12.2052 21.6 10.2745 20.8435 8.74554 19.3146L8.74299 19.312L8.74047 19.3095C7.23004 17.7697 6.47998 15.849 6.47998 13.6C6.47998 11.351 7.23019 9.43534 8.74301 7.90783Z" fill="black"/>
</svg>
