<svg width="24" height="24" viewBox="0 0 24 24" fill="none" xmlns="http://www.w3.org/2000/svg">
<path fill-rule="evenodd" clip-rule="evenodd" d="M10.2783 4.09262C10.8856 4.64398 10.7315 5.47985 10.4656 6.06957L10.465 6.07076C10.078 6.92499 9.86573 7.86 9.87361 8.84838L9.87363 8.85114C9.88932 12.5105 13.0495 15.6786 16.9733 15.8335C17.5513 15.8568 18.1042 15.8181 18.6403 15.7255C19.0013 15.662 19.3568 15.6504 19.6782 15.7228C20.0039 15.7962 20.3435 15.9698 20.5582 16.309C20.7746 16.6508 20.7838 17.034 20.7033 17.361C20.6246 17.6808 20.4531 17.989 20.235 18.2744C18.3486 20.7663 15.2176 22.3339 11.734 22.1881C6.79448 21.9783 2.62195 18.1579 2.27584 13.3838C1.95983 9.15293 4.56136 5.48946 8.30541 3.96493C8.90625 3.71923 9.71382 3.58007 10.2783 4.09262ZM9.17133 5.25954C9.09491 5.2747 8.99551 5.30324 8.87241 5.35364L8.87109 5.35417C5.66425 6.65996 3.50891 9.75861 3.77173 13.2729L3.77186 13.2746C4.05812 17.2286 7.55643 20.5091 11.7968 20.6894C14.7897 20.8147 17.4508 19.4679 19.0401 17.3676L19.0425 17.3645C19.0976 17.2925 19.1397 17.2286 19.1713 17.1734C19.0999 17.1752 19.0099 17.1835 18.8994 17.2029L18.897 17.2033C18.2575 17.3139 17.5989 17.3599 16.9135 17.3323C12.2544 17.1481 8.39384 13.385 8.37364 8.85895C8.36418 7.64474 8.62577 6.49574 9.09847 5.45228C9.13296 5.37574 9.15604 5.31168 9.17133 5.25954Z" fill="black"/>
<path fill-rule="evenodd" clip-rule="evenodd" d="M17.2547 2.4014C17.418 1.58737 18.5818 1.58729 18.7451 2.4014L18.842 2.88466C19.0206 3.77525 19.7172 4.4711 20.608 4.64876L21.0975 4.74638C21.9126 4.90897 21.9125 6.07446 21.0975 6.23703L20.608 6.33465C19.7172 6.51231 19.0206 7.20816 18.842 8.09875L18.7451 8.58201C18.5818 9.39611 17.418 9.39604 17.2547 8.58201L17.1578 8.09875C16.9792 7.20816 16.2826 6.51231 15.3918 6.33465L14.9024 6.23703C14.0872 6.07444 14.0873 4.90895 14.9024 4.74638L15.3918 4.64876C16.2826 4.4711 16.9792 3.77525 17.1578 2.88466L17.2547 2.4014ZM17.9999 4.62668C17.7607 4.96032 17.4681 5.2527 17.1344 5.49171C17.4681 5.73071 17.7607 6.02309 17.9999 6.35673C18.2391 6.02309 18.5317 5.73071 18.8655 5.49171C18.5317 5.2527 18.2391 4.96032 17.9999 4.62668Z" fill="black"/>
<path fill-rule="evenodd" clip-rule="evenodd" d="M15.2792 9.27125C15.5106 8.57917 16.4895 8.57915 16.7208 9.27125L16.7358 9.31611C16.9603 9.98778 17.488 10.5145 18.16 10.7379L18.2081 10.7539C18.9018 10.9845 18.9018 11.9657 18.2081 12.1963L18.16 12.2123C17.488 12.4357 16.9603 12.9624 16.7358 13.6341L16.7208 13.679C16.4895 14.3711 15.5106 14.3711 15.2792 13.679L15.2642 13.6341C15.0397 12.9624 14.5121 12.4357 13.84 12.2123L13.792 12.1963C13.0983 11.9657 13.0983 10.9845 13.792 10.7539L13.84 10.7379C14.5121 10.5145 15.0397 9.98778 15.2642 9.3161L15.2792 9.27125ZM16 11.0168C15.8606 11.1825 15.7071 11.3359 15.5412 11.4751C15.7071 11.6144 15.8606 11.7677 16 11.9335C16.1395 11.7677 16.293 11.6144 16.4589 11.4751C16.293 11.3359 16.1395 11.1825 16 11.0168Z" fill="black"/>
</svg>
