<svg width="24" height="24" viewBox="0 0 24 24" fill="none" xmlns="http://www.w3.org/2000/svg">
<g clip-path="url(#clip0_511_51372)">
<path fill-rule="evenodd" clip-rule="evenodd" d="M15.1653 14.6721C15.4415 14.6721 15.6653 14.896 15.6653 15.1721V15.3054L15.7166 15.2424C15.8907 15.028 16.2056 14.9954 16.4199 15.1695C16.6343 15.3436 16.6669 15.6585 16.4928 15.8728L15.6653 16.8915V18.1496L16.704 17.5344L17.1554 16.2754C17.2486 16.0155 17.5348 15.8803 17.7948 15.9735C18.0547 16.0667 18.1899 16.353 18.0967 16.6129L18.0528 16.7355L18.1645 16.6693C18.402 16.5286 18.7087 16.6071 18.8495 16.8447C18.9902 17.0823 18.9117 17.389 18.6741 17.5297L18.5505 17.6029L18.6526 17.621C18.9245 17.6692 19.1059 17.9287 19.0577 18.2006C19.0095 18.4725 18.75 18.6539 18.4781 18.6057L17.2309 18.3845L16.1367 19.0327L17.2853 19.713L18.4965 19.4982C18.7684 19.45 19.0279 19.6314 19.0761 19.9033C19.1243 20.1752 18.943 20.4347 18.6711 20.4829L18.6049 20.4946L18.7008 20.5514C18.9384 20.6922 19.0169 20.9989 18.8762 21.2364C18.7354 21.474 18.4287 21.5526 18.1912 21.4118L18.0586 21.3333L18.1151 21.491C18.2083 21.7509 18.0731 22.0372 17.8132 22.1304C17.5533 22.2236 17.267 22.0884 17.1738 21.8284L16.7098 20.5344L15.6653 19.9157V21.1622L16.4928 22.1809C16.6669 22.3952 16.6343 22.7101 16.4199 22.8842C16.2056 23.0583 15.8907 23.0257 15.7166 22.8114L15.6653 22.7483V22.8816C15.6653 23.1577 15.4415 23.3816 15.1653 23.3816C14.8892 23.3816 14.6653 23.1577 14.6653 22.8816V22.7483L14.6141 22.8114C14.44 23.0257 14.1251 23.0583 13.9108 22.8842C13.6964 22.7101 13.6638 22.3952 13.8379 22.1809L14.6653 21.1622V19.9042L13.6325 20.5159L13.1938 21.7397C13.1006 21.9997 12.8143 22.1348 12.5544 22.0416C12.2944 21.9485 12.1592 21.6622 12.2524 21.4022L12.2838 21.3148L12.1662 21.3844C11.9287 21.5252 11.622 21.4467 11.4812 21.2091C11.3405 20.9715 11.419 20.6648 11.6566 20.524L11.8346 20.4186L11.6965 20.3942C11.4246 20.3459 11.2432 20.0864 11.2915 19.8145C11.3397 19.5426 11.5992 19.3613 11.8711 19.4095L13.1542 19.637L14.1745 19.0327L13.089 18.3897L11.8711 18.6057C11.5992 18.6539 11.3397 18.4725 11.2915 18.2006C11.2432 17.9287 11.4246 17.6692 11.6965 17.621L11.7694 17.6081L11.6833 17.5571C11.4457 17.4164 11.3672 17.1097 11.5079 16.8721C11.6487 16.6345 11.9554 16.556 12.1929 16.6967L12.3066 16.764L12.2524 16.6129C12.1592 16.353 12.2944 16.0667 12.5544 15.9735C12.8143 15.8803 13.1006 16.0155 13.1938 16.2754L13.6554 17.5629L14.6653 18.1612V16.8915L13.8379 15.8728C13.6638 15.6585 13.6964 15.3436 13.9108 15.1695C14.1251 14.9954 14.44 15.028 14.6141 15.2424L14.6653 15.3054V15.1721C14.6653 14.896 14.8892 14.6721 15.1653 14.6721Z" fill="black"/>
<path fill-rule="evenodd" clip-rule="evenodd" d="M12.9502 7.38648C11.9587 7.85749 11.1234 8.7407 10.7432 10.1977C10.6497 10.556 10.3524 10.8372 9.97979 10.9031C7.86768 11.2769 6.94438 12.7611 7.01351 14.0686C7.08076 15.3407 8.11713 16.7505 10.6248 16.8928C11.0384 16.9163 11.3546 17.2705 11.3311 17.6841C11.3076 18.0976 10.9534 18.4139 10.5398 18.3904C7.41001 18.2128 5.63031 16.3175 5.5156 14.1478C5.40734 12.1002 6.81003 10.0895 9.38487 9.49401C9.91597 7.79429 10.9921 6.656 12.3066 6.03157C13.6818 5.37835 15.2694 5.30829 16.6943 5.65804C18.116 6.00701 19.4498 6.79256 20.2861 7.94383C21.0356 8.97574 21.3582 10.2693 21.0122 11.6932C22.6702 12.0708 23.6436 13.4982 23.6756 14.9429C23.6937 15.7598 23.413 16.5951 22.7863 17.2478C22.1573 17.9029 21.2318 18.3211 20.0513 18.4064C19.6382 18.4362 19.2791 18.1255 19.2492 17.7123C19.2194 17.2992 19.5302 16.9401 19.9433 16.9103C20.8246 16.8466 21.3775 16.5492 21.7043 16.2089C22.0333 15.8662 22.186 15.4265 22.176 14.9761C22.1558 14.0667 21.4818 13.1658 20.2772 13.1006C19.6152 13.0648 19.1929 12.3902 19.4169 11.7867C19.8568 10.6013 19.6399 9.60659 19.0724 8.82538C18.485 8.0167 17.4874 7.39724 16.3367 7.1148C15.1892 6.83314 13.9632 6.90527 12.9502 7.38648Z" fill="black"/>
<path fill-rule="evenodd" clip-rule="evenodd" d="M6.25234 0.662182C5.7554 1.12801 5.91337 1.79074 6.07365 2.15765L6.07416 2.15882C6.2757 2.61805 6.38618 3.12038 6.38207 3.65214L6.38205 3.65481C6.37387 5.62478 4.72315 7.32457 2.69269 7.40736C2.39167 7.41986 2.10432 7.39907 1.82586 7.34935L1.82827 7.34979C1.5961 7.30755 1.34564 7.29541 1.1046 7.35146C0.857422 7.40892 0.579834 7.5508 0.403311 7.83876C0.227505 8.12556 0.226577 8.4356 0.28465 8.6792C0.341399 8.91725 0.46152 9.13415 0.600405 9.32188C1.23302 10.1844 2.10088 10.8677 3.10979 11.2845C3.49261 11.4427 3.93118 11.2606 4.08935 10.8778C4.24753 10.495 4.06542 10.0564 3.6826 9.89822C3.12127 9.66629 2.61968 9.32473 2.2063 8.90187C2.3859 8.91222 2.56828 8.9138 2.7538 8.90611C5.56219 8.7916 7.8697 6.45701 7.88204 3.66238C7.8859 3.14412 7.81233 2.64474 7.67311 2.17275C8.71625 2.78422 9.47787 3.79827 9.73708 4.98537C9.82544 5.39005 10.2251 5.64648 10.6298 5.55812C11.0345 5.46975 11.2909 5.07006 11.2025 4.66539C10.793 2.78977 9.46912 1.25821 7.72456 0.524761C7.36031 0.371083 6.72405 0.220001 6.25234 0.662182Z" fill="black"/>
</g>
<defs>
<clipPath id="clip0_511_51372">
<rect width="24" height="24" fill="white"/>
</clipPath>
</defs>
</svg>
