<svg width="24" height="24" viewBox="0 0 24 24" fill="none" xmlns="http://www.w3.org/2000/svg">
<g clip-path="url(#clip0_511_51369)">
<path fill-rule="evenodd" clip-rule="evenodd" d="M5.13379 0.291924C5.52486 0.15541 5.95256 0.36177 6.08907 0.752841L6.50609 1.94747C6.6426 2.33854 6.43624 2.76623 6.04517 2.90274C5.6541 3.03926 5.22641 2.8329 5.08989 2.44183L4.67288 1.2472C4.53636 0.85613 4.74272 0.428438 5.13379 0.291924ZM10.9795 0.605092C11.3589 0.77132 11.5317 1.21364 11.3655 1.59303L10.887 2.68517C10.7207 3.06457 10.2784 3.23738 9.89904 3.07115C9.51964 2.90492 9.34684 2.4626 9.51306 2.08321L9.99157 0.991066C10.1578 0.61167 10.6001 0.438864 10.9795 0.605092ZM9.74731 5.85568C9.01291 5.04845 7.8876 4.74469 6.85517 5.14531C5.45185 5.68985 4.6863 7.36586 5.22644 8.91321C5.33879 9.23505 5.49745 9.52089 5.68974 9.76678C5.94491 10.0931 5.88726 10.5644 5.56098 10.8196C5.23469 11.0748 4.76333 11.0171 4.50816 10.6908C4.21452 10.3153 3.97667 9.88431 3.81025 9.40757C3.02168 7.14856 4.10565 4.60326 6.31254 3.7469C7.96064 3.10738 9.73283 3.61078 10.8568 4.84626C11.1356 5.15265 11.1132 5.62699 10.8068 5.90574C10.5004 6.18448 10.0261 6.16207 9.74731 5.85568ZM0.852648 4.51482C1.03402 4.14242 1.48293 3.98757 1.85533 4.16894L2.89119 4.67345C3.26359 4.85482 3.41844 5.30373 3.23707 5.67613C3.0557 6.04852 2.60678 6.20338 2.23439 6.02201L1.19853 5.5175C0.826132 5.33613 0.671277 4.88721 0.852648 4.51482ZM3.03864 9.73452C3.18848 10.1207 2.99691 10.5552 2.61075 10.705L1.52128 11.1278C1.13512 11.2776 0.700598 11.0861 0.550753 10.6999C0.400909 10.3138 0.59248 9.87923 0.97864 9.72939L2.06812 9.30663C2.45428 9.15679 2.88879 9.34836 3.03864 9.73452Z" fill="black"/>
<path fill-rule="evenodd" clip-rule="evenodd" d="M12.6911 7.42749C11.6926 7.90182 10.8516 8.7913 10.469 10.2582C10.3755 10.6166 10.0782 10.8978 9.70545 10.9637C7.57896 11.3398 6.64844 12.8343 6.71799 14.1517C6.78567 15.4337 7.83007 16.8531 10.354 16.9963C10.7675 17.0198 11.0838 17.374 11.0603 17.7876C11.0368 18.2011 10.6825 18.5174 10.269 18.4939C7.12291 18.3153 5.33514 16.4105 5.22008 14.2308C5.11146 12.1732 6.52147 10.1523 9.11057 9.55455C9.64409 7.84498 10.7259 6.70037 12.0474 6.07259C13.4296 5.41602 15.0255 5.34562 16.4579 5.69732C17.8872 6.04825 19.2277 6.83808 20.0679 7.99531C20.8213 9.03303 21.1451 10.3339 20.7958 11.7659C22.4635 12.1437 23.4428 13.5781 23.4754 15.0301C23.4938 15.8508 23.212 16.69 22.5825 17.3457C21.9507 18.0038 21.021 18.4243 19.8343 18.51C19.4212 18.5398 19.0621 18.2291 19.0323 17.8159C19.0024 17.4028 19.3132 17.0437 19.7263 17.0139C20.6137 16.9498 21.1709 16.6502 21.5004 16.307C21.8321 15.9614 21.9859 15.5179 21.9757 15.0638C21.9552 14.147 21.2753 13.2389 20.0606 13.1738C19.3983 13.1383 18.9758 12.4633 19.2001 11.8597C19.6436 10.6657 19.4255 9.66358 18.8541 8.87659C18.2627 8.0621 17.2585 7.43843 16.1003 7.15406C14.9452 6.87046 13.711 6.94296 12.6911 7.42749Z" fill="black"/>
<path fill-rule="evenodd" clip-rule="evenodd" d="M15.9378 13.9666C16.3833 14.1638 16.6615 14.6154 16.6615 15.1211V17.5028H17.0571C17.631 17.5028 18.0036 17.9017 18.1488 18.2778C18.2946 18.6553 18.2765 19.1422 17.9796 19.538L17.9796 19.5381L15.1742 23.277C15.174 23.2773 15.1737 23.2776 15.1735 23.2779C14.832 23.7349 14.2685 23.8608 13.7977 23.6525C13.3523 23.4554 13.0741 23.0037 13.0741 22.498V20.1163H12.6785C12.1027 20.1163 11.7332 19.7132 11.5895 19.3413C11.445 18.9669 11.4597 18.482 11.7527 18.0855L11.756 18.0811L11.756 18.0811L14.5613 14.3422C14.5616 14.3418 14.5619 14.3415 14.5621 14.3411C14.9036 13.8842 15.4671 13.7583 15.9378 13.9666ZM15.1615 16.0417L13.2297 18.6163H13.8241C14.2383 18.6163 14.5741 18.9521 14.5741 19.3663V21.5775L16.5059 19.0028H15.9115C15.4972 19.0028 15.1615 18.667 15.1615 18.2528V16.0417Z" fill="black"/>
</g>
<defs>
<clipPath id="clip0_511_51369">
<rect width="24" height="24" fill="white"/>
</clipPath>
</defs>
</svg>
