<svg width="24" height="24" viewBox="0 0 24 24" fill="none" xmlns="http://www.w3.org/2000/svg">
<g clip-path="url(#clip0_511_51370)">
<path fill-rule="evenodd" clip-rule="evenodd" d="M6.25234 0.542187C5.7554 1.00802 5.91337 1.67074 6.07365 2.03765L6.07416 2.03882C6.2757 2.49806 6.38618 3.00038 6.38207 3.53215L6.38205 3.53482C6.37387 5.50478 4.72315 7.20457 2.69269 7.28736C2.39167 7.29987 2.10432 7.27907 1.82586 7.22936L1.82827 7.22979C1.5961 7.18755 1.34564 7.17542 1.1046 7.23146C0.857422 7.28893 0.579834 7.4308 0.403311 7.71877C0.227505 8.00556 0.226577 8.3156 0.28465 8.5592C0.341399 8.79725 0.46152 9.01415 0.600405 9.20188C1.23302 10.0645 2.10088 10.7477 3.10979 11.1645C3.49261 11.3227 3.93118 11.1406 4.08935 10.7578C4.24753 10.375 4.06542 9.9364 3.6826 9.77823C3.12127 9.5463 2.61968 9.20474 2.2063 8.78187C2.3859 8.79222 2.56828 8.79381 2.7538 8.78612C5.56219 8.67161 7.8697 6.33701 7.88204 3.54239C7.8859 3.02412 7.81233 2.52475 7.67311 2.05275C8.71625 2.66423 9.47787 3.67828 9.73708 4.86538C9.82544 5.27006 10.2251 5.52648 10.6298 5.43812C11.0345 5.34976 11.2909 4.95007 11.2025 4.54539C10.793 2.66978 9.46912 1.13821 7.72456 0.404766C7.36031 0.251088 6.72405 0.100006 6.25234 0.542187Z" fill="black"/>
<path fill-rule="evenodd" clip-rule="evenodd" d="M12.9502 7.26312C11.9587 7.73413 11.1234 8.61735 10.7432 10.0744C10.6497 10.4327 10.3524 10.7138 9.97979 10.7797C7.86768 11.1535 6.94438 12.6377 7.01351 13.9452C7.08076 15.2173 8.11713 16.6271 10.6248 16.7694C11.0384 16.7929 11.3546 17.1472 11.3311 17.5607C11.3076 17.9743 10.9534 18.2905 10.5398 18.267C7.41001 18.0894 5.63031 16.1942 5.5156 14.0244C5.40734 11.9769 6.81003 9.96616 9.38487 9.37066C9.91597 7.67094 10.9921 6.53265 12.3066 5.90822C13.6818 5.255 15.2694 5.18494 16.6943 5.53469C18.116 5.88365 19.4498 6.6692 20.2861 7.82047C21.0356 8.85239 21.3582 10.146 21.0122 11.5699C22.6702 11.9475 23.6436 13.3749 23.6756 14.8195C23.6937 15.6365 23.413 16.4717 22.7863 17.1245C22.1573 17.7795 21.2318 18.1978 20.0513 18.283C19.6382 18.3128 19.2791 18.0021 19.2492 17.589C19.2194 17.1758 19.5302 16.8167 19.9433 16.7869C20.8246 16.7233 21.3775 16.4258 21.7043 16.0855C22.0333 15.7429 22.186 15.3032 22.176 14.8527C22.1558 13.9433 21.4818 13.0424 20.2772 12.9773C19.6152 12.9414 19.1929 12.2669 19.4169 11.6633C19.8568 10.4779 19.6399 9.48324 19.0724 8.70203C18.485 7.89335 17.4874 7.27389 16.3367 6.99145C15.1892 6.70978 13.9632 6.78192 12.9502 7.26312Z" fill="black"/>
<path fill-rule="evenodd" clip-rule="evenodd" d="M15.8347 15.658C16.1634 15.9291 16.8181 16.5118 17.397 17.2896C17.966 18.054 18.5351 19.1051 18.5332 20.2963C18.5328 22.2526 17.0401 23.8588 15.1833 23.8588C13.3257 23.8588 11.8344 22.2485 11.8333 20.294C11.8278 19.0903 12.393 18.0392 12.9634 17.2753C13.542 16.5003 14.1977 15.9251 14.5278 15.656C14.9126 15.3391 15.4506 15.3398 15.8347 15.658ZM15.1783 17.1142C15.4741 17.3807 15.8731 17.7777 16.2291 18.2561C16.716 18.9103 17.0498 19.6189 17.0486 20.2939L17.0486 20.2953C17.0486 21.4046 16.2043 22.2933 15.1833 22.2933C14.1635 22.2933 13.3179 21.4024 13.3179 20.2919L13.3179 20.2877C13.3144 19.5984 13.647 18.8904 14.1299 18.2437C14.4842 17.7692 14.8821 17.3776 15.1783 17.1142Z" fill="black"/>
</g>
<defs>
<clipPath id="clip0_511_51370">
<rect width="24" height="24" fill="white"/>
</clipPath>
</defs>
</svg>
