<svg width="24" height="24" viewBox="0 0 24 24" fill="none" xmlns="http://www.w3.org/2000/svg">
<g clip-path="url(#clip0_511_51378)">
<path fill-rule="evenodd" clip-rule="evenodd" d="M6.25221 0.662182C5.75527 1.12801 5.91324 1.79074 6.07352 2.15765L6.07403 2.15882C6.27557 2.61806 6.38604 3.12038 6.38194 3.65215L6.38192 3.65482C6.37374 5.62479 4.72301 7.32459 2.69255 7.40738C2.39153 7.41988 2.10417 7.39909 1.82572 7.34937L1.82812 7.34981C1.59595 7.30757 1.34549 7.29544 1.10445 7.35148C0.857271 7.40895 0.579683 7.55082 0.40316 7.83878C0.227354 8.12558 0.226426 8.43562 0.284498 8.67922C0.341249 8.91727 0.46137 9.13417 0.600254 9.3219C1.23287 10.1845 2.10073 10.8677 3.10964 11.2846C3.49247 11.4428 3.93103 11.2606 4.08921 10.8778C4.24739 10.495 4.06528 10.0564 3.68245 9.89825C3.12112 9.66632 2.61953 9.32476 2.20615 8.90189C2.38594 8.91225 2.56851 8.91383 2.75423 8.90611C5.56236 8.79131 7.86957 6.45684 7.88191 3.66239C7.88577 3.14412 7.8122 2.64474 7.67298 2.17275C8.71613 2.78422 9.47775 3.79828 9.73695 4.98539C9.82532 5.39006 10.225 5.64649 10.6297 5.55813C11.0344 5.46976 11.2908 5.07008 11.2024 4.6654C10.7929 2.78978 9.469 1.25821 7.72443 0.524762C7.36018 0.371083 6.72392 0.220001 6.25221 0.662182Z" fill="black"/>
<path fill-rule="evenodd" clip-rule="evenodd" d="M12.9502 7.38312C11.9587 7.85413 11.1234 8.73735 10.7432 10.1944C10.6498 10.5527 10.3525 10.8338 9.9798 10.8998C7.86768 11.2735 6.94438 12.7578 7.01351 14.0653C7.08076 15.3373 8.11714 16.7472 10.6248 16.8895C11.0384 16.9129 11.3546 17.2672 11.3311 17.6808C11.3076 18.0943 10.9534 18.4105 10.5398 18.3871C7.41002 18.2094 5.63031 16.3142 5.5156 14.1445C5.40734 12.0969 6.81003 10.0862 9.38488 9.49066C9.91598 7.79094 10.9921 6.65265 12.3066 6.02822C13.6818 5.37499 15.2694 5.30494 16.6943 5.65468C18.1161 6.00365 19.4498 6.7892 20.2861 7.94048C21.0357 8.97239 21.3583 10.266 21.0122 11.6899C22.6703 12.0675 23.6437 13.4949 23.6757 14.9395C23.6938 15.7565 23.4131 16.5918 22.7863 17.2445C22.1573 17.8995 21.2319 18.3178 20.0513 18.403C19.6382 18.4329 19.2791 18.1221 19.2493 17.709C19.2195 17.2959 19.5302 16.9368 19.9433 16.9069C20.8247 16.8433 21.3776 16.5459 21.7044 16.2056C22.0334 15.8629 22.186 15.4232 22.176 14.9728C22.1559 14.0633 21.4819 13.1624 20.2772 13.0973C19.6153 13.0615 19.193 12.3869 19.4169 11.7833C19.8569 10.598 19.6399 9.60324 19.0725 8.82203C18.4851 8.01335 17.4875 7.39389 16.3368 7.11144C15.1892 6.82978 13.9633 6.90191 12.9502 7.38312Z" fill="black"/>
<path fill-rule="evenodd" clip-rule="evenodd" d="M16.2752 14.3102C16.7111 14.4911 17.0166 14.9245 17.0166 15.445V17.6485H17.4191C17.9654 17.6485 18.3489 18.0074 18.507 18.3913C18.6643 18.7731 18.6414 19.2644 18.3292 19.6547L15.5071 23.1809C15.5068 23.1812 15.5065 23.1816 15.5063 23.1819C15.1561 23.6211 14.6058 23.7227 14.1581 23.5369C13.7222 23.3561 13.4168 22.9226 13.4168 22.4022V20.1986H13.0143C12.4661 20.1986 12.0856 19.8357 11.9292 19.4559C11.7733 19.0775 11.7923 18.5882 12.1007 18.1968L12.1042 18.1924L14.9263 14.6663C14.9266 14.6659 14.9268 14.6656 14.9271 14.6652C15.2773 14.226 15.8276 14.1245 16.2752 14.3102ZM15.5166 16.3292L13.6203 18.6986H14.1668C14.581 18.6986 14.9168 19.0344 14.9168 19.4486V21.5179L16.8131 19.1485H16.2666C15.8524 19.1485 15.5166 18.8127 15.5166 18.3985V16.3292Z" fill="black"/>
</g>
<defs>
<clipPath id="clip0_511_51378">
<rect width="24" height="24" fill="white"/>
</clipPath>
</defs>
</svg>
