<svg width="24" height="24" viewBox="0 0 24 24" fill="none" xmlns="http://www.w3.org/2000/svg">
<path fill-rule="evenodd" clip-rule="evenodd" d="M11.6917 13.9C11.6917 12.4361 12.8869 11.25 14.3584 11.25C15.8191 11.25 17.025 12.4254 17.025 13.9C17.025 15.3639 15.8299 16.55 14.3584 16.55H9.625C9.21079 16.55 8.875 16.2142 8.875 15.8C8.875 15.3858 9.21079 15.05 9.625 15.05H14.3584C15.0101 15.05 15.525 14.5268 15.525 13.9C15.525 13.2698 15.0067 12.75 14.3584 12.75C13.7066 12.75 13.1917 13.2732 13.1917 13.9C13.1917 14.3142 12.856 14.65 12.4417 14.65C12.0275 14.65 11.6917 14.3142 11.6917 13.9Z" fill="black"/>
<path fill-rule="evenodd" clip-rule="evenodd" d="M9.79175 19.6001C9.79175 21.064 10.9869 22.2501 12.4584 22.2501C13.9191 22.2501 15.125 21.0747 15.125 19.6001C15.125 18.1362 13.9299 16.9501 12.4584 16.9501H4.875C4.46079 16.9501 4.125 17.2859 4.125 17.7001C4.125 18.1143 4.46079 18.4501 4.875 18.4501H12.4584C13.1101 18.4501 13.625 18.9733 13.625 19.6001C13.625 20.2304 13.1067 20.7501 12.4584 20.7501C11.8066 20.7501 11.2917 20.2269 11.2917 19.6001C11.2917 19.1859 10.956 18.8501 10.5417 18.8501C10.1275 18.8501 9.79175 19.1859 9.79175 19.6001Z" fill="black"/>
<path fill-rule="evenodd" clip-rule="evenodd" d="M10.0857 3.76585C8.925 4.3268 7.94614 5.38282 7.50552 7.12018C7.41403 7.48092 7.11586 7.76495 6.74124 7.83128C4.28561 8.26605 3.17395 10.0297 3.25414 11.6235C3.3325 13.181 4.57593 14.8482 7.4709 15.0153C7.88443 15.0392 8.20031 15.3937 8.17644 15.8073C8.15258 16.2208 7.798 16.5367 7.38448 16.5128C3.84555 16.3086 1.87866 14.1362 1.75604 11.6989C1.63963 9.38518 3.21099 7.08505 6.14228 6.42218C6.72998 4.45085 7.94371 3.13505 9.43302 2.4153C10.9824 1.66654 12.7767 1.58667 14.3884 1.9923C15.9973 2.3972 17.4966 3.30449 18.4268 4.62234C19.2696 5.81649 19.6164 7.31238 19.1855 8.96097C21.0905 9.34603 22.2033 10.9764 22.2486 12.616C22.274 13.5333 21.9689 14.4739 21.2773 15.2113C20.5823 15.9523 19.5495 16.4335 18.2157 16.5314C17.8026 16.5617 17.4432 16.2514 17.4128 15.8383C17.3825 15.4252 17.6928 15.0658 18.1059 15.0354C19.1324 14.9601 19.789 14.6055 20.1832 14.1852C20.5807 13.7614 20.7646 13.2152 20.7492 12.6574C20.718 11.5313 19.8893 10.4403 18.4483 10.3787C17.7821 10.3502 17.3529 9.67169 17.5804 9.0648C18.1152 7.6377 17.8672 6.43078 17.2012 5.48728C16.5164 4.51698 15.3542 3.78213 14.0223 3.44694C12.6934 3.11248 11.2678 3.19457 10.0857 3.76585Z" fill="black"/>
</svg>
