<svg width="24" height="24" viewBox="0 0 24 24" fill="none" xmlns="http://www.w3.org/2000/svg">
<g clip-path="url(#clip0_511_51368)">
<path fill-rule="evenodd" clip-rule="evenodd" d="M12.7011 7.42749C11.7026 7.90182 10.8616 8.7913 10.479 10.2582C10.3856 10.6166 10.0882 10.8978 9.71546 10.9637C7.58897 11.3398 6.65845 12.8343 6.728 14.1517C6.79568 15.4337 7.84008 16.8531 10.364 16.9963C10.7775 17.0198 11.0938 17.374 11.0703 17.7876C11.0468 18.2011 10.6926 18.5174 10.279 18.4939C7.13292 18.3153 5.34515 16.4105 5.23009 14.2308C5.12147 12.1732 6.53148 10.1523 9.12058 9.55455C9.6541 7.84498 10.7359 6.70037 12.0574 6.07259C13.4396 5.41602 15.0355 5.34562 16.4679 5.69732C17.8972 6.04825 19.2377 6.83808 20.0779 7.99531C20.8313 9.03303 21.1551 10.3339 20.8058 11.7659C22.4735 12.1437 23.4528 13.5781 23.4854 15.0301C23.5038 15.8508 23.222 16.69 22.5925 17.3457C21.9607 18.0038 21.031 18.4243 19.8443 18.51C19.4312 18.5398 19.0721 18.2291 19.0423 17.8159C19.0124 17.4028 19.3232 17.0437 19.7363 17.0139C20.6237 16.9498 21.1809 16.6502 21.5104 16.307C21.8421 15.9614 21.9959 15.5179 21.9857 15.0638C21.9652 14.147 21.2853 13.2389 20.0707 13.1738C19.4083 13.1383 18.9858 12.4633 19.2101 11.8597C19.6537 10.6657 19.4355 9.66358 18.8641 8.87659C18.2728 8.0621 17.2685 7.43843 16.1103 7.15406C14.9552 6.87046 13.7211 6.94296 12.7011 7.42749Z" fill="black"/>
<path fill-rule="evenodd" clip-rule="evenodd" d="M13.9382 16.1905C13.9382 14.9422 14.9176 13.8691 16.1979 13.8691C17.469 13.8691 18.4576 14.9326 18.4576 16.1905C18.4576 17.4388 17.4781 18.5119 16.1979 18.5119H12.4695C12.0553 18.5119 11.7195 18.1762 11.7195 17.7619C11.7195 17.3477 12.0553 17.0119 12.4695 17.0119H16.1979C16.5901 17.0119 16.9576 16.6713 16.9576 16.1905C16.9576 15.7075 16.588 15.3691 16.1979 15.3691C15.8057 15.3691 15.4382 15.7097 15.4382 16.1905C15.4382 16.6047 15.1024 16.9405 14.6882 16.9405C14.274 16.9405 13.9382 16.6047 13.9382 16.1905Z" fill="black"/>
<path fill-rule="evenodd" clip-rule="evenodd" d="M12.3188 21.4286C12.3188 22.7564 13.4597 23.75 14.7597 23.75C16.0496 23.75 17.2005 22.7657 17.2005 21.4286C17.2005 20.1007 16.0596 19.1071 14.7597 19.1071H8.06958C7.65537 19.1071 7.31958 19.4429 7.31958 19.8571C7.31958 20.2714 7.65537 20.6071 8.06958 20.6071H14.7597C15.3328 20.6071 15.7005 21.0273 15.7005 21.4286C15.7005 21.8322 15.3303 22.25 14.7597 22.25C14.1865 22.25 13.8188 21.8299 13.8188 21.4286C13.8188 21.0144 13.483 20.6786 13.0688 20.6786C12.6546 20.6786 12.3188 21.0144 12.3188 21.4286Z" fill="black"/>
<path fill-rule="evenodd" clip-rule="evenodd" d="M5.1438 0.291924C5.53487 0.15541 5.96257 0.36177 6.09908 0.752841L6.5161 1.94747C6.65261 2.33854 6.44625 2.76623 6.05518 2.90274C5.66411 3.03926 5.23642 2.8329 5.0999 2.44183L4.68289 1.2472C4.54637 0.85613 4.75273 0.428438 5.1438 0.291924ZM10.9895 0.605092C11.3689 0.77132 11.5417 1.21364 11.3755 1.59303L10.897 2.68517C10.7308 3.06457 10.2884 3.23738 9.90905 3.07115C9.52965 2.90492 9.35684 2.4626 9.52307 2.08321L10.0016 0.991066C10.1678 0.61167 10.6101 0.438864 10.9895 0.605092ZM9.75732 5.85568C9.02292 5.04845 7.8976 4.74469 6.86518 5.14531C5.46186 5.68985 4.69631 7.36586 5.23645 8.91321C5.3488 9.23505 5.50746 9.52089 5.69975 9.76678C5.95492 10.0931 5.89727 10.5644 5.57099 10.8196C5.2447 11.0748 4.77334 11.0171 4.51817 10.6908C4.22453 10.3153 3.98668 9.88431 3.82026 9.40757C3.03169 7.14856 4.11566 4.60326 6.32255 3.7469C7.97065 3.10738 9.74284 3.61078 10.8668 4.84626C11.1456 5.15265 11.1232 5.62699 10.8168 5.90574C10.5104 6.18448 10.0361 6.16207 9.75732 5.85568ZM0.862658 4.51482C1.04403 4.14242 1.49294 3.98757 1.86534 4.16894L2.9012 4.67345C3.27359 4.85482 3.42845 5.30373 3.24708 5.67613C3.06571 6.04852 2.61679 6.20338 2.2444 6.02201L1.20854 5.5175C0.836142 5.33613 0.681287 4.88721 0.862658 4.51482ZM3.04865 9.73452C3.19849 10.1207 3.00692 10.5552 2.62076 10.705L1.53129 11.1278C1.14513 11.2776 0.710608 11.0861 0.560763 10.6999C0.410918 10.3138 0.60249 9.87923 0.988649 9.72939L2.07813 9.30663C2.46429 9.15679 2.8988 9.34836 3.04865 9.73452Z" fill="black"/>
</g>
<defs>
<clipPath id="clip0_511_51368">
<rect width="24" height="24" fill="white"/>
</clipPath>
</defs>
</svg>
