<svg width="24" height="24" viewBox="0 0 24 24" fill="none" xmlns="http://www.w3.org/2000/svg">
<g clip-path="url(#clip0_511_51359)">
<path fill-rule="evenodd" clip-rule="evenodd" d="M12.7011 7.42749C11.7026 7.90182 10.8616 8.7913 10.479 10.2582C10.3856 10.6166 10.0882 10.8978 9.71546 10.9637C7.58897 11.3398 6.65845 12.8343 6.728 14.1517C6.79568 15.4337 7.84008 16.8531 10.364 16.9963C10.7776 17.0198 11.0938 17.374 11.0703 17.7876C11.0468 18.2011 10.6926 18.5174 10.279 18.4939C7.13292 18.3153 5.34515 16.4105 5.23009 14.2308C5.12147 12.1732 6.53148 10.1523 9.12058 9.55455C9.6541 7.84498 10.7359 6.70037 12.0575 6.07259C13.4396 5.41602 15.0355 5.34562 16.468 5.69732C17.8972 6.04825 19.2377 6.83808 20.0779 7.99531C20.8314 9.03303 21.1551 10.3339 20.8058 11.7659C22.4735 12.1437 23.4528 13.5781 23.4854 15.0301C23.5038 15.8508 23.222 16.69 22.5925 17.3458C21.9608 18.0038 21.031 18.4243 19.8443 18.51C19.4312 18.5398 19.0721 18.2291 19.0423 17.8159C19.0125 17.4028 19.3232 17.0437 19.7363 17.0139C20.6237 16.9498 21.1809 16.6502 21.5104 16.307C21.8421 15.9614 21.9959 15.5179 21.9858 15.0638C21.9652 14.147 21.2853 13.2389 20.0707 13.1738C19.4083 13.1383 18.9858 12.4633 19.2101 11.8597C19.6537 10.6657 19.4355 9.66358 18.8641 8.87659C18.2728 8.0621 17.2685 7.43843 16.1103 7.15406C14.9553 6.87046 13.7211 6.94296 12.7011 7.42749Z" fill="black"/>
<path fill-rule="evenodd" clip-rule="evenodd" d="M15.0715 15.1667C15.3476 15.1667 15.5715 15.3905 15.5715 15.6667V15.6951C15.7467 15.5039 16.0426 15.4776 16.2495 15.6409C16.4663 15.812 16.5033 16.1264 16.3322 16.3431L15.5715 17.3069V18.443L16.4594 17.9018L16.8739 16.7122C16.9647 16.4514 17.2498 16.3137 17.5105 16.4045C17.7713 16.4954 17.9091 16.7804 17.8182 17.0412L17.8039 17.0824L17.8191 17.0731C18.0549 16.9294 18.3625 17.004 18.5062 17.2398C18.65 17.4756 18.5753 17.7833 18.3395 17.927L18.2739 17.967L18.3041 17.9725C18.5757 18.0221 18.7558 18.2825 18.7062 18.5541C18.6566 18.8258 18.3962 19.0058 18.1246 18.9563L16.9903 18.7493L16.0231 19.3389L17.0406 19.959L18.1416 19.7581C18.4133 19.7086 18.6737 19.8886 18.7232 20.1603C18.7726 20.4309 18.5941 20.6904 18.3241 20.7414L18.3642 20.7658C18.6 20.9095 18.6746 21.2172 18.5309 21.453C18.3872 21.6888 18.0795 21.7634 17.8437 21.6197L17.8093 21.5987L17.8352 21.6732C17.9261 21.934 17.7883 22.219 17.5276 22.3099C17.2668 22.4008 16.9818 22.263 16.8909 22.0022L16.4648 20.7792L15.5715 20.2347V21.3598L16.3322 22.3236C16.5033 22.5403 16.4663 22.8547 16.2495 23.0258C16.0426 23.1891 15.7467 23.1628 15.5715 22.9716V23C15.5715 23.2762 15.3476 23.5 15.0715 23.5C14.7953 23.5 14.5715 23.2762 14.5715 23V22.9716C14.3962 23.1628 14.1003 23.1891 13.8934 23.0258C13.6766 22.8547 13.6396 22.5403 13.8107 22.3236L14.5715 21.3598V20.2237L13.6889 20.7616L13.2861 21.9178C13.1952 22.1786 12.9102 22.3164 12.6494 22.2255C12.3887 22.1347 12.2509 21.8496 12.3418 21.5888L12.3445 21.5811L12.3239 21.5936C12.0881 21.7374 11.7804 21.6627 11.6367 21.4269C11.493 21.1911 11.5676 20.8835 11.8034 20.7398L11.9193 20.6691L11.8559 20.6575C11.5842 20.6079 11.4042 20.3475 11.4538 20.0759C11.5033 19.8042 11.7637 19.6242 12.0354 19.6738L13.2028 19.8868L14.1018 19.3389L13.1426 18.7543L12.0354 18.9563C11.7637 19.0058 11.5033 18.8258 11.4538 18.5541C11.4042 18.2825 11.5842 18.0221 11.8559 17.9725L11.8591 17.9719L11.8281 17.953C11.5923 17.8093 11.5177 17.5016 11.6614 17.2659C11.8051 17.0301 12.1128 16.9554 12.3486 17.0991L12.3656 17.1095L12.3418 17.0412C12.2509 16.7804 12.3887 16.4954 12.6494 16.4045C12.9102 16.3137 13.1952 16.4514 13.2861 16.7122L13.71 17.929L14.5715 18.4541V17.3069L13.8107 16.3431C13.6396 16.1264 13.6766 15.812 13.8934 15.6409C14.1003 15.4776 14.3962 15.5039 14.5715 15.6951V15.6667C14.5715 15.3905 14.7953 15.1667 15.0715 15.1667Z" fill="black"/>
<path fill-rule="evenodd" clip-rule="evenodd" d="M5.1438 0.291924C5.53487 0.15541 5.96257 0.36177 6.09908 0.752841L6.5161 1.94747C6.65261 2.33854 6.44625 2.76623 6.05518 2.90274C5.66411 3.03926 5.23642 2.8329 5.0999 2.44183L4.68289 1.2472C4.54637 0.85613 4.75273 0.428438 5.1438 0.291924ZM10.9895 0.605092C11.3689 0.77132 11.5417 1.21364 11.3755 1.59303L10.897 2.68517C10.7308 3.06457 10.2884 3.23738 9.90905 3.07115C9.52965 2.90492 9.35684 2.4626 9.52307 2.08321L10.0016 0.991066C10.1678 0.61167 10.6101 0.438864 10.9895 0.605092ZM9.75732 5.85568C9.02292 5.04845 7.8976 4.74469 6.86518 5.14531C5.46186 5.68985 4.69631 7.36586 5.23645 8.91321C5.3488 9.23505 5.50746 9.52089 5.69975 9.76678C5.95492 10.0931 5.89727 10.5644 5.57099 10.8196C5.2447 11.0748 4.77334 11.0171 4.51817 10.6908C4.22453 10.3153 3.98668 9.88431 3.82026 9.40757C3.03169 7.14856 4.11566 4.60326 6.32255 3.7469C7.97065 3.10738 9.74284 3.61078 10.8668 4.84626C11.1456 5.15265 11.1232 5.62699 10.8168 5.90574C10.5104 6.18448 10.0361 6.16207 9.75732 5.85568ZM0.862658 4.51482C1.04403 4.14242 1.49294 3.98757 1.86534 4.16894L2.9012 4.67345C3.27359 4.85482 3.42845 5.30373 3.24708 5.67613C3.06571 6.04852 2.61679 6.20338 2.2444 6.02201L1.20854 5.5175C0.836142 5.33613 0.681287 4.88721 0.862658 4.51482ZM3.04865 9.73452C3.19849 10.1207 3.00692 10.5552 2.62076 10.705L1.53129 11.1278C1.14513 11.2776 0.710608 11.0861 0.560763 10.6999C0.410918 10.3138 0.60249 9.87923 0.988649 9.72939L2.07813 9.30663C2.46429 9.15679 2.8988 9.34836 3.04865 9.73452Z" fill="black"/>
</g>
<defs>
<clipPath id="clip0_511_51359">
<rect width="24" height="24" fill="white"/>
</clipPath>
</defs>
</svg>
