<svg width="24" height="24" viewBox="0 0 24 24" fill="none" xmlns="http://www.w3.org/2000/svg">
<path fill-rule="evenodd" clip-rule="evenodd" d="M12.7736 13.6879C13.0498 13.6879 13.2736 13.9117 13.2736 14.1879V14.2905L13.3029 14.2541C13.4762 14.0391 13.7909 14.0053 14.0059 14.1785C14.221 14.3518 14.2548 14.6666 14.0816 14.8816L13.2736 15.8842V17.107L14.2683 16.5131L14.7089 15.2743C14.8015 15.0141 15.0874 14.8782 15.3476 14.9708C15.6077 15.0633 15.7436 15.3492 15.6511 15.6094L15.6159 15.7085L15.6994 15.6586C15.9365 15.517 16.2435 15.5945 16.3851 15.8316C16.5266 16.0686 16.4492 16.3756 16.2121 16.5172L16.1058 16.5807L16.1866 16.5951C16.4584 16.6437 16.6394 16.9034 16.5908 17.1753C16.5422 17.4471 16.2825 17.6281 16.0106 17.5795L14.7964 17.3625L13.7394 17.9936L14.8495 18.6564L16.0287 18.4457C16.3005 18.3971 16.5602 18.5781 16.6088 18.8499C16.6574 19.1217 16.4764 19.3815 16.2046 19.4301L16.1589 19.4382L16.2382 19.4856C16.4753 19.6271 16.5527 19.9341 16.4112 20.1712C16.2696 20.4083 15.9626 20.4857 15.7255 20.3442L15.6216 20.2821L15.6691 20.4158C15.7617 20.6759 15.6258 20.9619 15.3656 21.0544C15.1054 21.1469 14.8195 21.011 14.7269 20.7509L14.2741 19.4775L13.2736 18.8802V20.0915L14.0816 21.0941C14.2548 21.3092 14.221 21.6239 14.0059 21.7972C13.7909 21.9705 13.4762 21.9366 13.3029 21.7216L13.2736 21.6853V21.7879C13.2736 22.064 13.0498 22.2879 12.7736 22.2879C12.4975 22.2879 12.2736 22.064 12.2736 21.7879V21.6853L12.2443 21.7216C12.0711 21.9366 11.7563 21.9705 11.5413 21.7972C11.3263 21.6239 11.2924 21.3092 11.4657 21.0941L12.2736 20.0915V18.8688L11.2846 19.4593L10.8563 20.6634C10.7638 20.9236 10.4779 21.0595 10.2177 20.9669C9.95752 20.8744 9.82162 20.5885 9.91415 20.3283L9.93707 20.2639L9.8478 20.3172C9.6107 20.4587 9.30374 20.3813 9.16217 20.1442C9.02061 19.9071 9.09805 19.6001 9.33515 19.4586L9.49465 19.3633L9.37866 19.3426C9.10683 19.294 8.92585 19.0343 8.97444 18.7624C9.02302 18.4906 9.28278 18.3096 9.55461 18.3582L10.804 18.5815L11.7887 17.9936L10.7403 17.3676L9.55461 17.5795C9.28278 17.6281 9.02302 17.4471 8.97444 17.1753C8.92585 16.9034 9.10683 16.6437 9.37866 16.5951L9.43093 16.5858L9.36126 16.5442C9.12417 16.4026 9.04673 16.0956 9.18829 15.8585C9.32986 15.6215 9.63682 15.544 9.87391 15.6856L9.95939 15.7366L9.91415 15.6094C9.82162 15.3492 9.95752 15.0633 10.2177 14.9708C10.4779 14.8782 10.7638 15.0141 10.8563 15.2743L11.3069 16.5412L12.2736 17.1184V15.8842L11.4657 14.8816C11.2924 14.6666 11.3263 14.3518 11.5413 14.1785C11.7563 14.0053 12.0711 14.0391 12.2443 14.2541L12.2736 14.2905V14.1879C12.2736 13.9117 12.4975 13.6879 12.7736 13.6879Z" fill="black"/>
<path fill-rule="evenodd" clip-rule="evenodd" d="M10.0857 3.76585C8.925 4.3268 7.94614 5.38282 7.50552 7.12018C7.41403 7.48092 7.11585 7.76495 6.74123 7.83128C4.28561 8.26605 3.17395 10.0297 3.25414 11.6235C3.3325 13.181 4.57593 14.8482 7.4709 15.0153C7.88443 15.0391 8.20031 15.3937 8.17644 15.8073C8.15257 16.2208 7.798 16.5367 7.38447 16.5128C3.84555 16.3085 1.87866 14.1362 1.75604 11.6989C1.63963 9.38518 3.21099 7.08505 6.14228 6.42217C6.72997 4.45085 7.9437 3.13505 9.43302 2.4153C10.9824 1.66654 12.7767 1.58667 14.3884 1.9923C15.9973 2.3972 17.4966 3.30448 18.4267 4.62233C19.2696 5.81648 19.6164 7.31238 19.1855 8.96097C21.0905 9.34603 22.2033 10.9764 22.2486 12.6159C22.274 13.5333 21.9689 14.4739 21.2773 15.2113C20.5823 15.9523 19.5495 16.4335 18.2157 16.5314C17.8026 16.5617 17.4431 16.2514 17.4128 15.8383C17.3825 15.4252 17.6928 15.0658 18.1059 15.0354C19.1324 14.9601 19.7889 14.6055 20.1832 14.1852C20.5807 13.7613 20.7646 13.2152 20.7492 12.6574C20.718 11.5313 19.8893 10.4403 18.4482 10.3787C17.7821 10.3502 17.3529 9.67168 17.5804 9.06479C18.1152 7.63769 17.8671 6.43078 17.2012 5.48728C16.5164 4.51698 15.3542 3.78213 14.0223 3.44694C12.6934 3.11248 11.2678 3.19457 10.0857 3.76585Z" fill="black"/>
</svg>
