<svg width="24" height="24" viewBox="0 0 24 24" fill="none" xmlns="http://www.w3.org/2000/svg">
<path fill-rule="evenodd" clip-rule="evenodd" d="M10.0857 3.76585C8.925 4.3268 7.94614 5.38282 7.50552 7.12018C7.41403 7.48092 7.11586 7.76495 6.74124 7.83128C4.28561 8.26605 3.17395 10.0297 3.25414 11.6235C3.3325 13.181 4.57593 14.8482 7.4709 15.0153C7.88443 15.0392 8.20031 15.3937 8.17644 15.8073C8.15258 16.2208 7.798 16.5367 7.38448 16.5128C3.84555 16.3086 1.87866 14.1362 1.75604 11.6989C1.63963 9.38518 3.21099 7.08505 6.14228 6.42218C6.72998 4.45085 7.94371 3.13505 9.43302 2.4153C10.9824 1.66654 12.7767 1.58667 14.3884 1.9923C15.9973 2.3972 17.4966 3.30449 18.4268 4.62234C19.2696 5.81649 19.6164 7.31238 19.1855 8.96097C21.0905 9.34603 22.2033 10.9764 22.2486 12.616C22.274 13.5333 21.9689 14.4739 21.2773 15.2113C20.5823 15.9523 19.5495 16.4335 18.2157 16.5314C17.8026 16.5617 17.4432 16.2514 17.4128 15.8383C17.3825 15.4252 17.6928 15.0658 18.1059 15.0354C19.1324 14.9601 19.789 14.6055 20.1832 14.1852C20.5807 13.7614 20.7646 13.2152 20.7492 12.6574C20.718 11.5313 19.8893 10.4403 18.4483 10.3787C17.7821 10.3502 17.3529 9.67169 17.5804 9.0648C18.1152 7.6377 17.8672 6.43078 17.2012 5.48728C16.5164 4.51698 15.3542 3.78213 14.0223 3.44694C12.6934 3.11248 11.2678 3.19457 10.0857 3.76585Z" fill="black"/>
<path fill-rule="evenodd" clip-rule="evenodd" d="M14.0045 11.3451C14.4718 11.539 14.8022 12.0048 14.8022 12.5691V15.369H15.4373C16.0213 15.369 16.4336 15.7521 16.6049 16.1679C16.7753 16.5818 16.75 17.1129 16.413 17.5342L13.0208 21.7726C13.0205 21.7729 13.0203 21.7733 13.02 21.7736C12.6435 22.246 12.0551 22.3537 11.576 22.155C11.1087 21.9611 10.7783 21.4953 10.7783 20.931V18.1311H10.1432C9.55775 18.1311 9.14866 17.744 8.97901 17.3322C8.80995 16.9218 8.83125 16.3927 9.16408 15.9703L9.16759 15.9659L12.5597 11.7275C12.56 11.7271 12.5603 11.7268 12.5605 11.7265C12.9371 11.2541 13.5254 11.1464 14.0045 11.3451ZM13.3022 13.2004L10.5564 16.6311H11.5283C11.9426 16.6311 12.2783 16.9669 12.2783 17.3811V20.2997L15.0241 16.869H14.0522C13.6379 16.869 13.3022 16.5332 13.3022 16.119V13.2004Z" fill="black"/>
</svg>
