<svg width="24" height="24" viewBox="0 0 24 24" fill="none" xmlns="http://www.w3.org/2000/svg">
<g clip-path="url(#clip0_511_51361)">
<path fill-rule="evenodd" clip-rule="evenodd" d="M6.2555 0.662232C5.75849 1.12813 5.91645 1.79098 6.07681 2.15807L6.07732 2.15923C6.27899 2.61878 6.38954 3.12145 6.38544 3.65358L6.38542 3.65625C6.37723 5.62756 4.72539 7.32849 2.69357 7.41133C2.39235 7.42384 2.1048 7.40304 1.82616 7.35329L1.82857 7.35372C1.59629 7.31147 1.34576 7.29933 1.10466 7.35539C0.857418 7.41287 0.579786 7.55477 0.403238 7.84278C0.227407 8.12961 0.226473 8.43971 0.28456 8.68337C0.341325 8.92148 0.461481 9.13845 0.600422 9.32626C1.23335 10.1893 2.10163 10.8728 3.11104 11.2899C3.49387 11.4481 3.93243 11.266 4.09061 10.8831C4.24879 10.5003 4.06667 10.0617 3.68385 9.90357C3.12181 9.67134 2.61962 9.32928 2.20582 8.90577C2.38605 8.9162 2.56907 8.9178 2.75525 8.91006C5.56474 8.79521 7.87306 6.4596 7.8854 3.66381C7.88927 3.14493 7.81556 2.64496 7.67608 2.17244C8.72038 2.78425 9.48287 3.79922 9.74233 4.98747C9.83069 5.39215 10.2304 5.64857 10.6351 5.56021C11.0397 5.47185 11.2962 5.07216 11.2078 4.66748C10.7981 2.79095 9.47352 1.25862 7.72809 0.524816C7.36367 0.371064 6.72728 0.219985 6.2555 0.662232Z" fill="black"/>
<path fill-rule="evenodd" clip-rule="evenodd" d="M12.9545 7.38617C11.9628 7.85745 11.1272 8.74124 10.7469 10.1993C10.6535 10.5577 10.3562 10.8388 9.98351 10.9048C7.87108 11.2787 6.94727 12.7638 7.01644 14.0725C7.08373 15.3458 8.1206 16.7563 10.6286 16.8987C11.0422 16.9222 11.3584 17.2765 11.3349 17.69C11.3114 18.1036 10.9572 18.4198 10.5436 18.3963C7.413 18.2186 5.63324 16.3222 5.51853 14.1517C5.41028 12.1034 6.813 10.0916 9.3885 9.49573C9.91963 7.7951 10.9959 6.65616 12.3107 6.03135C13.6862 5.37775 15.2742 5.30766 16.6994 5.65763C18.1215 6.00682 19.4555 6.79284 20.2919 7.94472C21.0415 8.97721 21.3641 10.2715 21.0179 11.6961C22.6764 12.0739 23.6499 13.5021 23.6819 14.9472C23.7001 15.7644 23.4194 16.6001 22.7926 17.2531C22.1635 17.9085 21.2379 18.327 20.057 18.4123C19.6439 18.4421 19.2848 18.1314 19.255 17.7183C19.2251 17.3051 19.5359 16.946 19.949 16.9162C20.8305 16.8525 21.3835 16.5549 21.7104 16.2144C22.0396 15.8715 22.1923 15.4314 22.1823 14.9805C22.1621 14.0701 21.4877 13.1687 20.2829 13.1035C19.621 13.0677 19.1986 12.3933 19.4226 11.7897C19.8627 10.6034 19.6457 9.60783 19.0781 8.82604C18.4905 8.01679 17.4927 7.39697 16.3417 7.11435C15.194 6.83252 13.9678 6.90468 12.9545 7.38617Z" fill="black"/>
<path fill-rule="evenodd" clip-rule="evenodd" d="M14.1788 16.1007C14.1788 14.8568 15.1548 13.7874 16.4307 13.7874C17.6976 13.7874 18.6827 14.8473 18.6827 16.1007C18.6827 17.3446 17.7067 18.4141 16.4307 18.4141H12.7214C12.3072 18.4141 11.9714 18.0783 11.9714 17.6641C11.9714 17.2499 12.3072 16.9141 12.7214 16.9141H16.4307C16.8186 16.9141 17.1827 16.5771 17.1827 16.1007C17.1827 15.6222 16.8166 15.2874 16.4307 15.2874C16.0428 15.2874 15.6788 15.6243 15.6788 16.1007C15.6788 16.5149 15.343 16.8507 14.9288 16.8507C14.5146 16.8507 14.1788 16.5149 14.1788 16.1007Z" fill="black"/>
<path fill-rule="evenodd" clip-rule="evenodd" d="M12.5953 21.3121C12.5953 22.6355 13.7323 23.6254 15.0275 23.6254C16.3127 23.6254 17.4597 22.6448 17.4597 21.3121C17.4597 19.9886 16.3227 18.9987 15.0275 18.9987H8.3717C7.95749 18.9987 7.6217 19.3345 7.6217 19.7487C7.6217 20.1629 7.95749 20.4987 8.3717 20.4987H15.0275C15.5959 20.4987 15.9597 20.9152 15.9597 21.3121C15.9597 21.7113 15.5934 22.1254 15.0275 22.1254C14.4591 22.1254 14.0953 21.7089 14.0953 21.3121C14.0953 20.8978 13.7595 20.5621 13.3453 20.5621C12.9311 20.5621 12.5953 20.8978 12.5953 21.3121Z" fill="black"/>
</g>
<defs>
<clipPath id="clip0_511_51361">
<rect width="24" height="24" fill="white"/>
</clipPath>
</defs>
</svg>
