<svg width="24" height="24" viewBox="0 0 24 24" fill="none" xmlns="http://www.w3.org/2000/svg">
<path fill-rule="evenodd" clip-rule="evenodd" d="M10.0857 3.76585C8.925 4.3268 7.94614 5.38282 7.50552 7.12018C7.41403 7.48092 7.11586 7.76495 6.74124 7.83128C4.28561 8.26605 3.17395 10.0297 3.25414 11.6235C3.3325 13.181 4.57593 14.8482 7.4709 15.0153C7.88443 15.0392 8.20031 15.3937 8.17644 15.8073C8.15258 16.2208 7.798 16.5367 7.38448 16.5128C3.84555 16.3086 1.87866 14.1362 1.75604 11.6989C1.63963 9.38518 3.21099 7.08505 6.14228 6.42218C6.72998 4.45085 7.94371 3.13505 9.43302 2.4153C10.9824 1.66654 12.7767 1.58667 14.3884 1.9923C15.9973 2.3972 17.4966 3.30449 18.4268 4.62234C19.2696 5.81649 19.6164 7.31238 19.1855 8.96097C21.0905 9.34603 22.2033 10.9764 22.2486 12.616C22.274 13.5333 21.9689 14.4739 21.2773 15.2113C20.5823 15.9523 19.5495 16.4335 18.2157 16.5314C17.8026 16.5617 17.4432 16.2514 17.4128 15.8383C17.3825 15.4252 17.6928 15.0658 18.1059 15.0354C19.1324 14.9601 19.789 14.6055 20.1832 14.1852C20.5807 13.7614 20.7646 13.2152 20.7492 12.6574C20.718 11.5313 19.8893 10.4403 18.4483 10.3787C17.7821 10.3502 17.3529 9.67169 17.5804 9.0648C18.1152 7.6377 17.8672 6.43078 17.2012 5.48728C16.5164 4.51698 15.3542 3.78213 14.0223 3.44694C12.6934 3.11248 11.2678 3.19457 10.0857 3.76585Z" fill="black"/>
<path fill-rule="evenodd" clip-rule="evenodd" d="M13.3575 13.4047C13.7148 13.7029 14.4244 14.342 15.0503 15.1926C15.6684 16.0327 16.2669 17.1629 16.2649 18.4265C16.2646 20.4804 14.7045 22.25 12.665 22.25C10.6247 22.25 9.06595 20.4761 9.06498 18.4239C9.05913 17.1462 9.65356 16.0159 10.2728 15.177C10.8983 14.3296 11.6088 13.6988 11.9678 13.4027C12.3729 13.0651 12.9531 13.0658 13.3575 13.4047ZM16.2649 18.4265C16.2649 18.4267 16.2649 18.4269 16.2649 18.4271L15.5149 18.4258H16.2649C16.2649 18.426 16.2649 18.4263 16.2649 18.4265ZM12.6597 14.7856C12.9877 15.0828 13.4392 15.534 13.8421 16.0816C14.3779 16.8098 14.7663 17.625 14.7649 18.4245L14.7649 18.4258C14.7649 19.7612 13.7708 20.75 12.665 20.75C11.5603 20.75 10.565 19.7586 10.565 18.422L10.565 18.4182C10.5609 17.6029 10.9478 16.7883 11.4797 16.0678C11.8808 15.5244 12.3311 15.0794 12.6597 14.7856Z" fill="black"/>
</svg>
