<svg width="24" height="24" viewBox="0 0 24 24" fill="none" xmlns="http://www.w3.org/2000/svg">
<path fill-rule="evenodd" clip-rule="evenodd" d="M9.96844 6.29901C8.73493 6.89755 7.69529 8.02534 7.22914 9.8778C7.13801 10.2399 6.83881 10.5243 6.4642 10.5905C3.72703 11.0742 2.54931 13.1256 2.77815 14.91C2.89367 15.8107 3.36694 16.6806 4.23581 17.3113C5.1066 17.9434 6.42111 18.3664 8.25419 18.2672C9.5058 18.1994 12.256 18.234 14.6194 18.2638C15.7618 18.2782 16.8137 18.2915 17.5624 18.2915H17.5838L17.6052 18.2927C18.9591 18.3702 19.8482 18.0454 20.3946 17.6067C20.9395 17.1691 21.2123 16.5648 21.2464 15.9357C21.3159 14.6527 20.4061 13.3456 18.7758 13.2823C18.1102 13.2565 17.6751 12.5782 17.905 11.968C18.4797 10.4421 18.2187 9.14819 17.5111 8.13765C16.7848 7.10041 15.552 6.31749 14.142 5.96031C12.7349 5.60385 11.2233 5.69008 9.96844 6.29901ZM19.5138 11.8605C19.9808 10.1183 19.6229 8.53835 18.7398 7.27724C17.769 5.89096 16.1988 4.93395 14.5104 4.50624C12.8191 4.07781 10.937 4.16174 9.3136 4.94949C7.75005 5.70819 6.47696 7.09695 5.86458 9.18108C2.61421 9.90837 0.964202 12.5578 1.29034 15.1008C1.45788 16.4072 2.14765 17.6491 3.35467 18.5252C4.55976 19.4 6.23397 19.8787 8.33529 19.765C9.53813 19.6998 12.1668 19.7332 14.4971 19.7627C15.6565 19.7775 16.7421 19.7912 17.5414 19.7915C19.1608 19.8801 20.436 19.4972 21.3338 18.7762C22.2371 18.0509 22.6889 17.0372 22.7442 16.0169C22.8434 14.1864 21.655 12.2719 19.5138 11.8605Z" fill="black"/>
</svg>
