<svg width="24" height="24" viewBox="0 0 24 24" fill="none" xmlns="http://www.w3.org/2000/svg">
<g clip-path="url(#clip0_511_51366)">
<path fill-rule="evenodd" clip-rule="evenodd" d="M5.14381 0.291924C5.53488 0.15541 5.96257 0.36177 6.09909 0.752841L6.5161 1.94747C6.65262 2.33854 6.44626 2.76623 6.05518 2.90275C5.66411 3.03926 5.23642 2.8329 5.09991 2.44183L4.68289 1.2472C4.54638 0.85613 4.75274 0.428438 5.14381 0.291924ZM10.9895 0.605092C11.3689 0.77132 11.5417 1.21364 11.3755 1.59303L10.897 2.68517C10.7308 3.06457 10.2885 3.23738 9.90906 3.07115C9.52966 2.90492 9.35685 2.46261 9.52308 2.08321L10.0016 0.991067C10.1678 0.611671 10.6101 0.438864 10.9895 0.605092ZM9.75733 5.85569C9.02293 5.04846 7.89761 4.7447 6.86519 5.14532C5.46187 5.68986 4.69631 7.36587 5.23645 8.91322C5.3488 9.23506 5.50746 9.5209 5.69976 9.76679C5.95493 10.0931 5.89727 10.5644 5.57099 10.8196C5.2447 11.0748 4.77334 11.0171 4.51818 10.6908C4.22454 10.3154 3.98668 9.88432 3.82026 9.40758C3.03169 7.14857 4.11566 4.60327 6.32255 3.74691C7.97066 3.10738 9.74285 3.61078 10.8669 4.84626C11.1456 5.15265 11.1232 5.62699 10.8168 5.90574C10.5104 6.18448 10.0361 6.16208 9.75733 5.85569ZM0.862658 4.51482C1.04403 4.14243 1.49294 3.98757 1.86534 4.16895L2.9012 4.67345C3.2736 4.85482 3.42845 5.30374 3.24708 5.67613C3.06571 6.04853 2.61679 6.20338 2.2444 6.02201L1.20854 5.5175C0.836142 5.33613 0.681287 4.88722 0.862658 4.51482ZM3.04865 9.73453C3.19849 10.1207 3.00692 10.5552 2.62076 10.705L1.53129 11.1278C1.14513 11.2777 0.710608 11.0861 0.560763 10.6999C0.410918 10.3138 0.60249 9.87924 0.988649 9.7294L2.07813 9.30664C2.46429 9.15679 2.8988 9.34837 3.04865 9.73453Z" fill="black"/>
<path fill-rule="evenodd" clip-rule="evenodd" d="M12.7011 7.42749C11.7026 7.90182 10.8616 8.79131 10.479 10.2583C10.3856 10.6166 10.0882 10.8978 9.71546 10.9637C7.58897 11.3398 6.65845 12.8343 6.728 14.1517C6.79568 15.4337 7.84008 16.8531 10.364 16.9963C10.7776 17.0198 11.0938 17.3741 11.0703 17.7876C11.0468 18.2012 10.6926 18.5174 10.279 18.4939C7.13292 18.3153 5.34515 16.4105 5.23009 14.2308C5.12147 12.1733 6.53148 10.1523 9.12059 9.55456C9.6541 7.84498 10.7359 6.70037 12.0575 6.0726C13.4396 5.41602 15.0355 5.34562 16.468 5.69732C17.8972 6.04825 19.2377 6.83808 20.0779 7.99531C20.8314 9.03304 21.1551 10.3339 20.8059 11.7659C22.4736 12.1437 23.4528 13.5781 23.4854 15.0302C23.5038 15.8509 23.222 16.69 22.5925 17.3458C21.9608 18.0038 21.031 18.4243 19.8443 18.51C19.4312 18.5398 19.0721 18.2291 19.0423 17.8159C19.0125 17.4028 19.3232 17.0437 19.7363 17.0139C20.6238 16.9498 21.1809 16.6502 21.5104 16.307C21.8422 15.9614 21.996 15.5179 21.9858 15.0638C21.9652 14.147 21.2853 13.2389 20.0707 13.1738C19.4084 13.1383 18.9858 12.4633 19.2101 11.8597C19.6537 10.6658 19.4355 9.66358 18.8641 8.87659C18.2728 8.0621 17.2685 7.43843 16.1103 7.15406C14.9553 6.87046 13.7211 6.94296 12.7011 7.42749Z" fill="black"/>
<path fill-rule="evenodd" clip-rule="evenodd" d="M15.5248 15.7477C15.8531 16.0217 16.5049 16.6087 17.0803 17.3907C17.648 18.1622 18.2033 19.2073 18.2015 20.3807C18.2011 22.2864 16.7527 23.9353 14.8508 23.9353C12.9481 23.9353 11.501 22.2824 11.5 20.3784C11.4947 19.1923 12.0461 18.1471 12.6151 17.3763C13.1902 16.5971 13.843 16.0177 14.1727 15.7457C14.5667 15.4174 15.1315 15.4181 15.5248 15.7477ZM14.8457 17.1467C15.1383 17.4154 15.5253 17.8082 15.8721 18.2796C16.3575 18.9393 16.7027 19.6694 16.7015 20.3787L16.7015 20.38C16.7015 21.5671 15.819 22.4353 14.8508 22.4353C13.8837 22.4353 13 21.5649 13 20.3765L13 20.3727C12.9964 19.649 13.3404 18.9194 13.8219 18.2671C14.167 17.7996 14.5528 17.4123 14.8457 17.1467Z" fill="black"/>
</g>
<defs>
<clipPath id="clip0_511_51366">
<rect width="24" height="24" fill="white"/>
</clipPath>
</defs>
</svg>
