<svg width="24" height="24" viewBox="0 0 24 24" fill="none" xmlns="http://www.w3.org/2000/svg">
<path fill-rule="evenodd" clip-rule="evenodd" d="M7.00607 3.29545C7.39516 3.15339 7.82574 3.35364 7.96781 3.74273L8.60008 5.4744C8.74214 5.86349 8.54189 6.29408 8.1528 6.43614C7.76371 6.57821 7.33312 6.37795 7.19106 5.98886L6.55879 4.25719C6.41673 3.8681 6.61698 3.43752 7.00607 3.29545ZM15.6078 3.74146C15.9843 3.91402 16.1497 4.35917 15.9771 4.73573L15.2516 6.31885C15.0791 6.6954 14.6339 6.86077 14.2574 6.6882C13.8808 6.51564 13.7154 6.07049 13.888 5.69393L14.6135 4.11081C14.7861 3.73426 15.2312 3.56889 15.6078 3.74146ZM14.1812 10.8239C12.9708 9.55186 11.0876 9.05302 9.34794 9.69842C7.00201 10.5687 5.79272 13.1965 6.65991 15.5716C6.84208 16.0706 7.10048 16.5167 7.41623 16.9027C7.67849 17.2233 7.63118 17.6958 7.31057 17.9581C6.98995 18.2204 6.51744 18.1731 6.25518 17.8524C5.83418 17.3378 5.49139 16.7448 5.25089 16.0861C4.10354 12.9437 5.69844 9.45245 8.82621 8.29208C11.1507 7.42974 13.6607 8.10091 15.2679 9.78988C15.5534 10.0899 15.5416 10.5647 15.2416 10.8502C14.9415 11.1358 14.4668 11.124 14.1812 10.8239ZM0.73999 9.25429C0.914838 8.87879 1.36098 8.71613 1.73649 8.89098L3.30703 9.62229C3.68253 9.79714 3.84519 10.2433 3.67035 10.6188C3.4955 10.9943 3.04935 11.1569 2.67385 10.9821L1.1033 10.2508C0.727802 10.0759 0.565141 9.6298 0.73999 9.25429ZM3.35497 16.7935C3.49904 17.1819 3.30101 17.6135 2.91266 17.7575L1.26083 18.3704C0.872477 18.5144 0.440863 18.3164 0.296789 17.9281C0.152716 17.5397 0.350742 17.1081 0.739092 16.964L2.39093 16.3512C2.77928 16.2071 3.21089 16.4052 3.35497 16.7935Z" fill="black"/>
<path fill-rule="evenodd" clip-rule="evenodd" d="M15.3966 20.3926C15.0653 20.2468 14.6898 20.238 14.352 20.368L14.2185 20.4195C13.5699 20.6692 12.8517 20.6692 12.2031 20.4195C11.8233 20.2732 11.3969 20.3127 11.0503 20.5262L10.8617 20.6423C10.5091 20.8596 10.0471 20.7498 9.82981 20.3971C9.61255 20.0445 9.72232 19.5825 10.075 19.3652L10.2635 19.2491C11.0087 18.79 11.9254 18.7052 12.7421 19.0196C13.0438 19.1358 13.3778 19.1358 13.6795 19.0196L13.813 18.9682C14.5205 18.6958 15.3069 18.7143 16.0008 19.0196C16.2839 19.1442 16.6008 19.1694 16.9001 19.091L17.4261 18.9533C17.8268 18.8484 18.2367 19.0882 18.3416 19.4889C18.4465 19.8896 18.2067 20.2995 17.806 20.4044L17.28 20.5421C16.6533 20.7062 15.9896 20.6535 15.3966 20.3926Z" fill="black"/>
<path fill-rule="evenodd" clip-rule="evenodd" d="M19.9795 15.5092C19.5231 15.3619 19.0334 15.3529 18.5719 15.4832L18.0612 15.6274C17.3626 15.8247 16.623 15.8247 15.9244 15.6274L15.6046 15.5371C15.0532 15.3814 14.4647 15.4254 13.9426 15.6613L13.5619 15.8332C13.1844 16.0038 12.7402 15.836 12.5696 15.4585C12.3991 15.081 12.5669 14.6368 12.9443 14.4663L13.325 14.2943C14.1691 13.9129 15.1208 13.8418 16.0121 14.0935L16.332 14.1838C16.7641 14.3058 17.2215 14.3058 17.6536 14.1838L18.1643 14.0396C18.9105 13.829 19.7023 13.8436 20.4402 14.0817L20.762 14.1855C21.1511 14.3111 21.5657 14.3365 21.9673 14.2594L22.8585 14.0883C23.2653 14.0102 23.6584 14.2766 23.7365 14.6834C23.8146 15.0902 23.5482 15.4833 23.1414 15.5614L22.2501 15.7325C21.6008 15.8572 20.9305 15.8161 20.3013 15.613L19.9795 15.5092Z" fill="black"/>
</svg>
