<svg width="24" height="24" viewBox="0 0 24 24" fill="none" xmlns="http://www.w3.org/2000/svg">
<path fill-rule="evenodd" clip-rule="evenodd" d="M11.2128 5.24804C10.127 5.78914 9.20088 6.81291 8.78248 8.51152C8.69483 8.86736 8.40407 9.15806 8.02385 9.22789C5.51097 9.68937 4.47634 11.6975 4.81174 13.3895C4.89227 13.7958 4.62819 14.1905 4.22188 14.271C3.81557 14.3515 3.4209 14.0875 3.34036 13.6811C2.85607 11.238 4.3273 8.55474 7.41426 7.82364C7.97214 5.90359 9.1223 4.6139 10.5437 3.90552C12.0244 3.16761 13.7388 3.08926 15.2771 3.48856C16.8131 3.88723 18.241 4.77977 19.1256 6.07164C19.9252 7.23935 20.2538 8.69811 19.8491 10.3054C21.7893 10.7238 22.8391 12.5228 22.744 14.2068C22.6904 15.1561 22.2781 16.1044 21.449 16.7856C20.6237 17.4637 19.456 17.8206 17.9846 17.7384C17.4284 17.7382 16.9199 17.73 16.2878 17.7199C15.9114 17.7139 15.4911 17.7071 14.9908 17.701C14.5766 17.6959 14.245 17.356 14.2501 16.9418C14.2552 16.5276 14.5951 16.196 15.0093 16.2011C15.5255 16.2074 15.9513 16.2143 16.3286 16.2203C16.9579 16.2304 17.4523 16.2384 18.0062 16.2384H18.0282L18.0502 16.2397C19.2467 16.31 20.0229 16.016 20.4968 15.6266C20.9711 15.2369 21.2141 14.6945 21.2464 14.1222C21.3129 12.9449 20.508 11.7851 19.1167 11.7183C18.463 11.6869 18.0275 11.0238 18.2485 10.414C18.7542 9.01831 18.5172 7.83802 17.8879 6.91912C17.2421 5.97599 16.1492 5.26462 14.9003 4.94045C13.6537 4.61688 12.319 4.69673 11.2128 5.24804Z" fill="black"/>
<path fill-rule="evenodd" clip-rule="evenodd" d="M7.20452 11.7754C6.4996 12.118 5.89287 12.7624 5.60923 13.8504C5.51625 14.2071 5.22246 14.4862 4.85466 14.5556C3.26874 14.8551 2.63452 16.038 2.76744 17.0275C2.83491 17.5297 3.09984 18.0168 3.59291 18.3737C4.08777 18.7319 4.85877 18.9901 5.97406 18.9294C6.78135 18.8855 8.55802 18.908 10.071 18.9271C10.7944 18.9362 11.4576 18.9446 11.9257 18.9446H11.9472L11.9687 18.9458C13.0454 19.0077 13.5681 18.6473 13.7985 18.3108C14.047 17.948 14.0738 17.451 13.8712 17.0248C13.6856 16.6347 13.3177 16.3277 12.768 16.2809C12.1439 16.2278 11.7114 15.5933 11.9208 14.9837C12.2196 14.1141 12.0532 13.3941 11.6434 12.8286C11.2159 12.2387 10.4923 11.781 9.65221 11.5727C8.81471 11.3652 7.92994 11.4228 7.20452 11.7754ZM13.4952 14.8982C13.7186 13.7801 13.448 12.7627 12.858 11.9484C12.1862 11.0213 11.131 10.3939 10.0131 10.1168C8.89249 9.83907 7.6399 9.89604 6.54887 10.4263C5.51776 10.9274 4.6783 11.8297 4.25027 13.1544C2.13807 13.7007 1.04752 15.4907 1.2808 17.2272C1.40229 18.1315 1.88315 18.9879 2.71341 19.5888C3.54187 20.1884 4.67171 20.5025 6.05548 20.4272C6.81381 20.386 8.46846 20.4071 9.94823 20.426C10.689 20.4355 11.386 20.4444 11.9048 20.4446C13.3539 20.5222 14.4398 20.0291 15.0361 19.1585C15.6174 18.3097 15.6335 17.238 15.2258 16.3806C14.9022 15.7003 14.3047 15.1374 13.4952 14.8982Z" fill="black"/>
</svg>
