<svg width="24" height="24" viewBox="0 0 24 24" fill="none" xmlns="http://www.w3.org/2000/svg">
<g clip-path="url(#clip0_511_51346)">
<path fill-rule="evenodd" clip-rule="evenodd" d="M13.2265 10.6857C13.7712 10.5914 14.2968 10.8956 14.4863 11.4153C14.6696 11.9147 15.0068 12.9531 15.1401 14.1515C15.2719 15.337 15.216 16.7826 14.5029 18.0132C13.3453 20.0176 10.8331 20.8556 8.85734 19.7149C6.88091 18.5738 6.35417 15.9756 7.50979 13.9721C8.22339 12.7228 9.44355 11.9493 10.536 11.4727C11.638 10.992 12.7018 10.7736 13.2265 10.6857ZM13.1784 12.2194C12.6728 12.3199 11.9091 12.5103 11.1358 12.8476C10.1782 13.2653 9.29559 13.8691 8.81165 14.7172L8.80978 14.7205C8.01111 16.1038 8.44115 17.7425 9.60734 18.4158C10.7745 19.0897 12.4062 18.6449 13.2042 17.2626L13.2049 17.2615C13.6854 16.4325 13.7657 15.3648 13.6492 14.3173C13.5554 13.4738 13.3415 12.7103 13.1784 12.2194Z" fill="black"/>
<path fill-rule="evenodd" clip-rule="evenodd" d="M21.9687 7.81267C22.0966 8.16103 22.3318 8.88493 22.4251 9.72368C22.5169 10.5494 22.483 11.59 21.9624 12.4888C21.1198 13.9478 19.275 14.5792 17.8054 13.7308C16.3352 12.882 15.9625 10.9664 16.8032 9.50846C17.3239 8.59714 18.2053 8.04555 18.9675 7.71307C19.7393 7.37638 20.4815 7.22413 20.8473 7.16282C21.3314 7.07933 21.8003 7.35082 21.9687 7.81267ZM20.691 8.723C20.7842 9.03438 20.8849 9.44567 20.9343 9.88947C21.0108 10.5772 20.9524 11.2401 20.6641 11.7374L20.6635 11.7385C20.1804 12.5752 19.2163 12.8133 18.5554 12.4317C17.8955 12.0507 17.6195 11.0946 18.1032 10.2568L18.105 10.2535C18.3961 9.74348 18.9399 9.36157 19.5672 9.08795C19.9731 8.91091 20.3763 8.7956 20.691 8.723Z" fill="black"/>
<path fill-rule="evenodd" clip-rule="evenodd" d="M8.5794 4.22696C8.7267 4.62834 8.9977 5.46257 9.10501 6.42752C9.21087 7.37949 9.16922 8.56232 8.58095 9.57758C7.62778 11.2278 5.54895 11.9316 3.90184 10.9806C2.25406 10.0292 1.82732 7.87421 2.77848 6.22485C3.36687 5.19494 4.3671 4.5655 5.24518 4.18247C6.13285 3.79526 6.98788 3.61978 7.40943 3.54914C7.91482 3.46186 8.40357 3.74482 8.5794 4.22696ZM7.29173 5.0989C7.41077 5.47796 7.54951 6.01164 7.6142 6.59331C7.70472 7.40728 7.63864 8.21213 7.28292 8.82583L7.28228 8.82694C6.68871 9.85504 5.49038 10.1657 4.65184 9.68155C3.81429 9.198 3.48427 8.00238 4.07847 6.97321L4.08035 6.96993C4.43908 6.34129 5.10177 5.88153 5.84492 5.55736C6.37752 5.32503 6.90534 5.18247 7.29173 5.0989Z" fill="black"/>
</g>
<defs>
<clipPath id="clip0_511_51346">
<rect width="24" height="24" fill="white"/>
</clipPath>
</defs>
</svg>
