<svg width="24" height="24" viewBox="0 0 24 24" fill="none" xmlns="http://www.w3.org/2000/svg">
<path fill-rule="evenodd" clip-rule="evenodd" d="M6.11921 4.25C5.36301 4.25 4.75 4.86301 4.75 5.61921C4.75 6.3754 5.36301 6.98841 6.11921 6.98841C6.8754 6.98841 7.48841 6.3754 7.48841 5.61921C7.48841 4.86301 6.8754 4.25 6.11921 4.25ZM3.25 5.61921C3.25 4.03459 4.53459 2.75 6.11921 2.75C7.70382 2.75 8.98841 4.03459 8.98841 5.61921C8.98841 7.20382 7.70382 8.48841 6.11921 8.48841C4.53459 8.48841 3.25 7.20382 3.25 5.61921Z" fill="black"/>
<path fill-rule="evenodd" clip-rule="evenodd" d="M12 6.25C11.8619 6.25 11.75 6.36193 11.75 6.5V19.5C11.75 19.6381 11.8619 19.75 12 19.75H13.7465C13.8846 19.75 13.9965 19.6381 13.9965 19.5V16.3571C13.9965 15.3906 14.78 14.6071 15.7465 14.6071H18.8953C19.0334 14.6071 19.1453 14.4952 19.1453 14.3571V12.65C19.1453 12.5119 19.0334 12.4 18.8953 12.4H15.7465C14.78 12.4 13.9965 11.6165 13.9965 10.65V10.2071C13.9965 9.24065 14.78 8.45714 15.7465 8.45714H19C19.1381 8.45714 19.25 8.34521 19.25 8.20714V6.5C19.25 6.36193 19.1381 6.25 19 6.25H12ZM10.25 6.5C10.25 5.5335 11.0335 4.75 12 4.75H19C19.9665 4.75 20.75 5.5335 20.75 6.5V8.20714C20.75 9.17364 19.9665 9.95714 19 9.95714H15.7465C15.6084 9.95714 15.4965 10.0691 15.4965 10.2071V10.65C15.4965 10.7881 15.6084 10.9 15.7465 10.9H18.8953C19.8618 10.9 20.6453 11.6835 20.6453 12.65V14.3571C20.6453 15.3236 19.8618 16.1071 18.8953 16.1071H15.7465C15.6084 16.1071 15.4965 16.2191 15.4965 16.3571V19.5C15.4965 20.4665 14.713 21.25 13.7465 21.25H12C11.0335 21.25 10.25 20.4665 10.25 19.5V6.5Z" fill="black"/>
</svg>
