<svg width="24" height="24" viewBox="0 0 24 24" fill="none" xmlns="http://www.w3.org/2000/svg">
<path fill-rule="evenodd" clip-rule="evenodd" d="M10.6775 2.60834C11.2966 3.17193 11.1445 4.03077 10.8648 4.65265L10.8642 4.65383C10.4517 5.56682 10.2254 6.56645 10.2338 7.6232L10.2338 7.62595C10.2505 11.5399 13.6191 14.9203 17.7935 15.0856C18.4085 15.1105 18.9968 15.0692 19.5674 14.9703C19.9463 14.9035 20.3167 14.8919 20.6499 14.9671C20.9876 15.0433 21.3352 15.2228 21.5541 15.5697C21.7746 15.9189 21.7849 16.3114 21.7019 16.6496C21.6206 16.9807 21.4428 17.3021 21.2142 17.6021C19.2259 20.2359 15.9244 21.8944 12.2495 21.7401C7.03826 21.5182 2.64172 17.4768 2.27723 12.4348C1.94435 7.96614 4.68428 4.09346 8.63342 2.48095C9.26669 2.22126 10.0997 2.08227 10.6775 2.60834ZM9.5945 3.75557C9.50356 3.76714 9.37313 3.79876 9.20176 3.86911L9.20045 3.86965C5.78984 5.26227 3.49311 8.56934 3.77314 12.3242L3.77327 12.3259C4.0783 16.551 7.80379 20.0492 12.3124 20.2414C15.495 20.375 18.3262 18.939 20.0181 16.697L20.0205 16.6938C20.107 16.5803 20.1626 16.4874 20.1974 16.4161C20.1097 16.4127 19.9879 16.4193 19.8272 16.4476L19.8249 16.4481C19.1506 16.565 18.4563 16.6136 17.7336 16.5844C12.8201 16.3896 8.75502 12.4108 8.73381 7.63374C8.72383 6.3518 8.99923 5.13864 9.49708 4.03668C9.55097 3.91675 9.57976 3.8236 9.5945 3.75557Z" fill="black"/>
</svg>
