<svg width="24" height="24" viewBox="0 0 24 24" fill="none" xmlns="http://www.w3.org/2000/svg">
<path fill-rule="evenodd" clip-rule="evenodd" d="M15.4677 20.1847C15.1364 19.9843 14.7243 19.9725 14.3821 20.1537L14.2496 20.2238C13.5114 20.6146 12.6276 20.6146 11.8894 20.2238C11.5202 20.0284 11.0692 20.0772 10.7504 20.3473L10.4848 20.5723C10.1687 20.84 9.69546 20.8008 9.42773 20.4847C9.16001 20.1687 9.19919 19.6954 9.51526 19.4277L9.78089 19.2027C10.5674 18.5364 11.6802 18.4159 12.5912 18.8981C12.8904 19.0565 13.2486 19.0565 13.5477 18.8981L13.6802 18.828C14.4884 18.4002 15.4618 18.428 16.2442 18.9014C16.5284 19.0733 16.875 19.1079 17.1876 18.9953L17.746 18.7943C18.1357 18.654 18.5654 18.8562 18.7057 19.2459C18.846 19.6357 18.6438 20.0653 18.2541 20.2056L17.6956 20.4067C16.9575 20.6724 16.1389 20.5909 15.4677 20.1847Z" fill="black"/>
<path fill-rule="evenodd" clip-rule="evenodd" d="M19.9915 15.2173C19.4741 14.9668 18.8738 14.9518 18.3445 15.176L18.1631 15.2528C17.3154 15.6118 16.3584 15.6118 15.5106 15.2528C14.9172 15.0014 14.2367 15.0679 13.7032 15.4295L13.4208 15.6208C13.0779 15.8532 12.6116 15.7636 12.3792 15.4207C12.1468 15.0778 12.2364 14.6115 12.5793 14.3791L12.8617 14.1878C13.8163 13.5408 15.0338 13.4218 16.0956 13.8715C16.5694 14.0722 17.1043 14.0722 17.5781 13.8715L17.7595 13.7947C18.6868 13.402 19.7385 13.4284 20.645 13.8671C21.0875 14.0813 21.5936 14.1245 22.0661 13.9885L22.7925 13.7793C23.1905 13.6646 23.6061 13.8944 23.7208 14.2924C23.8354 14.6904 23.6057 15.106 23.2076 15.2207L22.4812 15.4299C21.6534 15.6683 20.7668 15.5926 19.9915 15.2173Z" fill="black"/>
<path fill-rule="evenodd" clip-rule="evenodd" d="M9.01042 3.58479C8.45392 4.10635 8.60542 4.87705 8.82963 5.39021L8.83014 5.39137C9.14765 6.11477 9.32204 6.90719 9.31557 7.74555L9.31555 7.74823C9.30263 10.8573 6.70516 13.5219 3.51703 13.6518L3.51646 13.6519C3.04537 13.6714 2.59558 13.6389 2.15884 13.561C1.84604 13.5042 1.52878 13.4921 1.23586 13.5602C0.936374 13.6298 0.621419 13.7961 0.423717 14.1186C0.226721 14.4399 0.220835 14.7945 0.291384 15.0904C0.360623 15.3807 0.510681 15.6577 0.698047 15.9108C1.59439 17.133 2.82487 18.1019 4.2561 18.6931C4.63893 18.8513 5.07748 18.6692 5.23564 18.2863C5.39379 17.9035 5.21165 17.4649 4.82882 17.3068C3.65823 16.8232 2.65352 16.0335 1.9213 15.0422C2.45581 15.1357 3.00607 15.1743 3.57813 15.1506C7.54395 14.9889 10.7985 11.6898 10.8155 7.75579C10.8234 6.71665 10.6102 5.73172 10.2237 4.83449C12.2659 5.69385 13.7962 7.47961 14.2674 9.63702C14.3557 10.0417 14.7554 10.2981 15.1601 10.2097C15.5648 10.1214 15.8212 9.72165 15.7328 9.31698C15.1532 6.66299 13.2781 4.49129 10.8024 3.45064C10.2905 3.23458 9.5417 3.08685 9.01042 3.58479Z" fill="black"/>
</svg>
