<svg width="24" height="24" viewBox="0 0 24 24" fill="none" xmlns="http://www.w3.org/2000/svg">
<path fill-rule="evenodd" clip-rule="evenodd" d="M6.20896 3.25454C5.73759 3.74581 5.93053 4.39879 6.10974 4.75605L6.11032 4.75718C6.33536 5.2039 6.47197 5.69832 6.49601 6.22814L6.49613 6.23081C6.59218 8.1931 5.0378 9.97352 3.01934 10.1634C2.72011 10.1918 2.43274 10.1863 2.15271 10.1515L2.15513 10.1518C1.9214 10.122 1.67096 10.1231 1.43347 10.1918C1.18993 10.2622 0.920401 10.4185 0.759457 10.7152C0.599156 11.0108 0.614683 11.3203 0.68554 11.5603C0.754779 11.7947 0.88611 12.0047 1.03454 12.1845C1.71083 13.0107 2.6121 13.6457 3.63987 14.0078C4.03055 14.1454 4.45883 13.9403 4.59645 13.5496C4.73408 13.1589 4.52894 12.7306 4.13826 12.593C3.56815 12.3922 3.05152 12.0795 2.61798 11.6816C2.7964 11.6823 2.9771 11.6742 3.16041 11.6568C5.95351 11.3937 8.13003 8.94488 7.99441 6.15882C7.97089 5.64345 7.87159 5.15089 7.70862 4.68891C8.77851 5.24308 9.58948 6.21202 9.91014 7.3794C10.0199 7.77882 10.4326 8.01367 10.832 7.90395C11.2314 7.79424 11.4663 7.38151 11.3566 6.98209C10.849 5.13431 9.44821 3.67795 7.67038 3.03932C7.29915 2.90544 6.65631 2.78831 6.20896 3.25454Z" fill="black"/>
<path fill-rule="evenodd" clip-rule="evenodd" d="M12.535 9.70216C11.486 10.2039 10.6016 11.1463 10.2008 12.6997C10.1079 13.0596 9.80962 13.3413 9.43693 13.4074C7.09509 13.8221 6.12084 15.5446 6.31401 17.0108C6.41191 17.7538 6.80898 18.4759 7.54592 19.0025C8.28538 19.5309 9.4112 19.8915 10.9951 19.8069C12.0906 19.7484 14.4986 19.7783 16.5636 19.804C17.5593 19.8163 18.4752 19.8277 19.1259 19.8277H19.1471L19.1682 19.8289C20.3307 19.8945 21.0825 19.62 21.5376 19.262C21.9901 18.9061 22.2154 18.4176 22.2464 17.9092C22.3096 16.8699 21.5703 15.7928 20.2143 15.7249C19.5534 15.6918 19.1248 15.0181 19.3509 14.4111C19.8234 13.1424 19.5956 12.0747 18.9946 11.2378C18.374 10.3738 17.3204 9.71483 16.1082 9.41435C14.8991 9.11463 13.6054 9.19017 12.535 9.70216ZM20.9498 14.3137C21.3247 12.8131 20.994 11.4503 20.2129 10.3628C19.3448 9.15418 17.9547 8.32667 16.4691 7.95841C14.9805 7.5894 13.3223 7.66282 11.8877 8.34898C10.5135 9.00625 9.39073 10.2056 8.84051 11.9983C5.99679 12.6511 4.5313 14.9635 4.82686 17.2067C4.97902 18.3616 5.59871 19.4546 6.67382 20.2229C7.7464 20.9894 9.2279 21.4034 11.0751 21.3048C12.1225 21.2488 14.4106 21.2775 16.443 21.3029C17.4556 21.3156 18.4047 21.3275 19.1052 21.3277C20.5275 21.404 21.6598 21.0743 22.465 20.441C23.2767 19.8024 23.6885 18.9062 23.7436 18.0003C23.8414 16.3924 22.8077 14.7192 20.9498 14.3137Z" fill="black"/>
</svg>
