<svg width="24" height="24" viewBox="0 0 24 24" fill="none" xmlns="http://www.w3.org/2000/svg">
<path fill-rule="evenodd" clip-rule="evenodd" d="M12.5348 9.66358C11.4859 10.1653 10.6015 11.1077 10.2007 12.6611C10.1078 13.0211 9.8095 13.3028 9.43681 13.3688C7.09497 13.7836 6.12071 15.5061 6.31389 16.9722C6.41179 17.7152 6.80886 18.4373 7.5458 18.9639C8.28526 19.4923 9.41107 19.8529 10.995 19.7683C12.0905 19.7098 14.4984 19.7397 16.5635 19.7654C17.5592 19.7777 18.4751 19.7891 19.1258 19.7891H19.1469L19.168 19.7903C20.3306 19.8559 21.0824 19.5814 21.5374 19.2235C21.99 18.8675 22.2153 18.379 22.2462 17.8706C22.3095 16.8313 21.5702 15.7543 20.2142 15.6864C19.5533 15.6533 19.1247 14.9796 19.3508 14.3725C19.8232 13.1038 19.5955 12.0361 18.9944 11.1992C18.3738 10.3352 17.3203 9.67626 16.1081 9.37578C14.899 9.07605 13.6053 9.1516 12.5348 9.66358ZM20.9497 14.2752C21.3245 12.7745 20.9939 11.4118 20.2128 10.3242C19.3447 9.1156 17.9546 8.28809 16.469 7.91984C14.9803 7.55083 13.3222 7.62424 11.8876 8.3104C10.5134 8.96768 9.39061 10.167 8.84039 11.9597C5.99667 12.6126 4.53118 14.9249 4.82674 17.1681C4.9789 18.323 5.59859 19.4161 6.67369 20.1843C7.74628 20.9508 9.22778 21.3648 11.075 21.2662C12.1224 21.2103 14.4105 21.2389 16.4429 21.2643C17.4554 21.277 18.4045 21.2889 19.1051 21.2891C20.5273 21.3654 21.6597 21.0358 22.4648 20.4024C23.2766 19.7639 23.6883 18.8676 23.7435 17.9617C23.8413 16.3538 22.8075 14.6806 20.9497 14.2752Z" fill="black"/>
<path fill-rule="evenodd" clip-rule="evenodd" d="M4.72572 2.74565C5.11481 2.60358 5.5454 2.80384 5.68746 3.19293L6.08953 4.29413C6.2316 4.68322 6.03134 5.11381 5.64226 5.25587C5.25317 5.39794 4.82258 5.19768 4.68052 4.80859L4.27844 3.70739C4.13638 3.3183 4.33663 2.88771 4.72572 2.74565ZM10.4031 3.03753C10.7797 3.2101 10.9451 3.65525 10.7725 4.0318L10.3111 5.03854C10.1386 5.4151 9.69342 5.58047 9.31686 5.4079C8.94031 5.23533 8.77494 4.79018 8.94751 4.41363L9.40887 3.40689C9.58144 3.03033 10.0266 2.86497 10.4031 3.03753ZM9.1844 7.97789C8.48686 7.24486 7.40346 6.959 6.4036 7.32994C5.05409 7.83059 4.35527 9.34448 4.85574 10.7152C4.96097 11.0034 5.10993 11.2604 5.29156 11.4824C5.55382 11.803 5.50651 12.2755 5.1859 12.5378C4.86528 12.8001 4.39277 12.7527 4.13051 12.4321C3.84362 12.0814 3.61028 11.6776 3.44672 11.2296C2.66609 9.09162 3.75052 6.7143 5.88186 5.9236C7.46648 5.33572 9.17676 5.79391 10.271 6.94386C10.5566 7.24392 10.5448 7.71865 10.2447 8.00419C9.94467 8.28973 9.46994 8.27795 9.1844 7.97789ZM0.587101 6.67624C0.761949 6.30073 1.2081 6.13807 1.5836 6.31292L2.58234 6.77798C2.95784 6.95283 3.1205 7.39897 2.94565 7.77447C2.77081 8.14997 2.32466 8.31264 1.94916 8.13779L0.950414 7.67273C0.574913 7.49788 0.412252 7.05174 0.587101 6.67624ZM2.75357 11.4909C2.89764 11.8792 2.69962 12.3108 2.31126 12.4549L1.26083 12.8446C0.872477 12.9887 0.440863 12.7907 0.296789 12.4023C0.152716 12.014 0.350742 11.5823 0.739092 11.4383L1.78953 11.0486C2.17788 10.9045 2.60949 11.1025 2.75357 11.4909Z" fill="black"/>
</svg>
