<?xml version="1.0" encoding="iso-8859-1"?>
<!-- Uploaded to: SVG Repo, www.svgrepo.com, Generator: SVG Repo Mixer Tools -->
<svg height="800px" width="800px" version="1.1" id="Layer_1" xmlns="http://www.w3.org/2000/svg" xmlns:xlink="http://www.w3.org/1999/xlink" 
	 viewBox="0 0 511.999 511.999" xml:space="preserve">
<g>
	<circle style="fill:#1D71B8;" cx="440.095" cy="440.105" r="40.031"/>
	<circle style="fill:#1D71B8;" cx="255.973" cy="255.984" r="168.111"/>
</g>
<path style="fill:#77AAD4;" d="M255.976,424.77c-92.844,0-168.11-75.265-168.11-168.109s75.266-168.11,168.11-168.11"/>
<g>
	<path style="fill:#FAC15C;" d="M247.97,424.094c0,0,43.529,8.506,96.063-24.016l8.006-8.005l-16.011-16.011l8.006-48.031
		l-24.016-24.016l-32.021-16.011h-48.03l-24.016,8.005l-16.01,32.021l8.005,40.026h32.021l8.005,32.021v24.017H247.97z"/>
	<path style="fill:#FAC15C;" d="M175.925,143.911h16.01l24.016-48.031c0,0-27.409-5.453-56.037,24.016L175.925,143.911z"/>
	<path style="fill:#FAC15C;" d="M328.024,191.942l8.005,40.026v24.016l-16.01,16.011l32.021,8.005l16.01-40.026l-8.006-56.037
		l32.021,16.011h16.01c-7.824-58.357-72.048-88.058-72.048-88.058l-24.016-8.005l-24.016,16.01l-8.005,24.016h-32.021l8.006,16.011
		v40.026h-32.021v40.026l32.021,8.005l32.02-8.005v-40.026L328.024,191.942z"/>
	<path style="fill:#FAC15C;" d="M95.872,280l40.026,8.005l16.011,24.016v32.021l-8.006,24.016l-8.006,8.005
		C135.897,376.062,91.48,331.384,95.872,280z"/>
</g>
<g>
	<path style="fill:#1D1D1B;" d="M255.976,511.999c-0.845,0-1.688-0.004-2.53-0.013l0.148-15.705
		c10.264,0.094,20.673-0.457,30.831-1.654l1.839,15.598C276.282,511.402,266.092,511.999,255.976,511.999z M237.023,511.308
		c-10.923-0.8-21.878-2.312-32.561-4.495l3.145-15.388c10.024,2.049,20.307,3.468,30.563,4.219L237.023,511.308z M302.528,507.776
		l-2.839-15.448c10.093-1.854,20.16-4.385,29.921-7.524l4.808,14.953C324.014,503.102,313.284,505.799,302.528,507.776z
		 M188.466,503.002c-10.548-2.876-21.016-6.473-31.113-10.691l6.053-14.493c9.474,3.957,19.296,7.332,29.191,10.031L188.466,503.002
		z M349.907,494.216l-5.765-14.61c9.533-3.761,18.923-8.186,27.911-13.155l7.598,13.746
		C370.073,485.492,360.066,490.208,349.907,494.216z M142.372,485.475c-9.786-4.853-19.361-10.397-28.459-16.476l8.727-13.059
		c8.539,5.707,17.526,10.91,26.71,15.465L142.372,485.475z M100.534,459.424c-8.675-6.638-17.01-13.905-24.774-21.601l11.056-11.155
		c7.291,7.226,15.118,14.05,23.263,20.282L100.534,459.424z M64.458,425.884c-7.257-8.175-14.053-16.894-20.202-25.917l12.98-8.844
		c5.773,8.472,12.153,16.659,18.966,24.335L64.458,425.884z M35.444,386.097c-5.564-9.412-10.567-19.27-14.867-29.297l14.436-6.189
		c4.034,9.409,8.728,18.659,13.95,27.494L35.444,386.097z M480.621,378.875l-13.773-7.55c4.936-9.004,9.329-18.41,13.058-27.958
		l14.631,5.714C490.561,359.258,485.879,369.282,480.621,378.875z M14.597,341.508c-3.649-10.3-6.661-20.944-8.953-31.634
		l15.359-3.291c2.149,10.03,4.975,20.015,8.399,29.68L14.597,341.508z M500.022,333.57l-14.97-4.755
		c3.104-9.77,5.601-19.847,7.421-29.951l15.457,2.784C505.991,312.417,503.329,323.157,500.022,333.57z M2.719,293.692
		c-1.592-10.781-2.504-21.799-2.711-32.751l15.704-0.296c0.195,10.285,1.05,20.632,2.545,30.753L2.719,293.692z M510.322,285.374
		l-15.604-1.785c1.04-9.095,1.568-18.383,1.568-27.605c-0.001-1.075-0.008-2.158-0.022-3.238l15.704-0.202
		c0.016,1.142,0.022,2.287,0.023,3.432C511.992,265.799,511.43,275.688,510.322,285.374z M15.904,245.201l-15.692-0.692
		c0.484-10.939,1.674-21.931,3.54-32.672l15.475,2.688C17.475,224.608,16.358,234.928,15.904,245.201z M495.572,237.322
		c-0.786-10.247-2.243-20.524-4.328-30.546l15.378-3.2c2.222,10.678,3.774,21.628,4.61,32.544L495.572,237.322z M22.362,199.416
		l-15.269-3.683c2.563-10.629,5.851-21.201,9.769-31.417l14.666,5.625C27.852,179.527,24.767,189.444,22.362,199.416z
		 M487.614,191.778c-2.73-9.876-6.137-19.679-10.128-29.135l14.471-6.106c4.253,10.079,7.884,20.527,10.795,31.056L487.614,191.778z
		 M37.527,155.7l-14.271-6.562c4.564-9.925,9.825-19.659,15.637-28.931l13.308,8.341C46.748,137.25,41.81,146.386,37.527,155.7z
		 M471.041,148.643c-4.579-9.158-9.806-18.119-15.538-26.636l13.031-8.768c6.106,9.074,11.674,18.623,16.555,28.381L471.041,148.643
		z M60.821,115.73l-12.747-9.178c6.384-8.866,13.406-17.409,20.872-25.393l11.473,10.728
		C73.407,99.384,66.814,107.406,60.821,115.73z M446.483,109.488c-6.256-8.123-13.103-15.927-20.351-23.195l11.121-11.091
		c7.718,7.739,15.01,16.05,21.674,24.702L446.483,109.488z M91.318,80.952L80.553,69.515c7.958-7.489,16.476-14.537,25.32-20.948
		l9.22,12.717C106.787,67.303,98.789,73.921,91.318,80.952z M414.886,75.713c-7.699-6.793-15.91-13.15-24.403-18.898l8.802-13.008
		c9.047,6.122,17.79,12.894,25.991,20.127L414.886,75.713z M127.864,52.634l-8.385-13.281c9.244-5.837,18.951-11.125,28.85-15.719
		l6.611,14.247C145.651,42.192,136.541,47.156,127.864,52.634z M377.42,48.574c-8.859-5.199-18.136-9.867-27.571-13.874
		l6.141-14.456c10.054,4.271,19.938,9.245,29.379,14.784L377.42,48.574z M169.121,31.85l-5.679-14.644
		c10.191-3.952,20.743-7.276,31.359-9.879l3.74,15.254C188.581,25.022,178.682,28.141,169.121,31.85z M335.436,29.121
		c-9.681-3.392-19.685-6.182-29.733-8.296l3.233-15.37c10.71,2.252,21.372,5.228,31.692,8.843L335.436,29.121z M213.638,19.391
		l-2.749-15.465c10.731-1.907,21.719-3.139,32.66-3.663l0.751,15.689C234.026,16.445,223.71,17.602,213.638,19.391z M290.507,18.137
		c-10.122-1.457-20.473-2.274-30.763-2.432L259.986,0c10.955,0.169,21.975,1.04,32.756,2.591L290.507,18.137z"/>
	<path style="fill:#1D1D1B;" d="M467.211,400.673c1.563-2.277,3.088-4.577,4.563-6.883l-13.23-8.466
		c-1.852,2.894-3.792,5.774-5.785,8.613c-4.036-1.109-8.279-1.713-12.664-1.713c-26.4,0-47.88,21.479-47.88,47.88
		c0,4.384,0.604,8.626,1.713,12.663c-2.838,1.993-5.72,3.934-8.618,5.788l8.465,13.231c2.309-1.477,4.61-3.003,6.888-4.566
		c8.644,12.531,23.092,20.764,39.432,20.764c26.4,0,47.88-21.478,47.88-47.88C487.975,423.764,479.742,409.316,467.211,400.673z
		 M440.097,472.277c-17.74,0-32.173-14.432-32.173-32.173s14.432-32.173,32.173-32.173c17.741,0,32.173,14.433,32.173,32.173
		S457.837,472.277,440.097,472.277z"/>
	<path style="fill:#1D1D1B;" d="M255.976,80.021c-97.026,0-175.964,78.936-175.964,175.963s78.937,175.963,175.964,175.963
		S431.94,353.01,431.94,255.984S353.003,80.021,255.976,80.021z M402.932,192.094h-9.012l-43.77-21.884l9.829,68.797l-12.685,31.712
		l-11.915-2.979l8.502-8.503v-36.24l-10.055-40.223l-53.683,10.736v40.333l-24.168,6.042l-24.168-6.042v-26.041h32.021v-49.733
		l-3.152-6.304h24.974l8.767-26.3l29.111-14.556l-0.147-0.293C358.825,127.115,387.266,156.2,402.932,192.094z M202.685,104.848
		l-15.604,31.21h-6.955l-10.16-15.239C180.151,114.316,191.117,108.94,202.685,104.848z M99.337,289.873l31.914,5.319l12.805,19.207
		v28.676l-5.471,21.879C119.352,344.249,105.518,318.471,99.337,289.873z M255.824,416.239v-17.127l-9.726-38.907h-31.714
		l-6.213-31.07l13.35-26.702l19.72-6.574h44.904l29.222,14.612l20.257,20.257l-8.006,48.031l13.152,13.152
		c-24.611,15.408-53.677,24.331-84.793,24.331C255.925,416.241,255.875,416.239,255.824,416.239z M353.856,382.784l-9.418-9.418
		l8.006-48.031l-27.774-27.774l-34.818-17.409h-51.159l-28.311,9.436l-18.67,37.342l9.796,48.981h32.328l6.283,25.135v14.411
		c-33.609-3.316-64.198-17.058-88.483-37.938l8.128-32.509v-35.366l-19.218-28.824l-43.863-7.31
		c-0.629-5.757-0.962-11.602-0.962-17.523c0-51.112,24.053-96.711,61.432-126.075l14.57,21.855h25.066l26.186-52.373l-0.333-0.166
		c10.757-2.285,21.906-3.497,33.335-3.497c16.738,0,32.883,2.584,48.062,7.366l-22.462,11.232l-7.244,21.731h-39.069l12.859,25.718
		v30.319h-32.021v54.011l39.874,9.968l39.874-9.968v-39.721l26.37-5.274l5.955,23.818v27.801l-23.518,23.518l52.128,13.031
		l19.336-48.34l-6.182-43.278l20.273,10.137h18.616c4.806,15.214,7.405,31.4,7.405,48.183
		C416.234,307.522,391.771,353.449,353.856,382.784z"/>
</g>
</svg>