<svg width="24" height="24" viewBox="0 0 24 24" fill="none" xmlns="http://www.w3.org/2000/svg">
<path fill-rule="evenodd" clip-rule="evenodd" d="M10.2146 4.401C9.12927 4.94567 8.20155 5.97737 7.78251 7.69127C7.69383 8.05394 7.39692 8.34008 7.02327 8.40928C4.62163 8.85407 3.56833 10.7258 3.77558 12.3814C3.87976 13.2137 4.30232 14.0102 5.06802 14.5846C5.83404 15.1593 6.99419 15.5479 8.62324 15.4566C9.75301 15.3933 12.2365 15.4257 14.3657 15.4534C15.3919 15.4668 16.3358 15.4791 17.0061 15.4791H17.0283L17.0504 15.4804C18.2457 15.5512 19.021 15.2555 19.4948 14.8634C19.9696 14.4706 20.2138 13.9226 20.2463 13.3432C20.3131 12.1499 19.503 10.9837 18.1157 10.9169C17.4636 10.8855 17.0272 10.2245 17.247 9.61433C17.7548 8.20521 17.5174 7.01289 16.8872 6.08547C16.2409 5.13434 15.1477 4.41806 13.8997 4.09171C12.6539 3.76595 11.3203 3.84617 10.2146 4.401ZM18.8475 9.50417C19.2541 7.88634 18.9268 6.41819 18.1278 5.24239C17.2442 3.94207 15.8165 3.04252 14.2792 2.64051C12.7396 2.2379 11.0236 2.31677 9.54187 3.06034C8.11926 3.77423 6.96993 5.07328 6.41305 7.00564C3.46322 7.70902 1.9913 10.204 2.2872 12.5677C2.44012 13.7894 3.06543 14.9574 4.16784 15.7845C5.26994 16.6113 6.79814 17.0612 8.70717 16.9542C9.78647 16.8938 12.1442 16.9247 14.2391 16.9523C15.2831 16.966 16.2617 16.9788 16.9844 16.9791C18.4572 17.062 19.6257 16.7021 20.4511 16.0191C21.2797 15.3334 21.6906 14.3801 21.7439 13.4271C21.8385 11.7376 20.7918 9.92469 18.8475 9.50417Z" fill="black"/>
<path fill-rule="evenodd" clip-rule="evenodd" d="M8.67077 17.8958C9.03032 18.1015 9.15506 18.5597 8.94939 18.9192L7.83912 20.8602C7.63345 21.2197 7.17525 21.3444 6.81571 21.1388C6.45616 20.9331 6.33142 20.4749 6.53709 20.1154L7.64736 18.1744C7.85303 17.8149 8.31122 17.6901 8.67077 17.8958Z" fill="black"/>
<path fill-rule="evenodd" clip-rule="evenodd" d="M14.2709 17.9959C14.6304 18.2016 14.7552 18.6598 14.5495 19.0193L13.4392 20.9603C13.2335 21.3198 12.7753 21.4445 12.4158 21.2389C12.0563 21.0332 11.9315 20.575 12.1372 20.2155L13.2475 18.2745C13.4531 17.915 13.9113 17.7902 14.2709 17.9959Z" fill="black"/>
<path fill-rule="evenodd" clip-rule="evenodd" d="M10.8896 19.1536C11.251 19.356 11.3799 19.813 11.1775 20.1744L10.6311 21.1499C10.4287 21.5113 9.97169 21.6402 9.6103 21.4378C9.2489 21.2354 9.12001 20.7783 9.32241 20.4169L9.86872 19.4414C10.0711 19.0801 10.5282 18.9512 10.8896 19.1536Z" fill="black"/>
<path fill-rule="evenodd" clip-rule="evenodd" d="M16.7659 19.2736C17.1273 19.476 17.2562 19.933 17.0538 20.2944L16.5075 21.2699C16.3051 21.6313 15.848 21.7602 15.4866 21.5578C15.1252 21.3554 14.9964 20.8983 15.1988 20.5369L15.7451 19.5614C15.9475 19.2 16.4045 19.0712 16.7659 19.2736Z" fill="black"/>
</svg>
