<svg width="24" height="24" viewBox="0 0 24 24" fill="none" xmlns="http://www.w3.org/2000/svg">
<path fill-rule="evenodd" clip-rule="evenodd" d="M5.01569 1.29192C5.40676 1.15541 5.83445 1.36177 5.97097 1.75284L6.30035 2.69642C6.43686 3.0875 6.2305 3.51519 5.83943 3.6517C5.44836 3.78822 5.02067 3.58186 4.88416 3.19078L4.55477 2.2472C4.41826 1.85613 4.62462 1.42844 5.01569 1.29192ZM9.74816 1.54372C10.1276 1.70995 10.3004 2.15227 10.1341 2.53166L9.75618 3.3943C9.58996 3.7737 9.14764 3.9465 8.76824 3.78027C8.38885 3.61405 8.21604 3.17173 8.38227 2.79233L8.76022 1.9297C8.92645 1.5503 9.36877 1.3775 9.74816 1.54372ZM8.59507 5.94136C8.05594 5.34876 7.23507 5.12981 6.48429 5.42114C5.4603 5.81849 4.88908 7.05096 5.28961 8.19837C5.37267 8.4363 5.48967 8.64682 5.6309 8.82742C5.88607 9.1537 5.82842 9.62506 5.50214 9.88023C5.17585 10.1354 4.70449 10.0777 4.44932 9.75146C4.20674 9.44127 4.01055 9.08556 3.87342 8.69273C3.22446 6.83366 4.1141 4.7319 5.94165 4.02273C7.30811 3.4925 8.77586 3.91109 9.7046 4.93194C9.98335 5.23832 9.96094 5.71267 9.65455 5.99141C9.34816 6.27016 8.87381 6.24775 8.59507 5.94136ZM1.54444 4.7072C1.72582 4.3348 2.17473 4.17995 2.54713 4.36132L3.36531 4.75981C3.7377 4.94118 3.89256 5.39009 3.71119 5.76249C3.52982 6.13488 3.0809 6.28974 2.70851 6.10837L1.89032 5.70988C1.51793 5.52851 1.36307 5.07959 1.54444 4.7072ZM3.55969 8.84201C3.70954 9.22817 3.51797 9.66269 3.13181 9.81253L2.27128 10.1464C1.88512 10.2963 1.4506 10.1047 1.30075 9.71856C1.15091 9.3324 1.34248 8.89789 1.72864 8.74804L2.58917 8.41412C2.97533 8.26428 3.40985 8.45585 3.55969 8.84201Z" fill="black"/>
<path fill-rule="evenodd" clip-rule="evenodd" d="M12.0141 7.13309C11.0377 7.61417 10.2044 8.52252 9.825 10.034C9.73442 10.3949 9.43776 10.6785 9.06553 10.747C6.89353 11.1465 5.96813 12.8013 6.15288 14.2378C6.24609 14.9624 6.62152 15.6598 7.30863 16.1655C7.99693 16.672 9.04639 17.0196 10.5294 16.938C11.5663 16.8809 13.8461 16.9101 15.798 16.9351C16.7374 16.9471 17.6008 16.9581 18.2132 16.9581H18.235L18.2568 16.9594C19.3405 17.0224 20.0355 16.7594 20.4552 16.4199C20.8744 16.0809 21.0887 15.6107 21.119 15.1142C21.1815 14.0907 20.4794 13.0726 19.2488 13.0037C18.5982 12.9672 18.1673 12.3068 18.3861 11.6993C18.8306 10.4647 18.6134 9.42594 18.0479 8.61555C17.4651 7.78046 16.4787 7.14604 15.3466 6.857C14.2171 6.5686 13.0112 6.64182 12.0141 7.13309ZM19.9804 11.5979C20.3303 10.1406 20.0175 8.81679 19.278 7.75714C18.4539 6.57622 17.1328 5.76494 15.7177 5.40363C14.3001 5.04168 12.7193 5.11345 11.3512 5.78755C10.0426 6.43229 8.9812 7.60359 8.45987 9.34253C5.75525 9.99314 4.38611 12.2597 4.66514 14.4291C4.80946 15.5512 5.39509 16.6196 6.41954 17.3736C7.44279 18.1266 8.85539 18.5324 10.6119 18.4357C11.5992 18.3814 13.7554 18.4092 15.6737 18.4339C16.6305 18.4463 17.5281 18.4579 18.192 18.4581C19.5457 18.5327 20.6282 18.2093 21.3985 17.5862C22.1736 16.9593 22.5626 16.0842 22.6162 15.2057C22.7108 13.6583 21.7512 12.0112 19.9804 11.5979Z" fill="black"/>
<path fill-rule="evenodd" clip-rule="evenodd" d="M10.6708 19.1049C11.0303 19.3106 11.1551 19.7688 10.9494 20.1283L9.83912 22.0693C9.63345 22.4288 9.17525 22.5536 8.81571 22.3479C8.45616 22.1422 8.33142 21.684 8.53709 21.3245L9.64736 19.3835C9.85303 19.024 10.3112 18.8992 10.6708 19.1049Z" fill="black"/>
<path fill-rule="evenodd" clip-rule="evenodd" d="M16.2707 19.205C16.6303 19.4107 16.755 19.8689 16.5494 20.2284L15.4391 22.1694C15.2334 22.5289 14.7752 22.6536 14.4157 22.448C14.0561 22.2423 13.9314 21.7841 14.1371 21.4246L15.2473 19.4836C15.453 19.1241 15.9112 18.9993 16.2707 19.205Z" fill="black"/>
<path fill-rule="evenodd" clip-rule="evenodd" d="M12.8896 20.358C13.251 20.5604 13.3799 21.0174 13.1775 21.3788L12.6311 22.3543C12.4287 22.7157 11.9717 22.8446 11.6103 22.6422C11.2489 22.4398 11.12 21.9827 11.3224 21.6213L11.8687 20.6459C12.0711 20.2845 12.5282 20.1556 12.8896 20.358Z" fill="black"/>
<path fill-rule="evenodd" clip-rule="evenodd" d="M18.7659 20.469C19.1273 20.6714 19.2562 21.1285 19.0538 21.4899L18.5075 22.4654C18.3051 22.8268 17.848 22.9557 17.4866 22.7533C17.1252 22.5509 16.9964 22.0938 17.1988 21.7324L17.7451 20.7569C17.9475 20.3955 18.4045 20.2666 18.7659 20.469Z" fill="black"/>
</svg>
