<svg width="24" height="24" viewBox="0 0 24 24" fill="none" xmlns="http://www.w3.org/2000/svg">
<path fill-rule="evenodd" clip-rule="evenodd" d="M4.89308 13.366C6.8 11.4625 9.38604 10.3934 12.0822 10.3934C14.7784 10.3934 17.3645 11.4625 19.2714 13.366C21.1784 15.2695 22.2499 17.8515 22.2499 20.5441C22.2499 20.9583 21.9142 21.2941 21.4999 21.2941C21.0857 21.2941 20.7499 20.9583 20.7499 20.5441C20.7499 18.2502 19.8371 16.0501 18.2117 14.4276C16.5863 12.8052 14.3815 11.8934 12.0822 11.8934C9.78299 11.8934 7.57819 12.8052 5.95278 14.4276C4.32742 16.0501 3.41455 18.2502 3.41455 20.5441C3.41455 20.9583 3.07876 21.2941 2.66455 21.2941C2.25034 21.2941 1.91455 20.9583 1.91455 20.5441C1.91455 17.8515 2.98612 15.2695 4.89308 13.366Z" fill="black"/>
<path fill-rule="evenodd" clip-rule="evenodd" d="M7.55682 16.0249C8.75727 14.8266 10.3851 14.1536 12.0823 14.1536C13.7794 14.1536 15.4072 14.8266 16.6077 16.0249C17.8082 17.2232 18.4829 18.8488 18.4829 20.544C18.4829 20.9582 18.1471 21.294 17.7329 21.294C17.3187 21.294 16.9829 20.9582 16.9829 20.544C16.9829 19.2475 16.4669 18.0037 15.548 17.0865C14.6291 16.1692 13.3824 15.6536 12.0823 15.6536C10.7821 15.6536 9.53546 16.1692 8.61652 17.0865C7.69762 18.0037 7.18164 19.2475 7.18164 20.544C7.18164 20.9582 6.84585 21.294 6.43164 21.294C6.01743 21.294 5.68164 20.9582 5.68164 20.544C5.68164 18.8488 6.35632 17.2232 7.55682 16.0249Z" fill="black"/>
<path fill-rule="evenodd" clip-rule="evenodd" d="M10.2204 18.6838C10.7144 18.1907 11.3841 17.9139 12.0821 17.9139C12.7802 17.9139 13.4499 18.1907 13.9439 18.6838C14.4379 19.177 14.7157 19.8461 14.7157 20.5441C14.7157 20.9583 14.3799 21.2941 13.9657 21.2941C13.5515 21.2941 13.2157 20.9583 13.2157 20.5441C13.2157 20.2448 13.0966 19.9575 12.8842 19.7454C12.6717 19.5333 12.3832 19.4139 12.0821 19.4139C11.7811 19.4139 11.4926 19.5333 11.2801 19.7454C11.0677 19.9575 10.9486 20.2448 10.9486 20.5441C10.9486 20.9583 10.6128 21.2941 10.1986 21.2941C9.78439 21.2941 9.44861 20.9583 9.44861 20.5441C9.44861 19.8461 9.7264 19.177 10.2204 18.6838Z" fill="black"/>
<path fill-rule="evenodd" clip-rule="evenodd" d="M9.31819 3.28039C9.73159 3.30915 10.0431 3.66727 10.0139 4.08027L9.93623 5.1796C9.90706 5.5926 9.54828 5.90408 9.13488 5.87532C8.72148 5.84656 8.41 5.48844 8.43918 5.07544L8.51684 3.97611C8.54601 3.56311 8.90479 3.25163 9.31819 3.28039ZM14.1175 5.72428C14.3906 6.03535 14.3595 6.50898 14.0478 6.78217L13.2642 7.46915C12.9525 7.74234 12.4784 7.71164 12.2052 7.40057C11.932 7.0895 11.9632 6.61587 12.2749 6.34268L13.0585 5.6557C13.3702 5.38251 13.8443 5.41322 14.1175 5.72428ZM11.0954 9.54151C10.7832 8.66075 9.97618 8.01151 8.99177 7.94739C7.66312 7.86084 6.50197 8.87351 6.40708 10.2168C6.38711 10.4994 6.41587 10.7721 6.48537 11.0275C6.59402 11.427 6.35789 11.839 5.95795 11.9479C5.55802 12.0569 5.14573 11.8213 5.03708 11.4219C4.92397 11.0061 4.87807 10.565 4.91002 10.1127C5.06257 7.95322 6.93042 6.31061 9.09081 6.45134C10.697 6.55597 12.0058 7.61714 12.5101 9.03985C12.6485 9.42999 12.4439 9.85855 12.0532 9.99708C11.6625 10.1356 11.2337 9.93164 11.0954 9.54151ZM4.21702 5.07701C4.53008 4.80544 5.004 4.8386 5.27557 5.15108L5.95545 5.93339C6.22701 6.24587 6.19337 6.71934 5.88032 6.99091C5.56726 7.26249 5.09334 7.22933 4.82177 6.91685L4.1419 6.13453C3.87033 5.82205 3.90397 5.34859 4.21702 5.07701ZM4.30154 10.0763C4.2742 10.4894 3.9168 10.8025 3.50327 10.7755L2.45036 10.707C2.03684 10.68 1.72378 10.3233 1.75113 9.91015C1.77848 9.49703 2.13587 9.18397 2.5494 9.2109L3.60231 9.27949C4.01583 9.30643 4.32889 9.66317 4.30154 10.0763Z" fill="black"/>
</svg>
