<svg width="24" height="24" viewBox="0 0 24 24" fill="none" xmlns="http://www.w3.org/2000/svg">
<g clip-path="url(#clip0_511_51365)">
<path fill-rule="evenodd" clip-rule="evenodd" d="M12.564 7.68332C11.5875 8.1644 10.7542 9.07275 10.3748 10.5842C10.2842 10.9451 9.98756 11.2287 9.61534 11.2972C7.44333 11.6967 6.51793 13.3515 6.70269 14.788C6.79589 15.5126 7.17132 16.21 7.85843 16.7157C8.54674 17.2222 9.5962 17.5698 11.0792 17.4882C12.1161 17.4311 14.3959 17.4603 16.3478 17.4853C17.2872 17.4973 18.1506 17.5084 18.763 17.5084H18.7848L18.8066 17.5096C19.8903 17.5727 20.5854 17.3096 21.005 16.9702C21.4242 16.6311 21.6385 16.161 21.6688 15.6644C21.7314 14.641 21.0292 13.6228 19.7986 13.5539C19.148 13.5175 18.7171 12.8571 18.9359 12.2495C19.3804 11.0149 19.1632 9.97618 18.5977 9.16579C18.0149 8.33069 17.0285 7.69627 15.8964 7.40723C14.7669 7.11884 13.561 7.19205 12.564 7.68332ZM20.5302 12.1481C20.8801 10.6909 20.5673 9.36702 19.8278 8.30737C19.0037 7.12645 17.6826 6.31517 16.2675 5.95386C14.8499 5.59191 13.2691 5.66369 11.901 6.33778C10.5924 6.98252 9.53101 8.15382 9.00968 9.89276C6.30505 10.5434 4.93592 12.81 5.21494 14.9793C5.35926 16.1014 5.94489 17.1699 6.96935 17.9238C7.9926 18.6768 9.4052 19.0826 11.1617 18.9859C12.149 18.9316 14.3052 18.9594 16.2235 18.9842C17.1803 18.9965 18.0779 19.0081 18.7418 19.0084C20.0955 19.0829 21.178 18.7595 21.9483 18.1364C22.7234 17.5096 23.1124 16.6344 23.166 15.7559C23.2606 14.2086 22.301 12.5614 20.5302 12.1481Z" fill="black"/>
<path fill-rule="evenodd" clip-rule="evenodd" d="M6.51622 1.08769C6.02537 1.54773 6.18405 2.19928 6.33771 2.55099L6.33822 2.55216C6.52772 2.98389 6.63157 3.456 6.62771 3.95583L6.62769 3.95851C6.62 5.80978 5.06757 7.40927 3.15702 7.48716C2.87366 7.49893 2.60323 7.47936 2.34121 7.43259L2.34361 7.43302C2.11986 7.39232 1.8764 7.38021 1.64081 7.43497C1.39909 7.49116 1.12536 7.63046 0.951014 7.91483C0.777368 8.19806 0.776952 8.5035 0.833744 8.74168C0.889209 8.9743 1.00624 9.18497 1.14011 9.36589C1.74539 10.191 2.57566 10.8445 3.54077 11.2432C3.9236 11.4014 4.36216 11.2192 4.52031 10.8364C4.67846 10.4536 4.49632 10.015 4.11349 9.85684C3.61514 9.65097 3.16682 9.3534 2.79095 8.98653C2.93149 8.99201 3.07381 8.99189 3.21812 8.98592C5.90637 8.87632 8.11582 6.64224 8.12767 3.96607C8.13112 3.50307 8.07001 3.05579 7.95351 2.63089C8.89498 3.21115 9.57983 4.14429 9.81716 5.23099C9.90554 5.63567 10.3052 5.89208 10.7099 5.8037C11.1146 5.71532 11.371 5.31563 11.2826 4.91095C10.8907 3.1163 9.62391 1.65139 7.95518 0.949954C7.60624 0.802773 6.98172 0.651394 6.51622 1.08769Z" fill="black"/>
<path fill-rule="evenodd" clip-rule="evenodd" d="M11.2206 19.6549C11.5801 19.8606 11.7049 20.3188 11.4992 20.6784L10.3889 22.6193C10.1833 22.9789 9.72506 23.1036 9.36551 22.8979C9.00596 22.6923 8.88122 22.2341 9.08689 21.8745L10.1972 19.9336C10.4028 19.574 10.861 19.4493 11.2206 19.6549Z" fill="black"/>
<path fill-rule="evenodd" clip-rule="evenodd" d="M16.8206 19.755C17.1801 19.9607 17.3048 20.4189 17.0992 20.7785L15.9889 22.7194C15.7832 23.079 15.325 23.2037 14.9655 22.998C14.6059 22.7924 14.4812 22.3342 14.6869 21.9746L15.7971 20.0337C16.0028 19.6741 16.461 19.5494 16.8206 19.755Z" fill="black"/>
<path fill-rule="evenodd" clip-rule="evenodd" d="M13.4394 20.908C13.8008 21.1104 13.9297 21.5675 13.7273 21.9289L13.1809 22.9043C12.9785 23.2657 12.5215 23.3946 12.1601 23.1922C11.7987 22.9898 11.6698 22.5328 11.8722 22.1714L12.4185 21.1959C12.6209 20.8345 13.078 20.7056 13.4394 20.908Z" fill="black"/>
<path fill-rule="evenodd" clip-rule="evenodd" d="M19.3157 21.0192C19.6771 21.2216 19.806 21.6786 19.6036 22.04L19.0573 23.0155C18.8549 23.3769 18.3978 23.5058 18.0364 23.3034C17.675 23.101 17.5462 22.6439 17.7486 22.2825L18.2949 21.307C18.4973 20.9457 18.9543 20.8168 19.3157 21.0192Z" fill="black"/>
</g>
<defs>
<clipPath id="clip0_511_51365">
<rect width="24" height="24" fill="white"/>
</clipPath>
</defs>
</svg>
