<svg width="24" height="24" viewBox="0 0 24 24" fill="none" xmlns="http://www.w3.org/2000/svg">
<path fill-rule="evenodd" clip-rule="evenodd" d="M10.2148 4.0509C9.12939 4.59557 8.20167 5.62727 7.78263 7.34117C7.69396 7.70384 7.39704 7.98998 7.0234 8.05918C4.62175 8.50398 3.56845 10.3757 3.7757 12.0313C3.87988 12.8636 4.30244 13.6601 5.06814 14.2345C5.83416 14.8092 6.99432 15.1978 8.62337 15.1065C9.75313 15.0432 12.2366 15.0756 14.3658 15.1033C15.392 15.1167 16.3359 15.129 17.0062 15.129H17.0284L17.0505 15.1303C18.2458 15.2011 19.0211 14.9054 19.4949 14.5133C19.9697 14.1205 20.214 13.5725 20.2464 12.9931C20.3132 11.7998 19.5032 10.6336 18.1159 10.5668C17.4638 10.5354 17.0273 9.87438 17.2472 9.26423C17.7549 7.85512 17.5175 6.66279 16.8873 5.73537C16.241 4.78425 15.1478 4.06797 13.8998 3.74161C12.6541 3.41585 11.3204 3.49607 10.2148 4.0509ZM18.8476 9.15407C19.2542 7.53624 18.927 6.06809 18.128 4.89229C17.2443 3.59198 15.8166 2.69243 14.2793 2.29041C12.7397 1.88781 11.0237 1.96667 9.54199 2.71024C8.11938 3.42414 6.97005 4.72318 6.41317 6.65554C3.46334 7.35892 1.99142 9.85388 2.28732 12.2176C2.44024 13.4393 3.06555 14.6073 4.16796 15.4344C5.27006 16.2612 6.79826 16.7111 8.70729 16.6041C9.7866 16.5437 12.1443 16.5746 14.2392 16.6022C15.2832 16.6159 16.2619 16.6287 16.9845 16.629C18.4573 16.7119 19.6258 16.352 20.4512 15.669C21.2798 14.9833 21.6907 14.03 21.7441 13.077C21.8386 11.3875 20.7919 9.57459 18.8476 9.15407Z" fill="black"/>
<path fill-rule="evenodd" clip-rule="evenodd" d="M14.2002 20.6C14.2002 20.0477 14.6479 19.6 15.2002 19.6H15.2102C15.7625 19.6 16.2102 20.0477 16.2102 20.6C16.2102 21.1523 15.7625 21.6 15.2102 21.6H15.2002C14.6479 21.6 14.2002 21.1523 14.2002 20.6Z" fill="black"/>
<path fill-rule="evenodd" clip-rule="evenodd" d="M11.5 18.4C11.5 17.8477 11.9477 17.4 12.5 17.4H12.51C13.0623 17.4 13.51 17.8477 13.51 18.4C13.51 18.9523 13.0623 19.4 12.51 19.4H12.5C11.9477 19.4 11.5 18.9523 11.5 18.4Z" fill="black"/>
<path fill-rule="evenodd" clip-rule="evenodd" d="M5.5 18.4C5.5 17.8477 5.94772 17.4 6.5 17.4H6.51C7.06228 17.4 7.51 17.8477 7.51 18.4C7.51 18.9523 7.06228 19.4 6.51 19.4H6.5C5.94772 19.4 5.5 18.9523 5.5 18.4Z" fill="black"/>
<path fill-rule="evenodd" clip-rule="evenodd" d="M10.3708 18.5959C10.7304 18.8015 10.8551 19.2597 10.6495 19.6193L9.53919 21.5602C9.33352 21.9198 8.87532 22.0445 8.51578 21.8388C8.15623 21.6332 8.03149 21.175 8.23716 20.8154L9.34743 18.8745C9.5531 18.5149 10.0113 18.3902 10.3708 18.5959Z" fill="black"/>
<path fill-rule="evenodd" clip-rule="evenodd" d="M19.071 17.0959C19.4306 17.3015 19.5553 17.7597 19.3497 18.1193L18.2394 20.0602C18.0337 20.4198 17.5755 20.5445 17.216 20.3388C16.8564 20.1332 16.7317 19.675 16.9374 19.3154L18.0476 17.3745C18.2533 17.0149 18.7115 16.8902 19.071 17.0959Z" fill="black"/>
</svg>
