<svg width="24" height="24" viewBox="0 0 24 24" fill="none" xmlns="http://www.w3.org/2000/svg">
<path fill-rule="evenodd" clip-rule="evenodd" d="M12.014 7.13309C11.0376 7.61417 10.2043 8.52252 9.82488 10.034C9.7343 10.3949 9.43763 10.6785 9.06541 10.747C6.8934 11.1465 5.96801 12.8013 6.15276 14.2378C6.24596 14.9624 6.6214 15.6598 7.3085 16.1655C7.99681 16.672 9.04627 17.0196 10.5293 16.938C11.5662 16.8809 13.846 16.9101 15.7979 16.9351C16.7372 16.9471 17.6007 16.9581 18.2131 16.9581H18.2349L18.2567 16.9594C19.3403 17.0224 20.0354 16.7594 20.4551 16.4199C20.8743 16.0809 21.0886 15.6107 21.1189 15.1142C21.1814 14.0907 20.4793 13.0726 19.2487 13.0037C18.5981 12.9672 18.1672 12.3068 18.386 11.6993C18.8305 10.4647 18.6133 9.42594 18.0478 8.61555C17.465 7.78046 16.4785 7.14604 15.3465 6.857C14.217 6.5686 13.0111 6.64182 12.014 7.13309ZM19.9802 11.5979C20.3302 10.1406 20.0173 8.81679 19.2779 7.75714C18.4538 6.57622 17.1327 5.76494 15.7176 5.40363C14.3 5.04168 12.7192 5.11345 11.3511 5.78755C10.0425 6.43229 8.98108 7.60359 8.45975 9.34253C5.75512 9.99314 4.38599 12.2597 4.66501 14.4291C4.80933 15.5512 5.39497 16.6196 6.41942 17.3736C7.44267 18.1266 8.85527 18.5324 10.6117 18.4357C11.599 18.3814 13.7553 18.4092 15.6736 18.4339C16.6304 18.4463 17.528 18.4579 18.1918 18.4581C19.5456 18.5327 20.6281 18.2093 21.3984 17.5862C22.1734 16.9593 22.5624 16.0842 22.6161 15.2057C22.7106 13.6583 21.7511 12.0112 19.9802 11.5979Z" fill="black"/>
<path fill-rule="evenodd" clip-rule="evenodd" d="M13.366 19.969C13.7274 20.1714 13.8563 20.6285 13.6539 20.9899L13.1076 21.9654C12.9052 22.3268 12.4481 22.4557 12.0867 22.2533C11.7253 22.0509 11.5964 21.5938 11.7988 21.2324L12.3452 20.2569C12.5476 19.8955 13.0046 19.7666 13.366 19.969Z" fill="black"/>
<path fill-rule="evenodd" clip-rule="evenodd" d="M19.6658 19.969C20.0272 20.1714 20.1561 20.6285 19.9537 20.9899L19.4074 21.9654C19.205 22.3268 18.7479 22.4557 18.3865 22.2533C18.0251 22.0509 17.8963 21.5938 18.0987 21.2324L18.645 20.2569C18.8474 19.8955 19.3044 19.7666 19.6658 19.969Z" fill="black"/>
<path fill-rule="evenodd" clip-rule="evenodd" d="M8.3999 20.5C8.3999 19.9477 8.84762 19.5 9.3999 19.5H9.4099C9.96219 19.5 10.4099 19.9477 10.4099 20.5C10.4099 21.0523 9.96219 21.5 9.4099 21.5H9.3999C8.84762 21.5 8.3999 21.0523 8.3999 20.5Z" fill="black"/>
<path fill-rule="evenodd" clip-rule="evenodd" d="M14.8 22C14.8 21.4477 15.2478 21 15.8 21H15.81C16.3623 21 16.81 21.4477 16.81 22C16.81 22.5523 16.3623 23 15.81 23H15.8C15.2478 23 14.8 22.5523 14.8 22Z" fill="black"/>
<path fill-rule="evenodd" clip-rule="evenodd" d="M5.01569 1.29192C5.40676 1.15541 5.83445 1.36177 5.97097 1.75284L6.30035 2.69642C6.43686 3.0875 6.2305 3.51519 5.83943 3.6517C5.44836 3.78822 5.02067 3.58186 4.88416 3.19078L4.55477 2.2472C4.41826 1.85613 4.62462 1.42844 5.01569 1.29192ZM9.74816 1.54372C10.1276 1.70995 10.3004 2.15227 10.1341 2.53166L9.75618 3.3943C9.58996 3.7737 9.14764 3.9465 8.76824 3.78027C8.38885 3.61405 8.21604 3.17173 8.38227 2.79233L8.76022 1.9297C8.92645 1.5503 9.36877 1.3775 9.74816 1.54372ZM8.59507 5.94136C8.05594 5.34876 7.23507 5.12981 6.48429 5.42114C5.4603 5.81849 4.88908 7.05096 5.28961 8.19837C5.37267 8.4363 5.48967 8.64682 5.6309 8.82742C5.88607 9.1537 5.82842 9.62506 5.50214 9.88023C5.17585 10.1354 4.70449 10.0777 4.44932 9.75146C4.20674 9.44127 4.01055 9.08556 3.87342 8.69273C3.22446 6.83366 4.1141 4.7319 5.94165 4.02273C7.30811 3.4925 8.77586 3.91109 9.7046 4.93194C9.98335 5.23832 9.96094 5.71267 9.65455 5.99141C9.34816 6.27016 8.87381 6.24775 8.59507 5.94136ZM1.54444 4.7072C1.72582 4.3348 2.17473 4.17995 2.54713 4.36132L3.36531 4.75981C3.7377 4.94118 3.89256 5.39009 3.71119 5.76249C3.52982 6.13488 3.0809 6.28974 2.70851 6.10837L1.89032 5.70988C1.51793 5.52851 1.36307 5.07959 1.54444 4.7072ZM3.55969 8.84201C3.70954 9.22817 3.51797 9.66269 3.13181 9.81253L2.27128 10.1464C1.88512 10.2963 1.4506 10.1047 1.30075 9.71856C1.15091 9.3324 1.34248 8.89789 1.72864 8.74804L2.58917 8.41412C2.97533 8.26428 3.40985 8.45585 3.55969 8.84201Z" fill="black"/>
</svg>
