<svg width="24" height="24" viewBox="0 0 24 24" fill="none" xmlns="http://www.w3.org/2000/svg">
<g clip-path="url(#clip0_511_51367)">
<path fill-rule="evenodd" clip-rule="evenodd" d="M12.5641 7.68344C11.5877 8.16452 10.7543 9.07287 10.3749 10.5844C10.2843 10.9452 9.98768 11.2288 9.61546 11.2973C7.44345 11.6968 6.51805 13.3517 6.70281 14.7881C6.79601 15.5128 7.17144 16.2102 7.85855 16.7158C8.54686 17.2224 9.59632 17.5699 11.0794 17.4883C12.1162 17.4312 14.396 17.4604 16.348 17.4854C17.2873 17.4974 18.1507 17.5085 18.7632 17.5085H18.7849L18.8067 17.5097C19.8904 17.5728 20.5855 17.3097 21.0052 16.9703C21.4244 16.6312 21.6386 16.1611 21.669 15.6646C21.7315 14.6411 21.0293 13.6229 19.7987 13.554C19.1482 13.5176 18.7173 12.8572 18.936 12.2496C19.3805 11.015 19.1633 9.9763 18.5978 9.16591C18.015 8.33081 17.0286 7.6964 15.8966 7.40736C14.7671 7.11896 13.5612 7.19217 12.5641 7.68344ZM20.5303 12.1483C20.8802 10.691 20.5674 9.36714 19.8279 8.30749C19.0038 7.12657 17.6827 6.31529 16.2677 5.95398C14.8501 5.59203 13.2693 5.66381 11.9011 6.3379C10.5925 6.98265 9.53113 8.15394 9.0098 9.89289C6.30517 10.5435 4.93604 12.8101 5.21506 14.9795C5.35938 16.1015 5.94502 17.17 6.96947 17.9239C7.99272 18.677 9.40532 19.0827 11.1618 18.986C12.1491 18.9317 14.3053 18.9595 16.2237 18.9843C17.1805 18.9966 18.0781 19.0082 18.7419 19.0085C20.0957 19.083 21.1781 18.7596 21.9485 18.1365C22.7235 17.5097 23.1125 16.6345 23.1662 15.756C23.2607 14.2087 22.3011 12.5615 20.5303 12.1483Z" fill="black"/>
<path fill-rule="evenodd" clip-rule="evenodd" d="M6.51622 1.08769C6.02537 1.54773 6.18405 2.19928 6.33771 2.55099L6.33822 2.55216C6.52772 2.98389 6.63157 3.456 6.62771 3.95583L6.62769 3.95851C6.62 5.80978 5.06757 7.40927 3.15702 7.48716C2.87366 7.49893 2.60323 7.47936 2.34121 7.43259L2.34361 7.43302C2.11986 7.39232 1.8764 7.38021 1.64081 7.43497C1.39909 7.49116 1.12536 7.63046 0.951014 7.91483C0.777368 8.19806 0.776952 8.5035 0.833744 8.74168C0.889209 8.9743 1.00624 9.18497 1.14011 9.36589C1.74539 10.191 2.57566 10.8445 3.54077 11.2432C3.9236 11.4014 4.36216 11.2192 4.52031 10.8364C4.67846 10.4536 4.49632 10.015 4.11349 9.85684C3.61514 9.65097 3.16682 9.3534 2.79095 8.98653C2.93149 8.99201 3.07381 8.99189 3.21812 8.98592C5.90637 8.87632 8.11582 6.64224 8.12767 3.96607C8.13112 3.50307 8.07001 3.05579 7.95351 2.63089C8.89498 3.21115 9.57983 4.14429 9.81716 5.23099C9.90554 5.63567 10.3052 5.89208 10.7099 5.8037C11.1146 5.71532 11.371 5.31563 11.2826 4.91095C10.8907 3.1163 9.62391 1.65139 7.95518 0.949954C7.60624 0.802773 6.98172 0.651394 6.51622 1.08769Z" fill="black"/>
<path fill-rule="evenodd" clip-rule="evenodd" d="M13.9158 20.519C14.2772 20.7214 14.4061 21.1785 14.2037 21.5399L13.6574 22.5154C13.455 22.8767 12.9979 23.0056 12.6365 22.8032C12.2751 22.6008 12.1463 22.1438 12.3487 21.7824L12.895 20.8069C13.0974 20.4455 13.5544 20.3166 13.9158 20.519Z" fill="black"/>
<path fill-rule="evenodd" clip-rule="evenodd" d="M20.2159 20.519C20.5773 20.7214 20.7061 21.1785 20.5037 21.5399L19.9574 22.5154C19.755 22.8767 19.298 23.0056 18.9366 22.8032C18.5752 22.6008 18.4463 22.1438 18.6487 21.7824L19.195 20.8069C19.3974 20.4455 19.8545 20.3166 20.2159 20.519Z" fill="black"/>
<path fill-rule="evenodd" clip-rule="evenodd" d="M8.94983 21.05C8.94983 20.4978 9.39754 20.05 9.94983 20.05H9.95983C10.5121 20.05 10.9598 20.4978 10.9598 21.05C10.9598 21.6023 10.5121 22.05 9.95983 22.05H9.94983C9.39754 22.05 8.94983 21.6023 8.94983 21.05Z" fill="black"/>
<path fill-rule="evenodd" clip-rule="evenodd" d="M15.3499 22.55C15.3499 21.9978 15.7976 21.55 16.3499 21.55H16.3599C16.9121 21.55 17.3599 21.9978 17.3599 22.55C17.3599 23.1023 16.9121 23.55 16.3599 23.55H16.3499C15.7976 23.55 15.3499 23.1023 15.3499 22.55Z" fill="black"/>
</g>
<defs>
<clipPath id="clip0_511_51367">
<rect width="24" height="24" fill="white"/>
</clipPath>
</defs>
</svg>
