<svg width="24" height="24" viewBox="0 0 24 24" fill="none" xmlns="http://www.w3.org/2000/svg">
<path fill-rule="evenodd" clip-rule="evenodd" d="M15.0447 20.3671C14.6921 20.2091 14.2908 20.1996 13.9311 20.3406L13.7919 20.3951C13.1187 20.6589 12.3708 20.6589 11.6976 20.3951C11.2934 20.2367 10.838 20.2793 10.4701 20.5099L10.2701 20.6354C9.9192 20.8554 9.45633 20.7493 9.23628 20.3984C9.01622 20.0475 9.12231 19.5846 9.47323 19.3645L9.67325 19.2391C10.4439 18.7559 11.398 18.6666 12.2449 18.9985C12.5662 19.1245 12.9232 19.1245 13.2445 18.9985L13.3837 18.944C14.1183 18.6561 14.9378 18.6756 15.6578 18.9981C15.9592 19.1331 16.2978 19.1603 16.6169 19.0753L17.1667 18.9288C17.5669 18.8221 17.9779 19.0601 18.0845 19.4603C18.1912 19.8606 17.9532 20.2715 17.553 20.3782L17.0031 20.5247C16.3516 20.6984 15.6601 20.6427 15.0447 20.3671Z" fill="black"/>
<path fill-rule="evenodd" clip-rule="evenodd" d="M19.8142 15.1489C19.3508 14.9967 18.8524 14.9874 18.3836 15.1221L17.7929 15.2919C17.0832 15.4959 16.3304 15.4959 15.6207 15.2919L15.2238 15.1778C14.6641 15.017 14.0652 15.0623 13.5361 15.3056L13.1023 15.5051C12.726 15.6781 12.2807 15.5134 12.1076 15.137C11.9345 14.7607 12.0993 14.3153 12.4757 14.1423L12.9094 13.9428C13.7649 13.5494 14.7332 13.4761 15.6382 13.7362L16.0351 13.8503C16.474 13.9764 16.9396 13.9764 17.3785 13.8503L17.9693 13.6805C18.7272 13.4626 19.5331 13.4778 20.2823 13.7238L20.6728 13.8521C21.068 13.9819 21.4899 14.0082 21.8981 13.9284L22.8563 13.7411C23.2628 13.6617 23.6567 13.9268 23.7362 14.3334C23.8156 14.7399 23.5505 15.1338 23.144 15.2133L22.1858 15.4005C21.5258 15.5295 20.8437 15.4871 20.2047 15.2772L19.8142 15.1489Z" fill="black"/>
<path fill-rule="evenodd" clip-rule="evenodd" d="M8.82622 3.25C9.24043 3.25 9.57622 3.58579 9.57622 4L9.57621 5.4804L10.415 4.43441C10.6742 4.11126 11.1462 4.05938 11.4693 4.31852C11.7925 4.57765 11.8444 5.04968 11.5852 5.37283L9.57621 7.87805L9.57621 13.4608L4.94726 16.238L3.88106 19.2503C3.74285 19.6407 3.31426 19.8452 2.92379 19.707C2.53331 19.5688 2.32881 19.1402 2.46702 18.7497L2.92706 17.4501L1.68141 18.1974C1.32621 18.4105 0.865523 18.2953 0.652423 17.9401C0.439322 17.5849 0.55451 17.1242 0.909702 16.9111L2.29273 16.0814L0.867551 15.8254C0.459861 15.7522 0.188719 15.3623 0.261939 14.9546C0.33516 14.547 0.725015 14.2758 1.13271 14.349L4.24769 14.9085L7.36514 13.0381L4.11149 11.0979L1.13271 11.6329C0.725015 11.7061 0.335159 11.435 0.261939 11.0273C0.188719 10.6196 0.45986 10.2297 0.867551 10.1565L2.14739 9.92665L0.973228 9.22646C0.617468 9.01431 0.501048 8.55393 0.713198 8.19817C0.925348 7.84241 1.38573 7.72599 1.74149 7.93814L2.97788 8.67543L2.46702 7.23217C2.32881 6.8417 2.53331 6.41312 2.92379 6.2749C3.31426 6.13669 3.74285 6.34119 3.88106 6.73167L4.99479 9.87817L8.07621 11.7157L8.07621 7.87804L6.0672 5.37283C5.80806 5.04968 5.85995 4.57765 6.18309 4.31852C6.50623 4.05938 6.97826 4.11126 7.2374 4.43441L8.07622 5.4804L8.07622 4C8.07622 3.58579 8.412 3.25 8.82622 3.25Z" fill="black"/>
</svg>
