<svg width="24" height="24" viewBox="0 0 24 24" fill="none" xmlns="http://www.w3.org/2000/svg">
<path fill-rule="evenodd" clip-rule="evenodd" d="M6.59998 18.5C6.59998 17.9477 7.04769 17.5 7.59998 17.5H7.60998C8.16226 17.5 8.60998 17.9477 8.60998 18.5C8.60998 19.0523 8.16226 19.5 7.60998 19.5H7.59998C7.04769 19.5 6.59998 19.0523 6.59998 18.5Z" fill="black"/>
<path fill-rule="evenodd" clip-rule="evenodd" d="M11 18.5C11 17.9477 11.4477 17.5 12 17.5H12.01C12.5623 17.5 13.01 17.9477 13.01 18.5C13.01 19.0523 12.5623 19.5 12.01 19.5H12C11.4477 19.5 11 19.0523 11 18.5Z" fill="black"/>
<path fill-rule="evenodd" clip-rule="evenodd" d="M15.4 18.5C15.4 17.9477 15.8477 17.5 16.4 17.5H16.41C16.9623 17.5 17.41 17.9477 17.41 18.5C17.41 19.0523 16.9623 19.5 16.41 19.5H16.4C15.8477 19.5 15.4 19.0523 15.4 18.5Z" fill="black"/>
<path fill-rule="evenodd" clip-rule="evenodd" d="M13.2 20.7C13.2 20.1477 13.6477 19.7 14.2 19.7H14.21C14.7622 19.7 15.21 20.1477 15.21 20.7C15.21 21.2522 14.7622 21.7 14.21 21.7H14.2C13.6477 21.7 13.2 21.2522 13.2 20.7Z" fill="black"/>
<path fill-rule="evenodd" clip-rule="evenodd" d="M8.79993 20.7C8.79993 20.1477 9.24764 19.7 9.79993 19.7H9.80993C10.3622 19.7 10.8099 20.1477 10.8099 20.7C10.8099 21.2522 10.3622 21.7 9.80993 21.7H9.79993C9.24764 21.7 8.79993 21.2522 8.79993 20.7Z" fill="black"/>
<path fill-rule="evenodd" clip-rule="evenodd" d="M10.2146 4.2511C9.12927 4.79576 8.20155 5.82747 7.78251 7.54137C7.69383 7.90403 7.39692 8.19017 7.02327 8.25937C4.62163 8.70417 3.56833 10.5759 3.77558 12.2315C3.87976 13.0638 4.30232 13.8603 5.06802 14.4347C5.83404 15.0094 6.99419 15.398 8.62324 15.3067C9.75301 15.2434 12.2365 15.2758 14.3657 15.3035C15.3919 15.3169 16.3358 15.3292 17.0061 15.3292H17.0283L17.0504 15.3305C18.2457 15.4013 19.021 15.1056 19.4948 14.7135C19.9696 14.3207 20.2138 13.7727 20.2463 13.1933C20.3131 12 19.503 10.8338 18.1157 10.767C17.4636 10.7356 17.0272 10.0746 17.247 9.46443C17.7548 8.05531 17.5174 6.86299 16.8872 5.93557C16.2409 4.98444 15.1477 4.26816 13.8997 3.94181C12.6539 3.61604 11.3203 3.69627 10.2146 4.2511ZM18.8475 9.35426C19.2541 7.73644 18.9268 6.26829 18.1278 5.09249C17.2442 3.79217 15.8165 2.89262 14.2792 2.49061C12.7396 2.088 11.0236 2.16687 9.54187 2.91043C8.11926 3.62433 6.96993 4.92338 6.41305 6.85574C3.46322 7.55912 1.9913 10.0541 2.2872 12.4178C2.44012 13.6395 3.06543 14.8075 4.16784 15.6346C5.26994 16.4614 6.79814 16.9113 8.70717 16.8043C9.78647 16.7439 12.1442 16.7748 14.2391 16.8024C15.2831 16.8161 16.2617 16.8289 16.9844 16.8292C18.4572 16.9121 19.6257 16.5522 20.4511 15.8692C21.2797 15.1835 21.6906 14.2302 21.7439 13.2772C21.8385 11.5877 20.7918 9.77479 18.8475 9.35426Z" fill="black"/>
</svg>
