<svg width="24" height="24" viewBox="0 0 24 24" fill="none" xmlns="http://www.w3.org/2000/svg">
<path fill-rule="evenodd" clip-rule="evenodd" d="M11.2359 3.5855C11.3372 2.67356 12.6628 2.67365 12.7641 3.5855C13.2114 7.61091 16.3891 10.7886 20.4145 11.2359C21.3264 11.3372 21.3263 12.6628 20.4145 12.7641C16.3891 13.2114 13.2114 16.3891 12.7641 20.4145C12.6628 21.3264 11.3372 21.3263 11.2359 20.4145C10.7886 16.3891 7.61094 13.2114 3.58553 12.7641C2.6736 12.6628 2.67368 11.3372 3.58553 11.2359C7.61094 10.7886 10.7886 7.61091 11.2359 3.5855ZM12 6.55719C10.9713 9.01135 9.01138 10.9713 6.55722 12C9.01138 13.0287 10.9713 14.9886 12 17.4428C13.0287 14.9886 14.9886 13.0287 17.4428 12C14.9886 10.9713 13.0287 9.01135 12 6.55719Z" fill="black"/>
<path fill-rule="evenodd" clip-rule="evenodd" d="M5.27898 14.7913C5.50995 14.0984 6.49002 14.0984 6.72098 14.7913L6.73715 14.8398C6.96111 15.5117 7.48832 16.0389 8.16018 16.2628L8.20869 16.279C8.90158 16.51 8.90159 17.49 8.20869 17.721L8.16018 17.7372C7.48832 17.9611 6.96111 18.4883 6.73715 19.1602L6.72098 19.2087C6.49002 19.9016 5.50995 19.9016 5.27898 19.2087L5.26281 19.1602C5.03886 18.4883 4.51165 17.9611 3.83979 17.7372L3.79127 17.721C3.09839 17.4901 3.09838 16.51 3.79127 16.279L3.83979 16.2628C4.51165 16.0389 5.03886 15.5117 5.26281 14.8398L5.27898 14.7913ZM5.99998 16.5399C5.86024 16.7063 5.70628 16.8603 5.53989 17C5.70628 17.1398 5.86024 17.2937 5.99998 17.4601C6.13973 17.2937 6.29369 17.1398 6.46008 17C6.29369 16.8603 6.13973 16.7063 5.99998 16.5399Z" fill="black"/>
<path fill-rule="evenodd" clip-rule="evenodd" d="M17.2048 3.40194C17.3677 2.58733 18.5324 2.58734 18.6953 3.40194L18.7183 3.51675C18.8964 4.40743 19.5926 5.10365 20.4833 5.28179L20.5981 5.30475C21.4127 5.46767 21.4127 6.63231 20.5981 6.79524L20.4833 6.8182C19.5926 6.99634 18.8964 7.69255 18.7183 8.58324L18.6953 8.69805C18.5324 9.51264 17.3677 9.51267 17.2048 8.69805L17.1818 8.58324C17.0037 7.69255 16.3075 6.99634 15.4168 6.8182L15.302 6.79524C14.4874 6.63232 14.4874 5.46767 15.302 5.30475L15.4168 5.28179C16.3075 5.10365 17.0037 4.40743 17.1818 3.51675L17.2048 3.40194ZM17.95 5.35917C17.7509 5.61849 17.5185 5.85082 17.2592 6.04999C17.5185 6.24917 17.7509 6.4815 17.95 6.74082C18.1492 6.4815 18.3816 6.24917 18.6409 6.04999C18.3816 5.85082 18.1492 5.61849 17.95 5.35917Z" fill="black"/>
</svg>
