<svg width="24" height="24" viewBox="0 0 24 24" fill="none" xmlns="http://www.w3.org/2000/svg">
<path fill-rule="evenodd" clip-rule="evenodd" d="M17.571 17.6949C17.9306 17.9005 18.0553 18.3587 17.8497 18.7183L16.7394 20.6592C16.5337 21.0188 16.0755 21.1435 15.716 20.9378C15.3564 20.7322 15.2317 20.274 15.4374 19.9144L16.5476 17.9735C16.7533 17.6139 17.2115 17.4892 17.571 17.6949Z" fill="black"/>
<path fill-rule="evenodd" clip-rule="evenodd" d="M12.333 17.4907C12.6087 17.6745 12.6832 18.0471 12.4994 18.3228L12.1213 18.89H12.1264C12.7654 18.89 13.1465 19.6021 12.7921 20.1337L11.9994 21.3228C11.8156 21.5985 11.443 21.673 11.1673 21.4892C10.8916 21.3054 10.8171 20.9329 11.0009 20.6571L11.379 20.09H11.3739C10.7349 20.09 10.3538 19.3778 10.7082 18.8462L11.5009 17.6571C11.6847 17.3814 12.0573 17.3069 12.333 17.4907Z" fill="black"/>
<path fill-rule="evenodd" clip-rule="evenodd" d="M7.77099 17.6949C8.13054 17.9005 8.25528 18.3587 8.04961 18.7183L6.93934 20.6592C6.73367 21.0188 6.27547 21.1435 5.91593 20.9378C5.55638 20.7322 5.43164 20.274 5.63731 19.9144L6.74758 17.9735C6.95325 17.6139 7.41144 17.4892 7.77099 17.6949Z" fill="black"/>
<path fill-rule="evenodd" clip-rule="evenodd" d="M10.2148 4.20093C9.12939 4.74559 8.20167 5.7773 7.78263 7.4912C7.69396 7.85386 7.39704 8.14 7.0234 8.2092C4.62175 8.654 3.56845 10.5257 3.7757 12.1814C3.87988 13.0136 4.30244 13.8101 5.06814 14.3846C5.83416 14.9592 6.99432 15.3478 8.62337 15.2565C9.75313 15.1932 12.2366 15.2256 14.3658 15.2533C15.392 15.2667 16.3359 15.279 17.0062 15.279H17.0284L17.0505 15.2803C18.2458 15.3511 19.0211 15.0554 19.4949 14.6634C19.9697 14.2705 20.214 13.7225 20.2464 13.1432C20.3132 11.9499 19.5032 10.7836 18.1159 10.7168C17.4638 10.6854 17.0273 10.0244 17.2472 9.41425C17.7549 8.00514 17.5175 6.81282 16.8873 5.88539C16.241 4.93427 15.1478 4.21799 13.8998 3.89164C12.6541 3.56587 11.3204 3.6461 10.2148 4.20093ZM18.8476 9.30409C19.2542 7.68627 18.927 6.21811 18.128 5.04232C17.2443 3.742 15.8166 2.84245 14.2793 2.44044C12.7397 2.03783 11.0237 2.1167 9.54199 2.86026C8.11938 3.57416 6.97005 4.87321 6.41317 6.80557C3.46334 7.50895 1.99142 10.0039 2.28732 12.3677C2.44024 13.5893 3.06555 14.7574 4.16796 15.5844C5.27006 16.4112 6.79826 16.8612 8.70729 16.7542C9.7866 16.6937 12.1443 16.7247 14.2392 16.7522C15.2832 16.7659 16.2619 16.7788 16.9845 16.779C18.4573 16.8619 19.6258 16.502 20.4512 15.819C21.2798 15.1333 21.6907 14.18 21.7441 13.227C21.8386 11.5375 20.7919 9.72462 18.8476 9.30409Z" fill="black"/>
</svg>
