<svg width="24" height="24" viewBox="0 0 24 24" fill="none" xmlns="http://www.w3.org/2000/svg">
<path fill-rule="evenodd" clip-rule="evenodd" d="M12.0143 7.38315C11.0379 7.86423 10.2045 8.77258 9.82512 10.2841C9.73454 10.6449 9.43788 10.9286 9.06565 10.997C6.89365 11.3965 5.96825 13.0514 6.153 14.4878C6.24621 15.2125 6.62164 15.9099 7.30875 16.4155C7.99706 16.9221 9.04651 17.2696 10.5296 17.188C11.5664 17.131 13.8462 17.1601 15.7982 17.1851C16.7375 17.1971 17.6009 17.2082 18.2134 17.2082H18.2351L18.2569 17.2095C19.3406 17.2725 20.0357 17.0094 20.4553 16.67C20.8746 16.3309 21.0888 15.8608 21.1192 15.3643C21.1817 14.3408 20.4795 13.3227 19.2489 13.2537C18.5984 13.2173 18.1675 12.5569 18.3862 11.9493C18.8307 10.7147 18.6135 9.676 18.048 8.86561C17.4652 8.03052 16.4788 7.3961 15.3468 7.10706C14.2172 6.81866 13.0114 6.89188 12.0143 7.38315ZM19.9805 11.848C20.3304 10.3907 20.0176 9.06685 19.2781 8.0072C18.454 6.82628 17.1329 6.015 15.7179 5.65369C14.3003 5.29174 12.7195 5.36352 11.3513 6.03761C10.0427 6.68235 8.98133 7.85365 8.46 9.59259C5.75537 10.2432 4.38624 12.5098 4.66526 14.6792C4.80958 15.8012 5.39521 16.8697 6.41966 17.6236C7.44292 18.3767 8.85552 18.7824 10.612 18.6858C11.5993 18.6314 13.7555 18.6592 15.6738 18.684C16.6306 18.6964 17.5283 18.7079 18.1921 18.7082C19.5459 18.7827 20.6283 18.4593 21.3987 17.8363C22.1737 17.2094 22.5627 16.3342 22.6164 15.4557C22.7109 13.9084 21.7513 12.2612 19.9805 11.848Z" fill="black"/>
<path fill-rule="evenodd" clip-rule="evenodd" d="M5.96641 0.787697C5.47556 1.24774 5.63425 1.89929 5.78791 2.251L5.78842 2.25217C5.97792 2.6839 6.08176 3.15601 6.0779 3.65585L6.07788 3.65852C6.0702 5.50979 4.51777 7.10929 2.60721 7.18717C2.32385 7.19894 2.05342 7.17938 1.7914 7.1326L1.79381 7.13303C1.57005 7.09233 1.32659 7.08022 1.09101 7.13498C0.849284 7.19117 0.57556 7.33047 0.401209 7.61485C0.227563 7.89807 0.227147 8.20351 0.283939 8.4417C0.339404 8.67431 0.456436 8.88498 0.590302 9.0659C1.19559 9.89104 2.02586 10.5445 2.99096 10.9432C3.3738 11.1014 3.81235 10.9192 3.9705 10.5364C4.12866 10.1536 3.94652 9.71501 3.56369 9.55686C3.06533 9.35098 2.61701 9.05342 2.24115 8.68654C2.38168 8.69202 2.52401 8.69191 2.66831 8.68593C5.35656 8.57634 7.56602 6.34226 7.57787 3.66609C7.58132 3.20308 7.5202 2.75581 7.40371 2.3309C8.34517 2.91116 9.03003 3.8443 9.26736 4.93101C9.35573 5.33568 9.75543 5.59209 10.1601 5.50371C10.5648 5.41534 10.8212 5.01564 10.7328 4.61096C10.3409 2.81632 9.0741 1.35141 7.40537 0.649966C7.05644 0.502785 6.43192 0.351406 5.96641 0.787697Z" fill="black"/>
<path fill-rule="evenodd" clip-rule="evenodd" d="M19.5708 19.455C19.9303 19.6607 20.0551 20.1189 19.8494 20.4784L18.7391 22.4194C18.5335 22.7789 18.0753 22.9036 17.7157 22.698C17.3562 22.4923 17.2314 22.0341 17.4371 21.6746L18.5474 19.7336C18.7531 19.3741 19.2112 19.2493 19.5708 19.455Z" fill="black"/>
<path fill-rule="evenodd" clip-rule="evenodd" d="M14.333 19.2508C14.6087 19.4346 14.6832 19.8071 14.4994 20.0828L14.1213 20.65H14.1264C14.7654 20.65 15.1465 21.3621 14.7921 21.8938L13.9994 23.0828C13.8156 23.3586 13.443 23.4331 13.1673 23.2493C12.8916 23.0654 12.8171 22.6929 13.0009 22.4172L13.379 21.85H13.3739C12.7349 21.85 12.3538 21.1379 12.7082 20.6063L13.5009 19.4172C13.6847 19.1415 14.0573 19.067 14.333 19.2508Z" fill="black"/>
<path fill-rule="evenodd" clip-rule="evenodd" d="M9.77099 19.455C10.1305 19.6607 10.2553 20.1189 10.0496 20.4784L8.93934 22.4194C8.73367 22.7789 8.27547 22.9036 7.91593 22.698C7.55638 22.4923 7.43164 22.0341 7.63731 21.6746L8.74758 19.7336C8.95325 19.3741 9.41144 19.2493 9.77099 19.455Z" fill="black"/>
</svg>
