<svg width="24" height="24" viewBox="0 0 24 24" fill="none" xmlns="http://www.w3.org/2000/svg">
<path fill-rule="evenodd" clip-rule="evenodd" d="M12.0141 6.88327C11.0377 7.36435 10.2044 8.2727 9.825 9.7842C9.73442 10.1451 9.43776 10.4287 9.06553 10.4971C6.89353 10.8967 5.96813 12.5515 6.15288 13.9879C6.24609 14.7126 6.62152 15.41 7.30863 15.9156C7.99693 16.4222 9.04639 16.7698 10.5294 16.6881C11.5663 16.6311 13.8461 16.6603 15.798 16.6852C16.7374 16.6973 17.6008 16.7083 18.2132 16.7083H18.235L18.2568 16.7096C19.3405 16.7726 20.0355 16.5096 20.4552 16.1701C20.8744 15.831 21.0887 15.3609 21.119 14.8644C21.1815 13.8409 20.4794 12.8228 19.2488 12.7539C18.5982 12.7174 18.1673 12.057 18.3861 11.4495C18.8306 10.2148 18.6134 9.17613 18.0479 8.36574C17.4651 7.53064 16.4787 6.89623 15.3466 6.60718C14.2171 6.31879 13.0112 6.392 12.0141 6.88327ZM19.9804 11.3481C20.3303 9.89082 20.0175 8.56697 19.278 7.50732C18.4539 6.3264 17.1328 5.51512 15.7177 5.15381C14.3001 4.79186 12.7193 4.86364 11.3512 5.53773C10.0426 6.18247 8.9812 7.35377 8.45987 9.09272C5.75525 9.74333 4.38611 12.0099 4.66514 14.1793C4.80946 15.3014 5.39509 16.3698 6.41954 17.1238C7.44279 17.8768 8.85539 18.2825 10.6119 18.1859C11.5992 18.1315 13.7554 18.1594 15.6737 18.1841C16.6305 18.1965 17.5281 18.2081 18.192 18.2083C19.5457 18.2829 20.6282 17.9594 21.3985 17.3364C22.1736 16.7095 22.5626 15.8344 22.6162 14.9559C22.7108 13.4085 21.7512 11.7614 19.9804 11.3481Z" fill="black"/>
<path fill-rule="evenodd" clip-rule="evenodd" d="M19.5708 18.9552C19.9303 19.1608 20.0551 19.619 19.8494 19.9786L18.7391 21.9195C18.5335 22.2791 18.0753 22.4038 17.7157 22.1982C17.3562 21.9925 17.2314 21.5343 17.4371 21.1748L18.5474 19.2338C18.7531 18.8743 19.2112 18.7495 19.5708 18.9552Z" fill="black"/>
<path fill-rule="evenodd" clip-rule="evenodd" d="M14.3327 18.751C14.6084 18.9348 14.6829 19.3073 14.4991 19.583L14.121 20.1502H14.1262C14.7652 20.1502 15.1463 20.8623 14.7918 21.394L13.9991 22.583C13.8153 22.8587 13.4428 22.9333 13.1671 22.7494C12.8914 22.5656 12.8169 22.1931 13.0007 21.9174L13.3788 21.3502H13.3736C12.7347 21.3502 12.3535 20.6381 12.708 20.1065L13.5007 18.9174C13.6845 18.6417 14.057 18.5672 14.3327 18.751Z" fill="black"/>
<path fill-rule="evenodd" clip-rule="evenodd" d="M9.77075 18.9552C10.1303 19.1608 10.255 19.619 10.0494 19.9786L8.93909 21.9195C8.73342 22.2791 8.27523 22.4038 7.91568 22.1982C7.55614 21.9925 7.43139 21.5343 7.63706 21.1748L8.74733 19.2338C8.953 18.8743 9.4112 18.7495 9.77075 18.9552Z" fill="black"/>
<path fill-rule="evenodd" clip-rule="evenodd" d="M5.01569 1.04211C5.40676 0.905593 5.83445 1.11195 5.97097 1.50302L6.30035 2.44661C6.43686 2.83768 6.2305 3.26537 5.83943 3.40189C5.44836 3.5384 5.02067 3.33204 4.88416 2.94097L4.55477 1.99738C4.41826 1.60631 4.62462 1.17862 5.01569 1.04211ZM9.74816 1.29391C10.1276 1.46014 10.3004 1.90245 10.1341 2.28185L9.75618 3.14448C9.58996 3.52388 9.14764 3.69668 8.76824 3.53046C8.38885 3.36423 8.21604 2.92191 8.38227 2.54252L8.76022 1.67988C8.92645 1.30049 9.36877 1.12768 9.74816 1.29391ZM8.59507 5.69154C8.05594 5.09895 7.23507 4.88 6.48429 5.17133C5.4603 5.56867 4.88908 6.80114 5.28961 7.94855C5.37267 8.18648 5.48967 8.397 5.6309 8.5776C5.88607 8.90388 5.82842 9.37524 5.50214 9.63041C5.17585 9.88558 4.70449 9.82793 4.44932 9.50165C4.20674 9.19146 4.01055 8.83574 3.87342 8.44291C3.22446 6.58384 4.1141 4.48208 5.94165 3.77292C7.30811 3.24268 8.77586 3.66127 9.7046 4.68212C9.98335 4.98851 9.96094 5.46285 9.65455 5.7416C9.34816 6.02034 8.87381 5.99793 8.59507 5.69154ZM1.54444 4.45738C1.72582 4.08499 2.17473 3.93013 2.54713 4.1115L3.36531 4.50999C3.7377 4.69136 3.89256 5.14028 3.71119 5.51267C3.52982 5.88507 3.0809 6.03992 2.70851 5.85855L1.89032 5.46006C1.51793 5.27869 1.36307 4.82977 1.54444 4.45738ZM3.55969 8.59219C3.70954 8.97835 3.51797 9.41287 3.13181 9.56271L2.27128 9.89663C1.88512 10.0465 1.4506 9.85491 1.30075 9.46875C1.15091 9.08259 1.34248 8.64807 1.72864 8.49822L2.58917 8.16431C2.97533 8.01446 3.40985 8.20603 3.55969 8.59219Z" fill="black"/>
</svg>
