<svg width="24" height="24" viewBox="0 0 24 24" fill="none" xmlns="http://www.w3.org/2000/svg">
<path fill-rule="evenodd" clip-rule="evenodd" d="M14.0408 2.37894C14.6756 2.64231 15.1383 3.28008 15.1383 4.07825V10.0543H17.0128C17.7973 10.0543 18.363 10.5664 18.6045 11.1526C18.8452 11.7369 18.8069 12.4797 18.3374 13.0664L18.3374 13.0665L11.909 21.0986C11.9087 21.099 11.9084 21.0994 11.908 21.0998C11.3912 21.7485 10.6003 21.8893 9.9538 21.621C9.31903 21.3577 8.85633 20.7199 8.85633 19.9217V13.9457H6.98177C6.19782 13.9457 5.63632 13.4296 5.39647 12.8473C5.15722 12.2665 5.19056 11.5257 5.65374 10.9379L5.65725 10.9335L5.65727 10.9335L12.0856 2.90134C12.0859 2.90106 12.0861 2.90077 12.0863 2.90049C12.6032 2.25154 13.3942 2.11067 14.0408 2.37894ZM13.3685 3.75349C13.3489 3.75825 13.3091 3.77286 13.2595 3.83521L13.2581 3.83692L6.83061 11.868C6.74283 11.9807 6.72565 12.1358 6.7834 12.276C6.84083 12.4154 6.92485 12.4457 6.98177 12.4457H9.60633C10.0205 12.4457 10.3563 12.7815 10.3563 13.1957V19.9217C10.3563 20.1138 10.4542 20.2047 10.5287 20.2355C10.5685 20.2521 10.6019 20.2524 10.6261 20.2465C10.6457 20.2417 10.6855 20.2271 10.7351 20.1648L10.7365 20.1631L17.1662 12.1293C17.1662 12.1293 17.1662 12.1292 17.1662 12.1292C17.2573 12.0153 17.2742 11.8614 17.2176 11.724C17.1618 11.5886 17.0777 11.5543 17.0128 11.5543H14.3883C13.9741 11.5543 13.6383 11.2185 13.6383 10.8043V4.07825C13.6383 3.8862 13.5404 3.79531 13.466 3.76442C13.4261 3.7479 13.3927 3.74761 13.3685 3.75349Z" fill="black"/>
<path fill-rule="evenodd" clip-rule="evenodd" d="M7.29637 14.7565C7.57975 14.9283 7.67023 15.2972 7.49846 15.5806L6.91817 16.5379H7.42294C7.75998 16.5379 8.00257 16.7487 8.11223 16.9741C8.22127 17.1982 8.22971 17.4881 8.07738 17.7394L7.12096 19.3173C6.94919 19.6006 6.58022 19.6911 6.29684 19.5194C6.01347 19.3476 5.92299 18.9786 6.09476 18.6952L6.67504 17.7379H6.17028C5.83323 17.7379 5.59065 17.5271 5.48099 17.3018C5.37194 17.0777 5.36351 16.7877 5.51583 16.5364L6.47226 14.9586C6.64403 14.6752 7.013 14.5847 7.29637 14.7565Z" fill="black"/>
<path fill-rule="evenodd" clip-rule="evenodd" d="M17.6587 4.01356C17.9421 4.18533 18.0325 4.5543 17.8608 4.83768L17.2805 5.795H17.7852C18.1223 5.795 18.3649 6.00578 18.4745 6.23114C18.5836 6.45523 18.592 6.74519 18.4397 6.99648L17.4833 8.57435C17.3115 8.85772 16.9425 8.9482 16.6591 8.77643C16.3758 8.60466 16.2853 8.23569 16.4571 7.95232L17.0373 6.995H16.5326C16.1955 6.995 15.953 6.78422 15.8433 6.55885C15.7342 6.33476 15.7258 6.04481 15.8781 5.79351L16.8346 4.21565C17.0063 3.93227 17.3753 3.8418 17.6587 4.01356Z" fill="black"/>
</svg>
