<svg width="24" height="24" viewBox="0 0 24 24" fill="none" xmlns="http://www.w3.org/2000/svg">
<path fill-rule="evenodd" clip-rule="evenodd" d="M10.0439 3.57711C8.85672 4.15088 7.85617 5.23118 7.40643 7.00695C7.31502 7.36789 7.01666 7.65212 6.64181 7.71834C4.13153 8.16181 2.9924 9.96517 3.07414 11.5973C3.15407 13.1931 4.42806 14.8974 7.38477 15.068C7.7983 15.0919 8.11418 15.4465 8.09031 15.86C8.06645 16.2735 7.71187 16.5894 7.29834 16.5655C3.69755 16.3577 1.70003 14.1481 1.57602 11.6723C1.45821 9.32013 3.05736 6.9805 6.04296 6.30896C6.63981 4.29946 7.8752 2.95926 9.39114 2.22658C10.9671 1.46488 12.7929 1.38365 14.4332 1.79684C16.0706 2.2093 17.5957 3.13311 18.5407 4.47392C19.3982 5.69057 19.7494 7.21487 19.3058 8.89508C21.2479 9.28037 22.3832 10.9381 22.4306 12.6062C22.457 13.538 22.1478 14.4935 21.4458 15.2426C20.7404 15.9953 19.6911 16.4849 18.3342 16.5845C17.9211 16.6148 17.5616 16.3045 17.5313 15.8914C17.5009 15.4783 17.8112 15.1189 18.2243 15.0885C19.2739 15.0115 19.9467 14.6486 20.3512 14.2169C20.7591 13.7817 20.9474 13.2209 20.9312 12.6488C20.8984 11.494 20.0473 10.3753 18.568 10.3143C17.9008 10.2868 17.471 9.60707 17.6993 8.99987C18.2481 7.53984 17.9954 6.30402 17.3146 5.33807C16.6149 4.34525 15.4271 3.59407 14.0668 3.2514C12.7094 2.90947 11.2525 2.99297 10.0439 3.57711Z" fill="black"/>
<path fill-rule="evenodd" clip-rule="evenodd" d="M7.87084 18.4048C8.23039 18.6105 8.35513 19.0687 8.14946 19.4282L7.03919 21.3692C6.83352 21.7287 6.37532 21.8535 6.01578 21.6478C5.65623 21.4421 5.53149 20.9839 5.73716 20.6244L6.84743 18.6834C7.0531 18.3239 7.5113 18.1992 7.87084 18.4048Z" fill="black"/>
<path fill-rule="evenodd" clip-rule="evenodd" d="M18.8708 18.4048C19.2304 18.6105 19.3551 19.0687 19.1495 19.4282L18.0392 21.3692C17.8335 21.7287 17.3753 21.8535 17.0158 21.6478C16.6562 21.4421 16.5315 20.9839 16.7372 20.6244L17.8474 18.6834C18.0531 18.3239 18.5113 18.1992 18.8708 18.4048Z" fill="black"/>
<path fill-rule="evenodd" clip-rule="evenodd" d="M4.56595 17.6691C4.92735 17.8715 5.05624 18.3285 4.85384 18.6899L4.30753 19.6654C4.10513 20.0268 3.64809 20.1557 3.28669 19.9533C2.92529 19.7509 2.7964 19.2938 2.9988 18.9324L3.54511 17.9569C3.74751 17.5956 4.20456 17.4667 4.56595 17.6691Z" fill="black"/>
<path fill-rule="evenodd" clip-rule="evenodd" d="M14.0383 11.3268C14.5092 11.5221 14.8424 11.9915 14.8424 12.5609V15.4284H15.5039C16.0921 15.4284 16.5077 15.8143 16.6805 16.2337C16.8525 16.6512 16.8269 17.1868 16.487 17.6116L13.0301 21.9309C13.0299 21.9312 13.0296 21.9315 13.0293 21.9319C12.6498 22.408 12.0571 22.5165 11.5745 22.3162C11.1036 22.1208 10.7704 21.6514 10.7704 21.0821V18.2146H10.1088C9.51921 18.2146 9.10687 17.8247 8.93572 17.4092C8.76517 16.9952 8.78673 16.4616 9.12233 16.0357L9.12584 16.0313L12.5826 11.7121C12.5829 11.7117 12.5832 11.7114 12.5835 11.7111C12.963 11.2349 13.5557 11.1265 14.0383 11.3268ZM13.3424 13.1634L10.5002 16.7146H11.5204C11.9346 16.7146 12.2704 17.0504 12.2704 17.4646V20.4795L15.1125 16.9284H14.0924C13.6781 16.9284 13.3424 16.5926 13.3424 16.1784V13.1634Z" fill="black"/>
</svg>
