<svg width="24" height="24" viewBox="0 0 24 24" fill="none" xmlns="http://www.w3.org/2000/svg">
<path fill-rule="evenodd" clip-rule="evenodd" d="M10.0431 3.67702C8.85605 4.25072 7.85563 5.33087 7.40595 7.10641C7.31454 7.46735 7.01618 7.75157 6.64133 7.8178C4.13137 8.26122 2.9924 10.0643 3.07414 11.6962C3.15406 13.2918 4.42787 14.9959 7.38421 15.1665C7.79774 15.1904 8.11362 15.5449 8.08975 15.9585C8.06589 16.372 7.71131 16.6879 7.29778 16.664C3.69736 16.4562 1.70002 14.2468 1.57602 11.7713C1.45821 9.4193 3.05721 7.07991 6.04248 6.40842C6.63927 4.39915 7.87454 3.05909 9.39032 2.32648C10.9661 1.56487 12.7917 1.48365 14.4319 1.89679C16.0691 2.3092 17.594 3.23291 18.5389 4.57359C19.3964 5.7901 19.7475 7.31424 19.304 8.99426C21.2459 9.37954 22.3811 11.0371 22.4284 12.705C22.4549 13.6368 22.1457 14.5921 21.4437 15.3412C20.7384 16.0938 19.6892 16.5834 18.3324 16.683C17.9193 16.7133 17.5598 16.403 17.5295 15.9899C17.4992 15.5768 17.8095 15.2173 18.2226 15.187C19.2719 15.11 19.9447 14.7471 20.3492 14.3155C20.757 13.8804 20.9453 13.3197 20.929 12.7476C20.8963 11.593 20.0453 10.4744 18.5662 10.4134C17.899 10.3859 17.4692 9.70624 17.6975 9.09904C18.2463 7.63921 17.9936 6.40356 17.3129 5.43774C16.6132 4.44506 15.4256 3.69398 14.0655 3.35135C12.7082 3.00946 11.2515 3.09296 10.0431 3.67702Z" fill="black"/>
<path fill-rule="evenodd" clip-rule="evenodd" d="M13.9995 11.3384C14.4687 11.5331 14.8005 12.0007 14.8005 12.5676V15.4022H15.4492C16.0353 15.4022 16.4493 15.7868 16.6214 16.2045C16.7926 16.6202 16.7672 17.1536 16.4286 17.5767L16.4286 17.5767L13.0032 21.8566C13.003 21.857 13.0027 21.8573 13.0024 21.8576C12.6244 22.3319 12.0338 22.4401 11.5529 22.2405C11.0837 22.0459 10.7519 21.5782 10.7519 21.0113V18.1767H10.1032C9.51561 18.1767 9.10485 17.7882 8.93443 17.3745C8.7646 16.9622 8.78604 16.4308 9.12029 16.0066L9.1238 16.0022L9.12382 16.0022L12.5491 11.7223C12.5494 11.722 12.5497 11.7217 12.5499 11.7213C12.928 11.247 13.5186 11.1389 13.9995 11.3384ZM13.3005 13.1841L10.5052 16.6767H11.5019C11.9161 16.6767 12.2519 17.0125 12.2519 17.4267V20.3948L15.0472 16.9022H14.0505C13.6362 16.9022 13.3005 16.5664 13.3005 16.1522V13.1841Z" fill="black"/>
<path fill-rule="evenodd" clip-rule="evenodd" d="M7.5 21.2C7.5 20.6477 7.94772 20.2 8.5 20.2H8.51C9.06228 20.2 9.51 20.6477 9.51 21.2C9.51 21.7523 9.06228 22.2 8.51 22.2H8.5C7.94772 22.2 7.5 21.7523 7.5 21.2Z" fill="black"/>
<path fill-rule="evenodd" clip-rule="evenodd" d="M14.8 21.4999C14.8 20.9477 15.2478 20.4999 15.8 20.4999H15.81C16.3623 20.4999 16.81 20.9477 16.81 21.4999C16.81 22.0522 16.3623 22.4999 15.81 22.4999H15.8C15.2478 22.4999 14.8 22.0522 14.8 21.4999Z" fill="black"/>
<path fill-rule="evenodd" clip-rule="evenodd" d="M17.7 19.7C17.7 19.1477 18.1477 18.7 18.7 18.7H18.71C19.2622 18.7 19.71 19.1477 19.71 19.7C19.71 20.2523 19.2622 20.7 18.71 20.7H18.7C18.1477 20.7 17.7 20.2523 17.7 19.7Z" fill="black"/>
<path fill-rule="evenodd" clip-rule="evenodd" d="M5.19995 18.8C5.19995 18.2477 5.64767 17.8 6.19995 17.8H6.20995C6.76224 17.8 7.20995 18.2477 7.20995 18.8C7.20995 19.3523 6.76224 19.8 6.20995 19.8H6.19995C5.64767 19.8 5.19995 19.3523 5.19995 18.8Z" fill="black"/>
</svg>
