<svg width="24" height="24" viewBox="0 0 24 24" fill="none" xmlns="http://www.w3.org/2000/svg">
<path fill-rule="evenodd" clip-rule="evenodd" d="M5.47151 5.94404C5.17789 6.22693 5.09998 6.45436 5.09998 6.61734C5.09998 6.78031 5.17789 7.00775 5.47151 7.29063C5.76724 7.57554 6.23463 7.86669 6.87363 8.12708C8.14789 8.64633 9.95995 8.98467 12 8.98467C14.04 8.98467 15.8521 8.64633 17.1263 8.12708C17.7653 7.86669 18.2327 7.57554 18.5284 7.29063C18.8221 7.00775 18.9 6.78031 18.9 6.61734C18.9 6.45436 18.8221 6.22693 18.5284 5.94404C18.2327 5.65913 17.7653 5.36799 17.1263 5.10759C15.8521 4.58834 14.04 4.25 12 4.25C9.95995 4.25 8.14789 4.58834 6.87363 5.10759C6.23463 5.36799 5.76724 5.65913 5.47151 5.94404ZM6.30758 3.7185C7.80209 3.1095 9.81503 2.75 12 2.75C14.1849 2.75 16.1979 3.1095 17.6924 3.7185C18.4377 4.02223 19.0907 4.40282 19.5692 4.86381C20.0498 5.32684 20.4 5.91948 20.4 6.61734C20.4 7.31519 20.0498 7.90784 19.5692 8.37086C19.0907 8.83185 18.4377 9.21244 17.6924 9.51617C16.1979 10.1252 14.1849 10.4847 12 10.4847C9.81503 10.4847 7.80209 10.1252 6.30758 9.51617C5.56221 9.21244 4.90928 8.83185 4.43079 8.37086C3.95019 7.90784 3.59998 7.31519 3.59998 6.61734C3.59998 5.91948 3.95019 5.32684 4.43079 4.86381C4.90928 4.40282 5.56221 4.02223 6.30758 3.7185Z" fill="black"/>
<path fill-rule="evenodd" clip-rule="evenodd" d="M4.64352 10.8751C4.96565 10.6147 5.43788 10.6647 5.69828 10.9869C6.0329 11.4008 6.77738 11.8518 7.92617 12.196C9.04757 12.532 10.457 12.7369 12 12.7369C13.543 12.7369 14.9525 12.532 16.0739 12.196C17.2227 11.8518 17.9671 11.4008 18.3018 10.9869C18.5622 10.6647 19.0344 10.6147 19.3565 10.8751C19.6786 11.1355 19.7287 11.6077 19.4683 11.9299C18.8505 12.694 17.7575 13.2574 16.5044 13.6329C15.2239 14.0166 13.6671 14.2369 12 14.2369C10.333 14.2369 8.7761 14.0166 7.4956 13.6329C6.24249 13.2574 5.1495 12.694 4.53175 11.9299C4.27136 11.6077 4.3214 11.1355 4.64352 10.8751Z" fill="black"/>
<path fill-rule="evenodd" clip-rule="evenodd" d="M7.578 15.4279C7.82884 15.0983 8.29939 15.0344 8.62902 15.2853C9.16919 15.6963 10.4127 16.0661 11.9998 16.0661C13.587 16.0661 14.8305 15.6963 15.3707 15.2853C15.7003 15.0344 16.1709 15.0983 16.4217 15.4279C16.6725 15.7576 16.6087 16.2281 16.279 16.479C15.3582 17.1797 13.7239 17.5661 11.9998 17.5661C10.2757 17.5661 8.64148 17.1797 7.72067 16.479C7.39104 16.2281 7.32717 15.7576 7.578 15.4279Z" fill="black"/>
<path fill-rule="evenodd" clip-rule="evenodd" d="M10.5625 19.7868C10.7547 19.4185 11.2076 19.2744 11.574 19.465C11.6136 19.4855 11.732 19.5262 11.9458 19.5416C12.1491 19.5562 12.3989 19.5449 12.6715 19.4973C12.9441 19.4498 13.1834 19.3757 13.3703 19.2931C13.567 19.2061 13.6653 19.1276 13.6959 19.0948C13.9792 18.791 14.4533 18.7733 14.7549 19.0555C15.0565 19.3376 15.0714 19.8126 14.7881 20.1165C14.3734 20.5612 13.6402 20.851 12.9201 20.9766C12.2 21.1022 11.414 21.0774 10.8777 20.7986C10.5113 20.608 10.3702 20.1551 10.5625 19.7868Z" fill="black"/>
</svg>
