<svg width="24" height="24" viewBox="0 0 24 24" fill="none" xmlns="http://www.w3.org/2000/svg">
<path fill-rule="evenodd" clip-rule="evenodd" d="M12 2.25C12.4142 2.25 12.75 2.58579 12.75 3V3.9C12.75 4.31421 12.4142 4.65 12 4.65C11.5858 4.65 11.25 4.31421 11.25 3.9V3C11.25 2.58579 11.5858 2.25 12 2.25Z" fill="black"/>
<path fill-rule="evenodd" clip-rule="evenodd" d="M12 12.15C12.4142 12.15 12.75 12.4857 12.75 12.9V18.075C12.75 18.7791 13.3208 19.35 14.025 19.35C14.7292 19.35 15.3 18.7791 15.3 18.075V17.8142C15.3 17.4 15.6358 17.0642 16.05 17.0642C16.4642 17.0642 16.8 17.4 16.8 17.8142V18.075C16.8 19.6075 15.5576 20.85 14.025 20.85C12.4924 20.85 11.25 19.6075 11.25 18.075V12.9C11.25 12.4857 11.5858 12.15 12 12.15Z" fill="black"/>
<path fill-rule="evenodd" clip-rule="evenodd" d="M8.2688 3.89213C9.45172 3.40215 10.7196 3.14996 12 3.14996C13.2803 3.14996 14.5482 3.40215 15.7311 3.89213C16.914 4.38211 17.9889 5.10029 18.8943 6.00566C19.7996 6.91104 20.5178 7.98587 21.0078 9.16879C21.2204 9.68219 21.3883 10.2116 21.5102 10.7511C21.8858 12.4133 20.4593 13.65 19 13.65L4.99996 13.65C3.54061 13.65 2.11413 12.4133 2.48972 10.7511C2.61161 10.2116 2.77948 9.68219 2.99214 9.16879C3.48212 7.98587 4.2003 6.91104 5.10567 6.00567C6.01104 5.10029 7.08587 4.38211 8.2688 3.89213ZM12 4.64996C10.9166 4.64996 9.84376 4.86335 8.84282 5.27795C7.84189 5.69255 6.93241 6.30024 6.16633 7.06633C5.40025 7.83241 4.79256 8.74188 4.37796 9.74282C4.19801 10.1772 4.05597 10.6252 3.95283 11.0817C3.84152 11.5743 4.25017 12.15 4.99996 12.15L19 12.15C19.7498 12.15 20.1584 11.5743 20.0471 11.0817C19.9439 10.6252 19.8019 10.1772 19.622 9.74282C19.2074 8.74188 18.5997 7.83241 17.8336 7.06632C17.0675 6.30024 16.158 5.69255 15.1571 5.27795C14.1562 4.86335 13.0834 4.64996 12 4.64996Z" fill="black"/>
</svg>
